<svg width="121" height="88" viewBox="0 0 121 88" fill="none" xmlns="http://www.w3.org/2000/svg">
<mask id="mask0_869_137" style="mask-type:luminance" maskUnits="userSpaceOnUse" x="0" y="0" width="121" height="88">
<path d="M120.991 0H0V87.932H120.991V0Z" fill="white"/>
</mask>
<g mask="url(#mask0_869_137)">
<path d="M86.3525 69.5562C86.325 69.3916 86.3638 69.2224 86.4604 69.0863C86.557 68.9502 86.7033 68.8581 86.8672 68.8305C86.9485 68.8169 87.0311 68.8196 87.111 68.8386C87.1909 68.8577 87.2663 68.8926 87.3327 68.9411C87.3991 68.9897 87.4555 69.0509 87.4979 69.1217C87.5404 69.192 87.5684 69.2705 87.5806 69.3521C87.595 69.4338 87.5932 69.5172 87.5751 69.5984C87.5571 69.6792 87.5237 69.7558 87.4763 69.8234C87.4289 69.8915 87.3688 69.9491 87.2988 69.9935C87.2293 70.038 87.1516 70.0684 87.0704 70.0824C87.0361 70.087 87.0008 70.087 86.9665 70.0824C86.8189 70.082 86.6758 70.0289 86.5634 69.9327C86.4509 69.8361 86.376 69.7028 86.3525 69.5562ZM88.3436 69.2251C88.3174 69.06 88.3567 68.8908 88.4528 68.7543C88.549 68.6177 88.6944 68.5247 88.8583 68.4948C88.9396 68.4812 89.0226 68.4839 89.103 68.503C89.1834 68.522 89.2588 68.5565 89.3256 68.605C89.3924 68.6536 89.4488 68.7148 89.4922 68.7856C89.5351 68.8563 89.5635 68.9348 89.5762 69.0164C89.5906 69.0985 89.5883 69.1825 89.5703 69.2637C89.5522 69.3444 89.5179 69.4215 89.4701 69.4891C89.4222 69.5571 89.3617 69.6148 89.2913 69.6592C89.2213 69.7032 89.1432 69.7331 89.0615 69.7468H88.9621C88.8158 69.744 88.6745 69.6905 88.563 69.5957C88.451 69.5004 88.3752 69.3698 88.3481 69.2251H88.3436ZM90.3256 68.8894C90.2994 68.7252 90.3378 68.5579 90.4335 68.4218C90.5288 68.2861 90.6733 68.1936 90.8358 68.1637C91.0006 68.1374 91.1686 68.1777 91.304 68.2753C91.439 68.3728 91.5307 68.5202 91.5582 68.6853C91.5844 68.8513 91.5447 69.0205 91.4476 69.1575C91.3505 69.2941 91.2038 69.3866 91.039 69.4156H90.9397C90.792 69.4152 90.6489 69.3621 90.5365 69.2659C90.4241 69.1693 90.3491 69.0359 90.3256 68.8894ZM84.7362 68.835C84.6662 68.683 84.6581 68.5098 84.714 68.3519C84.7696 68.1945 84.8847 68.0648 85.0341 67.9913C85.1082 67.9555 85.1886 67.9346 85.2707 67.9305C85.3529 67.926 85.4346 67.9382 85.5123 67.9659C85.5895 67.994 85.6604 68.0367 85.7209 68.0924C85.7818 68.1482 85.8306 68.2158 85.8649 68.2907C85.9349 68.4426 85.943 68.6159 85.8875 68.7738C85.8315 68.9312 85.7168 69.0609 85.5669 69.1344C85.4838 69.1752 85.3931 69.197 85.3005 69.1979C85.1822 69.197 85.0662 69.1625 84.966 69.0985C84.8662 69.0341 84.7867 68.943 84.7362 68.835ZM92.2896 68.5538C92.2634 68.3887 92.3027 68.2195 92.3989 68.0829C92.4951 67.9464 92.6404 67.8534 92.8043 67.8235C92.8861 67.8108 92.9691 67.8139 93.0495 67.8334C93.1299 67.8529 93.2053 67.8879 93.2721 67.9369C93.3389 67.9859 93.3953 68.0475 93.4382 68.1183C93.4811 68.1891 93.5096 68.2675 93.5222 68.3496C93.5484 68.5148 93.5087 68.684 93.4111 68.82C93.3141 68.9557 93.1673 69.0477 93.003 69.0754H92.9037C92.7605 69.0718 92.6228 69.0187 92.5136 68.9257C92.4043 68.8323 92.3298 68.7044 92.3032 68.5628L92.2896 68.5538ZM94.2672 68.2226C94.2396 68.0571 94.2785 67.8879 94.3746 67.7509C94.4712 67.6139 94.6175 67.5214 94.7819 67.4923C94.9458 67.466 95.1137 67.5064 95.2483 67.6044C95.3828 67.7019 95.4731 67.8493 95.4997 68.014C95.5273 68.1791 95.4885 68.3487 95.3923 68.4857C95.2957 68.6223 95.1494 68.7153 94.985 68.7443C94.9507 68.7488 94.916 68.7488 94.8812 68.7443C94.7376 68.7416 94.5995 68.6889 94.4902 68.5955C94.3805 68.5021 94.3069 68.3737 94.2807 68.2317L94.2672 68.2226ZM96.2447 67.8915C96.2172 67.7259 96.256 67.5567 96.3522 67.4197C96.4488 67.2828 96.5951 67.1902 96.7594 67.1612C96.9233 67.1349 97.0913 67.1753 97.2258 67.2732C97.3603 67.3708 97.4506 67.5182 97.4773 67.6828C97.5048 67.848 97.466 68.0176 97.3698 68.1546C97.2732 68.2911 97.1269 68.3841 96.9626 68.4132C96.9283 68.4177 96.8935 68.4177 96.8587 68.4132C96.7152 68.4104 96.577 68.3578 96.4677 68.2644C96.358 68.1709 96.2844 68.0426 96.2582 67.9006L96.2447 67.8915ZM98.2222 67.5604C98.1961 67.3953 98.2353 67.2261 98.3315 67.0895C98.4277 66.953 98.5731 66.86 98.7369 66.8301C98.9008 66.8051 99.0679 66.8459 99.202 66.9435C99.3365 67.041 99.4273 67.1875 99.4548 67.3517C99.4824 67.5168 99.4435 67.6865 99.3474 67.8235C99.2507 67.96 99.1045 68.053 98.9401 68.082H98.8408C98.6968 68.0793 98.5582 68.0271 98.448 67.9337C98.3378 67.8402 98.2629 67.7119 98.2358 67.5694L98.2222 67.5604ZM100.2 67.2292C100.172 67.0646 100.211 66.8954 100.308 66.7593C100.404 66.6232 100.551 66.5311 100.714 66.5035C100.796 66.488 100.88 66.4889 100.961 66.5066C101.043 66.5243 101.119 66.5583 101.187 66.6069C101.255 66.655 101.313 66.7167 101.357 66.7879C101.4 66.8586 101.429 66.938 101.441 67.0206C101.469 67.1852 101.43 67.3544 101.333 67.4905C101.237 67.6266 101.091 67.7187 100.927 67.7463H100.827C100.682 67.7459 100.542 67.6951 100.43 67.6026C100.318 67.51 100.242 67.3812 100.213 67.2383L100.2 67.2292ZM84.3027 66.6713C84.2887 66.5892 84.2905 66.5053 84.309 66.4241C84.3271 66.3429 84.361 66.2662 84.4088 66.1986C84.4567 66.1306 84.5172 66.073 84.5876 66.0285C84.6576 65.9845 84.7357 65.9546 84.8174 65.941C84.9813 65.9147 85.1493 65.955 85.2838 66.053C85.4184 66.1506 85.5087 66.298 85.5353 66.4626C85.5615 66.6277 85.5227 66.7969 85.4265 66.9335C85.3303 67.07 85.1845 67.163 85.0206 67.1929H84.9168C84.7736 67.1893 84.6359 67.1362 84.5267 67.0433C84.4174 66.9498 84.3429 66.8219 84.3163 66.6804L84.3027 66.6713ZM102.146 66.5942C101.987 66.5429 101.854 66.4309 101.778 66.2821C101.701 66.1338 101.685 65.9605 101.735 65.8004C101.759 65.7214 101.799 65.6484 101.851 65.5854C101.903 65.5218 101.968 65.4692 102.04 65.4311C102.113 65.3926 102.192 65.369 102.274 65.3617C102.356 65.354 102.438 65.3631 102.516 65.3876C102.675 65.4388 102.807 65.5509 102.884 65.6997C102.961 65.848 102.976 66.0213 102.927 66.1814C102.888 66.3107 102.809 66.4241 102.702 66.5053C102.595 66.5869 102.465 66.6323 102.331 66.635C102.272 66.6341 102.214 66.6237 102.159 66.6033L102.146 66.5942ZM83.9777 64.6618C83.9637 64.5797 83.9655 64.4958 83.9835 64.4146C84.002 64.3334 84.0359 64.2567 84.0838 64.1891C84.1316 64.1211 84.1926 64.0635 84.2625 64.019C84.3325 63.975 84.4106 63.9451 84.4924 63.9315C84.5736 63.9179 84.6562 63.9206 84.7362 63.9397C84.8161 63.9587 84.8915 63.9936 84.9578 64.0422C85.0242 64.0907 85.0807 64.152 85.1231 64.2227C85.1655 64.293 85.1935 64.3715 85.2057 64.4531C85.2202 64.5353 85.2179 64.6192 85.1998 64.7004C85.1818 64.7811 85.1475 64.8582 85.0996 64.9258C85.0518 64.9939 84.9913 65.0515 84.9208 65.0959C84.8508 65.1399 84.7727 65.1698 84.691 65.1835H84.5917C84.4481 65.1807 84.31 65.1281 84.2007 65.0347C84.0914 64.9412 84.0174 64.8129 83.9912 64.6709L83.9777 64.6618ZM101.554 64.0812C101.528 63.9161 101.567 63.7469 101.664 63.6103C101.76 63.4738 101.905 63.3808 102.069 63.3509C102.151 63.3382 102.234 63.3414 102.314 63.3609C102.394 63.3804 102.47 63.4153 102.537 63.4643C102.604 63.5133 102.66 63.575 102.703 63.6457C102.746 63.7165 102.774 63.795 102.787 63.8771C102.814 64.0417 102.776 64.2109 102.679 64.347C102.583 64.4831 102.436 64.5752 102.272 64.6028C102.239 64.6069 102.206 64.6069 102.173 64.6028C102.029 64.601 101.889 64.5489 101.779 64.4554C101.668 64.362 101.594 64.2327 101.568 64.0903L101.554 64.0812ZM83.6526 62.6478C83.625 62.4831 83.6639 62.3139 83.7605 62.1779C83.8571 62.0418 84.0034 61.9497 84.1673 61.922C84.3312 61.8957 84.4991 61.9361 84.6337 62.0341C84.7682 62.1316 84.8585 62.279 84.8852 62.4437C84.9127 62.6083 84.8739 62.7775 84.7772 62.9136C84.6806 63.0497 84.5343 63.1418 84.3704 63.1694C84.3361 63.174 84.3014 63.174 84.2666 63.1694C84.123 63.1667 83.9849 63.1141 83.8756 63.0207C83.7664 62.9272 83.6923 62.7988 83.6661 62.6569L83.6526 62.6478ZM101.229 62.0717C101.202 61.9061 101.24 61.7369 101.337 61.6C101.433 61.4634 101.58 61.3704 101.744 61.3414C101.908 61.3151 102.076 61.3555 102.21 61.4534C102.345 61.551 102.435 61.6984 102.462 61.863C102.489 62.0282 102.45 62.1978 102.354 62.3348C102.258 62.4713 102.111 62.5643 101.947 62.5934C101.913 62.5979 101.878 62.5979 101.843 62.5934C101.7 62.5906 101.561 62.538 101.452 62.4446C101.343 62.3511 101.269 62.2228 101.243 62.0808L101.229 62.0717ZM83.341 60.6701C83.3271 60.588 83.3289 60.504 83.3474 60.4228C83.3654 60.3416 83.3993 60.265 83.4471 60.1974C83.495 60.1294 83.556 60.0717 83.6259 60.0273C83.6959 59.9833 83.774 59.9534 83.8557 59.9397C83.937 59.927 84.0201 59.9302 84.1 59.9497C84.1799 59.9692 84.2553 60.0046 84.3217 60.0536C84.3881 60.1026 84.444 60.1638 84.4865 60.235C84.5289 60.3058 84.5569 60.3843 84.5691 60.4659C84.5966 60.6301 84.5587 60.7984 84.463 60.9345C84.3673 61.0706 84.2224 61.1627 84.0589 61.1917H83.9551C83.8079 61.1917 83.6657 61.1391 83.5532 61.0438C83.4408 60.9481 83.3659 60.8157 83.341 60.6701ZM100.918 60.0894C100.891 59.9248 100.931 59.7565 101.027 59.6204C101.124 59.4848 101.269 59.3927 101.432 59.3637C101.596 59.3374 101.764 59.3777 101.899 59.4757C102.033 59.5732 102.124 59.7207 102.15 59.8853C102.176 60.0504 102.138 60.2196 102.041 60.3562C101.945 60.4927 101.799 60.5857 101.636 60.6156H101.532C101.381 60.6138 101.236 60.5571 101.123 60.4564C101.01 60.3553 100.937 60.2174 100.918 60.0668V60.0894ZM83.016 58.6606C83.0011 58.5789 83.0024 58.495 83.02 58.4138C83.0381 58.3326 83.0715 58.256 83.1189 58.1879C83.1663 58.1203 83.2268 58.0623 83.2968 58.0183C83.3668 57.9738 83.4449 57.9439 83.5262 57.9303C83.6074 57.9167 83.6905 57.9194 83.7709 57.9384C83.8512 57.9575 83.9266 57.992 83.9935 58.0405C84.0603 58.089 84.1167 58.1503 84.1601 58.221C84.203 58.2918 84.2314 58.3703 84.244 58.4519C84.2585 58.534 84.2562 58.6179 84.2382 58.6991C84.2201 58.7799 84.1858 58.857 84.1379 58.9246C84.0901 58.9926 84.0296 59.0502 83.9591 59.0947C83.8892 59.1387 83.8111 59.1686 83.7293 59.1822H83.63C83.4792 59.1822 83.3338 59.1269 83.2205 59.0266C83.1076 58.9264 83.0349 58.788 83.016 58.6379V58.6606ZM100.593 58.08C100.565 57.9153 100.604 57.7461 100.7 57.61C100.797 57.4739 100.943 57.3819 101.107 57.3542C101.271 57.3279 101.439 57.3682 101.574 57.4662C101.708 57.5637 101.799 57.7112 101.825 57.8758C101.853 58.0405 101.814 58.2097 101.717 58.3458C101.621 58.4819 101.474 58.5739 101.31 58.6016C101.276 58.6061 101.241 58.6061 101.207 58.6016C101.056 58.5998 100.912 58.544 100.799 58.4437C100.686 58.344 100.613 58.207 100.593 58.0573V58.08ZM82.6864 56.6466C82.6588 56.4819 82.6977 56.3127 82.7943 56.1766C82.8909 56.0405 83.0372 55.9484 83.2011 55.9208C83.2824 55.9072 83.3654 55.9099 83.4458 55.9289C83.5262 55.948 83.6016 55.9825 83.6684 56.031C83.7352 56.0795 83.7916 56.1408 83.8345 56.2115C83.8779 56.2823 83.9063 56.3608 83.919 56.4424C83.9465 56.6075 83.9081 56.7772 83.8115 56.9142C83.7149 57.0507 83.5686 57.1437 83.4043 57.1727H83.3049C83.1532 57.1718 83.0069 57.1156 82.8932 57.0149C82.7794 56.9137 82.7062 56.7749 82.6864 56.6239V56.6466ZM100.268 56.0705C100.241 55.9054 100.281 55.7362 100.377 55.5996C100.473 55.4631 100.618 55.3701 100.782 55.3402C100.864 55.3275 100.947 55.3306 101.027 55.3501C101.108 55.3696 101.183 55.4046 101.25 55.4536C101.317 55.5026 101.373 55.5642 101.416 55.635C101.459 55.7058 101.487 55.7842 101.5 55.8663C101.526 56.0296 101.487 56.197 101.392 56.3317C101.297 56.4669 101.152 56.5586 100.99 56.5876C100.956 56.5921 100.921 56.5921 100.886 56.5876C100.736 56.588 100.59 56.5336 100.476 56.4343C100.362 56.3349 100.288 56.1975 100.268 56.0478V56.0705ZM83.3817 55.0952C83.2864 54.9582 83.2485 54.789 83.2765 54.6244C83.3045 54.4597 83.3957 54.3127 83.5307 54.2152C83.5966 54.1667 83.672 54.1317 83.7515 54.1127C83.8314 54.0936 83.914 54.0909 83.9948 54.1045C84.0756 54.1177 84.1528 54.1476 84.2219 54.1916C84.291 54.2356 84.351 54.2928 84.3975 54.3604C84.4495 54.4289 84.4869 54.5069 84.5077 54.5903C84.5285 54.6734 84.5321 54.76 84.5185 54.8448C84.505 54.9296 84.4747 55.0108 84.4291 55.0834C84.3835 55.1564 84.3235 55.219 84.2531 55.2676C84.1488 55.3456 84.0219 55.3869 83.8919 55.3855C83.7876 55.381 83.686 55.3497 83.5966 55.2953C83.5077 55.2404 83.4336 55.1637 83.3817 55.0725V55.0952ZM85.1876 54.3468C85.1737 54.2651 85.1755 54.1816 85.1931 54.1004C85.2111 54.0197 85.245 53.943 85.2924 53.8755C85.3394 53.8074 85.3999 53.7498 85.4694 53.7054C85.5389 53.6609 85.6166 53.6305 85.6978 53.6164C85.8631 53.5915 86.031 53.6328 86.166 53.7312C86.3015 53.8296 86.3927 53.9775 86.4202 54.1426C86.4338 54.2247 86.4311 54.3082 86.4126 54.3894C86.3936 54.4701 86.3588 54.5463 86.311 54.6139C86.2627 54.6815 86.2017 54.7387 86.1313 54.7822C86.0608 54.8258 85.9827 54.8553 85.901 54.8684C85.868 54.8729 85.8346 54.8729 85.8017 54.8684C85.6504 54.8684 85.5042 54.8126 85.3908 54.7115C85.2775 54.6103 85.2053 54.4706 85.1876 54.3195V54.3468ZM99.9244 54.061C99.9104 53.9789 99.9122 53.895 99.9307 53.8138C99.9487 53.7326 99.9826 53.6559 100.03 53.5883C100.078 53.5203 100.139 53.4627 100.209 53.4182C100.279 53.3742 100.357 53.3443 100.439 53.3307C100.603 53.3044 100.771 53.3447 100.905 53.4427C101.04 53.5402 101.13 53.6877 101.157 53.8523C101.184 54.0174 101.146 54.1871 101.049 54.3241C100.953 54.4606 100.807 54.5536 100.642 54.5826H100.538C100.391 54.5767 100.251 54.5187 100.142 54.4193C100.033 54.3195 99.9627 54.1848 99.9424 54.0383L99.9244 54.061ZM87.1652 54.0156C87.1376 53.851 87.1765 53.6818 87.2731 53.5457C87.3697 53.4096 87.516 53.3175 87.6799 53.2899C87.8438 53.2635 88.0117 53.3039 88.1463 53.4019C88.2808 53.4994 88.3711 53.6468 88.3978 53.8115C88.4239 53.9775 88.3842 54.1467 88.2871 54.2837C88.1901 54.4202 88.0433 54.5128 87.8785 54.5418H87.7792C87.6311 54.5373 87.4889 54.4797 87.3797 54.379C87.2704 54.2778 87.2004 54.1408 87.1833 53.9929L87.1652 54.0156ZM89.1427 53.6845C89.1152 53.5198 89.154 53.3506 89.2506 53.2146C89.3473 53.0785 89.4935 52.9864 89.6574 52.9587C89.8213 52.9324 89.9893 52.9728 90.1238 53.0708C90.2584 53.1683 90.3487 53.3157 90.3753 53.4804C90.4015 53.6455 90.3627 53.8147 90.2665 53.9512C90.1699 54.0877 90.0245 54.1807 89.8606 54.2107H89.7568C89.6091 54.2043 89.4683 54.1458 89.359 54.0456C89.2502 53.9449 89.1797 53.8092 89.1608 53.6618L89.1427 53.6845ZM91.1203 53.3534C91.0927 53.1887 91.1316 53.0195 91.2282 52.8834C91.3248 52.7473 91.4711 52.6553 91.635 52.6276C91.7989 52.6013 91.9668 52.6416 92.1014 52.7396C92.2359 52.8371 92.3262 52.9846 92.3528 53.1492C92.379 53.3143 92.3402 53.4835 92.244 53.6201C92.1479 53.7566 92.002 53.8496 91.8381 53.8795H91.7343C91.5867 53.8732 91.4458 53.8147 91.3365 53.7144C91.2277 53.6137 91.1573 53.4781 91.1383 53.3307L91.1203 53.3534ZM93.0978 53.0268C93.0838 52.9447 93.0856 52.8607 93.1041 52.7795C93.1222 52.6988 93.156 52.6217 93.2039 52.5541C93.2518 52.4861 93.3127 52.4284 93.3827 52.384C93.4527 52.34 93.5308 52.3101 93.6125 52.2964C93.7764 52.2701 93.9444 52.3105 94.0789 52.4085C94.2134 52.506 94.3037 52.6534 94.3304 52.8181C94.3566 52.9832 94.3177 53.1524 94.2216 53.2889C94.1254 53.4255 93.9796 53.5185 93.8157 53.5484H93.7118C93.5646 53.5425 93.4247 53.4844 93.3154 53.3851C93.2066 53.2853 93.1362 53.1506 93.1159 53.0041L93.0978 53.0268ZM95.0753 52.6956C95.0478 52.5301 95.0866 52.3609 95.1828 52.2239C95.2794 52.0869 95.4257 51.9943 95.59 51.9653C95.6713 51.9517 95.7544 51.9544 95.8347 51.9735C95.9151 51.9925 95.9905 52.027 96.0573 52.0755C96.1242 52.1241 96.1806 52.1853 96.2239 52.2561C96.2668 52.3268 96.2953 52.4053 96.3079 52.487C96.3355 52.6521 96.2966 52.8217 96.2005 52.9587C96.1038 53.0953 95.9576 53.1882 95.7932 53.2173H95.6939C95.5462 53.2123 95.4045 53.1547 95.2948 53.0553C95.185 52.9555 95.1137 52.8204 95.0934 52.6729L95.0753 52.6956ZM97.0529 52.3645C97.0253 52.1994 97.0642 52.0297 97.1603 51.8927C97.2569 51.7557 97.4032 51.6632 97.5676 51.6342C97.6488 51.6206 97.7319 51.6233 97.8123 51.6423C97.8927 51.6614 97.968 51.6959 98.0349 51.7444C98.1017 51.7929 98.1581 51.8542 98.2015 51.9249C98.2444 51.9957 98.2728 52.0742 98.2855 52.1558C98.313 52.3209 98.2742 52.4906 98.178 52.6276C98.0814 52.7641 97.9351 52.8571 97.7708 52.8861H97.6714C97.5238 52.8811 97.382 52.8235 97.2723 52.7242C97.1626 52.6244 97.0913 52.4892 97.0709 52.3418L97.0529 52.3645ZM99.3419 52.8181C99.1952 52.7383 99.0855 52.604 99.0354 52.4439C98.9857 52.2837 99.0002 52.1105 99.0756 51.9608C99.1519 51.8125 99.2837 51.7004 99.4417 51.6491C99.6002 51.5983 99.7722 51.6124 99.9199 51.6886C100.067 51.7684 100.177 51.9027 100.226 52.0628C100.276 52.223 100.262 52.3962 100.186 52.5459C100.134 52.6484 100.054 52.7346 99.9564 52.7945C99.8585 52.8548 99.7456 52.8861 99.6309 52.8861C99.5343 52.8762 99.4417 52.8435 99.36 52.7909L99.3419 52.8181Z" fill="#F4E921"/>
<path d="M103.18 54.8008C102.985 54.7962 102.799 54.7196 102.658 54.5858C102.517 54.452 102.43 54.2701 102.414 54.0755C102.398 53.8809 102.455 53.6876 102.573 53.5325C102.691 53.3774 102.862 53.2717 103.053 53.2358L105.568 52.814C105.772 52.7804 105.982 52.8299 106.151 52.9514C106.319 53.073 106.433 53.2567 106.466 53.4626C106.5 53.6686 106.451 53.8791 106.33 54.0483C106.209 54.2174 106.025 54.3318 105.821 54.3653L103.306 54.7872L103.18 54.8008Z" fill="#231815"/>
<path d="M103.789 58.5604C103.591 58.5626 103.4 58.4891 103.255 58.3553C103.109 58.2215 103.018 58.0374 103.003 57.8391C102.986 57.6414 103.046 57.4449 103.168 57.2889C103.291 57.1333 103.468 57.0299 103.663 57L106.178 56.5781C106.28 56.5595 106.384 56.5613 106.485 56.584C106.586 56.6067 106.682 56.6493 106.766 56.7101C106.85 56.7704 106.922 56.8475 106.976 56.9364C107.03 57.0249 107.065 57.1238 107.081 57.2268C107.099 57.3284 107.097 57.4327 107.074 57.5334C107.052 57.6341 107.01 57.7294 106.951 57.8142C106.892 57.8986 106.816 57.9702 106.729 58.0251C106.642 58.08 106.546 58.1172 106.444 58.134L103.929 58.5558L103.789 58.5604Z" fill="#231815"/>
<path d="M104.394 62.3211C104.197 62.322 104.007 62.2481 103.862 62.1138C103.717 61.9795 103.628 61.7954 103.612 61.5976C103.597 61.4003 103.656 61.2043 103.779 61.0492C103.901 60.8936 104.078 60.7906 104.272 60.7607L106.783 60.3388C106.885 60.3202 106.989 60.3221 107.09 60.3447C107.191 60.3674 107.287 60.4101 107.371 60.4708C107.455 60.5312 107.527 60.6083 107.581 60.6972C107.635 60.7856 107.67 60.8845 107.686 60.9875C107.72 61.1925 107.672 61.4025 107.553 61.5727C107.434 61.7423 107.253 61.858 107.049 61.8947L104.534 62.3166L104.394 62.3211Z" fill="#231815"/>
<path d="M105.004 66.0818C104.819 66.0808 104.642 66.0142 104.502 65.8935C104.362 65.7733 104.27 65.6068 104.241 65.424C104.207 65.219 104.254 65.009 104.373 64.8389C104.493 64.6692 104.674 64.5536 104.877 64.5168L107.392 64.095C107.597 64.0618 107.807 64.1117 107.974 64.2338C108.142 64.3562 108.255 64.5404 108.288 64.7459C108.321 64.9518 108.272 65.1618 108.15 65.331C108.029 65.4998 107.845 65.6132 107.64 65.6463L105.13 66.0681C105.089 66.0772 105.046 66.0818 105.004 66.0818Z" fill="#231815"/>
<path d="M79.7697 58.7191C79.5719 58.7214 79.381 58.6479 79.2351 58.5141C79.0888 58.3803 78.999 58.1961 78.9827 57.9979C78.9669 57.8001 79.0261 57.6037 79.1484 57.4476C79.2712 57.2921 79.4478 57.1886 79.6433 57.1587L82.1581 56.7368C82.3631 56.7033 82.5726 56.7527 82.741 56.8743C82.9094 56.9958 83.0231 57.18 83.0566 57.3855C83.09 57.5914 83.0408 57.8019 82.9198 57.9711C82.7988 58.1403 82.6159 58.2546 82.4109 58.2882L79.8961 58.71C79.8546 58.7173 79.8121 58.7205 79.7697 58.7191Z" fill="#231815"/>
<path d="M80.3792 62.4841C80.1851 62.4787 80 62.4016 79.8596 62.2673C79.7191 62.133 79.6329 61.9511 79.6176 61.7565C79.6027 61.5624 79.6596 61.3691 79.7774 61.2149C79.8957 61.0602 80.0663 60.955 80.2573 60.9192L82.7721 60.4973C82.9767 60.4642 83.1862 60.5141 83.3541 60.6361C83.5225 60.7586 83.6354 60.9423 83.6684 61.1482C83.7013 61.3542 83.6512 61.5642 83.5297 61.7334C83.4083 61.9021 83.225 62.0155 83.0205 62.0486L80.5056 62.4705C80.4641 62.4796 80.4217 62.4841 80.3792 62.4841Z" fill="#231815"/>
<path d="M80.9887 66.2453C80.8045 66.2444 80.6266 66.1778 80.4867 66.0571C80.3471 65.9369 80.2546 65.7704 80.2257 65.5876C80.1914 65.3826 80.2392 65.1726 80.3584 65.0025C80.4776 64.8328 80.6587 64.7171 80.8623 64.6804L83.3771 64.2631C83.4787 64.2449 83.5825 64.2472 83.6832 64.2699C83.7839 64.2926 83.8787 64.3352 83.9627 64.3951C84.0471 64.4549 84.1185 64.5312 84.1726 64.6192C84.2273 64.7072 84.2638 64.8051 84.2801 64.9072C84.314 65.1122 84.2666 65.3223 84.1474 65.4924C84.0282 65.662 83.8471 65.7777 83.6435 65.8144L81.1287 66.2363L80.9887 66.2453Z" fill="#231815"/>
<path d="M81.5982 70.0053C81.414 70.0044 81.2361 69.9377 81.0966 69.8171C80.9567 69.6969 80.8641 69.5304 80.8352 69.3476C80.8176 69.246 80.8203 69.1421 80.8429 69.0414C80.8655 68.9407 80.9074 68.8459 80.9666 68.7615C81.0257 68.6772 81.1007 68.6055 81.1874 68.5506C81.2741 68.4953 81.3707 68.4581 81.4718 68.4404L83.9866 68.0185C84.0887 67.9999 84.193 68.0017 84.2941 68.0244C84.3952 68.0471 84.4909 68.0897 84.5749 68.1505C84.6594 68.2109 84.7307 68.288 84.7844 68.3769C84.8386 68.4653 84.8743 68.5642 84.8896 68.6672C84.9077 68.7688 84.9059 68.8731 84.8833 68.9738C84.8612 69.0745 84.8192 69.1698 84.76 69.2542C84.7009 69.339 84.6255 69.4107 84.5384 69.4655C84.4512 69.5204 84.3546 69.5576 84.253 69.5744L81.7427 69.9963L81.5982 70.0053Z" fill="#231815"/>
<path d="M86.3885 52.5055C86.2038 52.5046 86.0255 52.437 85.8855 52.3159C85.7455 52.1943 85.6534 52.0269 85.6254 51.8432L85.2101 49.2849C85.1934 49.1842 85.197 49.0812 85.22 48.9819C85.243 48.8825 85.285 48.7886 85.3442 48.7056C85.4033 48.6226 85.4783 48.5523 85.5645 48.4983C85.6507 48.4443 85.7464 48.4081 85.8467 48.3913C85.9469 48.3745 86.0494 48.3781 86.1483 48.4013C86.2472 48.4239 86.3406 48.4666 86.4232 48.526C86.5059 48.5854 86.5758 48.6607 86.6296 48.7474C86.6833 48.834 86.7194 48.9302 86.7361 49.0309L87.1515 51.5892C87.1691 51.6908 87.1664 51.7947 87.1438 51.8954C87.1212 51.9961 87.0793 52.0909 87.0201 52.1753C86.961 52.2596 86.886 52.3313 86.7993 52.3862C86.7126 52.4415 86.616 52.4787 86.5149 52.4964L86.3885 52.5055Z" fill="#231815"/>
<path d="M90.0818 51.8608C89.8976 51.8599 89.7197 51.7932 89.5798 51.6725C89.4403 51.5523 89.3477 51.3859 89.3188 51.2031L88.9034 48.6447C88.8691 48.4397 88.917 48.2297 89.0362 48.0596C89.1554 47.8899 89.3364 47.7742 89.54 47.7375C89.6416 47.7194 89.7459 47.7221 89.847 47.7448C89.9477 47.7679 90.043 47.8105 90.127 47.8709C90.2114 47.9316 90.2823 48.0083 90.3369 48.0968C90.3911 48.1852 90.4272 48.2836 90.443 48.3862L90.8584 50.949C90.8923 51.1545 90.8439 51.3655 90.7238 51.5356C90.6037 51.7057 90.4213 51.8209 90.2173 51.8563L90.0818 51.8608Z" fill="#231815"/>
<path d="M93.7659 51.244C93.5816 51.2431 93.4042 51.1764 93.2643 51.0558C93.1243 50.9356 93.0317 50.7691 93.0028 50.5863L92.5875 48.0234C92.5703 47.9218 92.5726 47.8179 92.5951 47.7172C92.6177 47.6165 92.6597 47.5217 92.7188 47.4373C92.778 47.353 92.8529 47.2813 92.9396 47.2264C93.0263 47.1711 93.1229 47.1339 93.2241 47.1162C93.3261 47.0976 93.4309 47.0994 93.532 47.1221C93.6327 47.1448 93.7284 47.1874 93.8128 47.2482C93.8968 47.3085 93.9681 47.3856 94.0223 47.4745C94.076 47.563 94.1122 47.6619 94.1271 47.7648L94.5424 50.3232C94.5767 50.5287 94.5284 50.7396 94.4083 50.9097C94.2882 51.0794 94.1058 51.195 93.9013 51.2304L93.7659 51.244Z" fill="#231815"/>
<path d="M97.4638 50.6225C97.28 50.6216 97.103 50.5545 96.964 50.4343C96.8249 50.3136 96.7333 50.1471 96.7053 49.9648L96.2899 47.4064C96.2556 47.2014 96.3034 46.9914 96.4226 46.8213C96.5418 46.6516 96.7229 46.536 96.9265 46.4992C97.0281 46.4811 97.1328 46.4838 97.2335 46.5065C97.3342 46.5296 97.4295 46.5722 97.5139 46.6326C97.5979 46.6934 97.6692 46.77 97.7234 46.8585C97.7776 46.9469 97.8137 47.0454 97.8295 47.1479L98.2403 49.7108C98.2584 49.8124 98.2562 49.9167 98.234 50.0174C98.2119 50.1181 98.1699 50.2138 98.1108 50.2982C98.0516 50.3826 97.9762 50.4542 97.8891 50.5091C97.8019 50.564 97.7053 50.6012 97.6037 50.618C97.5572 50.6252 97.5103 50.6266 97.4638 50.6225Z" fill="#231815"/>
<path d="M90.2353 76.3196C90.052 76.3187 89.8746 76.2515 89.7355 76.1313C89.5965 76.0107 89.5048 75.8442 89.4768 75.6618L89.0615 73.099C89.0276 72.8939 89.075 72.6839 89.1942 72.5138C89.3134 72.3442 89.4944 72.2285 89.6981 72.1917C89.8001 72.1736 89.9044 72.1759 90.0051 72.199C90.1062 72.2221 90.2015 72.2648 90.2854 72.3251C90.3694 72.3859 90.4408 72.4626 90.4949 72.551C90.5491 72.6395 90.5852 72.7379 90.601 72.8404L91.0164 75.4033C91.0507 75.6088 91.0024 75.8197 90.8823 75.9898C90.7618 76.1595 90.5798 76.2751 90.3753 76.3105L90.2353 76.3196Z" fill="#231815"/>
<path d="M93.9284 75.7028C93.7451 75.7009 93.5681 75.6338 93.4295 75.5132C93.2904 75.3929 93.1988 75.2269 93.1699 75.045L92.7545 72.4821C92.7378 72.3814 92.7414 72.2785 92.7644 72.1791C92.787 72.0798 92.8295 71.9859 92.8886 71.9029C92.9477 71.8199 93.0227 71.7496 93.1089 71.6956C93.1952 71.6416 93.2909 71.6053 93.3911 71.5885C93.4913 71.5718 93.5938 71.5754 93.6927 71.5985C93.7916 71.6212 93.885 71.6638 93.9677 71.7233C94.0503 71.7827 94.1203 71.858 94.174 71.9446C94.2277 72.0313 94.2638 72.1274 94.2806 72.2281L94.6914 74.7865C94.7104 74.8881 94.7086 74.9924 94.6864 75.0936C94.6643 75.1947 94.6228 75.2904 94.5632 75.3748C94.504 75.4592 94.4286 75.5313 94.341 75.5857C94.2539 75.6406 94.1564 75.6774 94.0548 75.6937C94.0133 75.7014 93.9708 75.7046 93.9284 75.7028Z" fill="#231815"/>
<path d="M97.6217 75.0816C97.438 75.0807 97.2605 75.0136 97.1215 74.8934C96.9829 74.7727 96.8908 74.6063 96.8632 74.4239L96.4479 71.8656C96.4135 71.6605 96.4614 71.4505 96.5806 71.2804C96.6998 71.1108 96.8808 70.9951 97.0845 70.9583C97.1861 70.9402 97.2903 70.9425 97.3915 70.9656C97.4922 70.9887 97.5874 71.0314 97.6714 71.0917C97.7558 71.1525 97.8267 71.2292 97.8809 71.3176C97.9355 71.4061 97.9716 71.5045 97.9874 71.607L98.3983 74.1699C98.4164 74.2715 98.4141 74.3758 98.392 74.4765C98.3694 74.5772 98.3279 74.6725 98.2683 74.7573C98.2091 74.8417 98.1337 74.9134 98.047 74.9682C97.9599 75.0231 97.8628 75.0603 97.7617 75.0771C97.7152 75.0844 97.6682 75.0857 97.6217 75.0816Z" fill="#231815"/>
<path d="M101.315 74.4641C101.131 74.4682 100.951 74.4056 100.809 74.2885C100.667 74.1711 100.571 74.0064 100.538 73.8245L100.123 71.2616C100.107 71.1609 100.11 71.0579 100.133 70.9586C100.156 70.8593 100.198 70.7654 100.257 70.6824C100.316 70.5993 100.391 70.529 100.477 70.4751C100.564 70.4211 100.659 70.3848 100.76 70.368C100.86 70.3512 100.962 70.3544 101.061 70.3775C101.16 70.4007 101.254 70.4433 101.336 70.5027C101.419 70.5622 101.489 70.6374 101.543 70.7241C101.597 70.8107 101.633 70.9069 101.649 71.0076L102.06 73.5659C102.079 73.6675 102.077 73.7719 102.055 73.873C102.033 73.9742 101.991 74.0699 101.932 74.1543C101.873 74.2386 101.797 74.3103 101.71 74.3652C101.622 74.4201 101.525 74.4568 101.423 74.4732C101.387 74.4736 101.351 74.4704 101.315 74.4641Z" fill="#231815"/>
<path d="M74.5686 51.5664L74.7808 52.9046L77.6704 52.4192L77.4582 51.0811L74.5686 51.5664Z" fill="#F4E921"/>
<path d="M81.6615 50.3779L78.772 50.8633L78.9887 52.2014L81.8782 51.7161L81.6615 50.3779Z" fill="#F4E921"/>
<path d="M78.1487 55.3628L79.4626 55.1451L78.9885 52.2012L77.6702 52.4189L78.1487 55.3628Z" fill="#F4E921"/>
<path d="M78.2978 47.9189L76.9795 48.1367L77.4581 51.0806L78.7719 50.8629L78.2978 47.9189Z" fill="#F4E921"/>
<path d="M102.52 70.2371L87.9282 72.6821C87.4157 72.7633 86.8924 72.7424 86.3881 72.6208C85.8838 72.4988 85.4084 72.2779 84.9889 71.9713C84.57 71.6646 84.2146 71.2777 83.9442 70.8332C83.6737 70.3886 83.4936 69.8946 83.4132 69.3798L81.4267 57.0734C81.2537 56.0319 81.4971 54.9646 82.1044 54.1027C82.7116 53.2413 83.6331 52.6557 84.6684 52.4738L99.2606 50.0289C99.7731 49.9468 100.296 49.9672 100.801 50.0892C101.305 50.2108 101.781 50.4312 102.201 50.7379C102.62 51.0449 102.975 51.4319 103.245 51.8769C103.515 52.3219 103.696 52.8158 103.776 53.3311L105.762 65.633C105.936 66.6749 105.693 67.7441 105.086 68.6064C104.479 69.4692 103.556 70.0552 102.52 70.2371Z" fill="#39E54A"/>
<path d="M87.2826 73.3715C86.3268 73.3715 85.3954 73.0662 84.6233 72.5006C83.6323 71.7761 82.9682 70.6866 82.7767 69.4705L80.7902 57.1641C80.5884 55.952 80.871 54.7091 81.5771 53.7058C82.2833 52.7024 83.3556 52.0197 84.5601 51.807L99.1524 49.362C99.7456 49.2622 100.353 49.2826 100.938 49.4223C101.524 49.5616 102.075 49.8174 102.561 50.174C103.052 50.5323 103.468 50.9841 103.785 51.5044C104.102 52.0242 104.313 52.6017 104.408 53.2041L106.399 65.5105C106.599 66.7225 106.315 67.9649 105.608 68.9674C104.901 69.9699 103.829 70.6512 102.624 70.863L88.0321 73.3125C87.7842 73.3524 87.5337 73.3719 87.2826 73.3715ZM99.9019 50.6094C99.7204 50.6108 99.5393 50.6262 99.3601 50.6548L84.7678 53.0997C83.9023 53.254 83.1325 53.7448 82.625 54.466C82.118 55.1868 81.9144 56.0799 82.0589 56.9509L84.0454 69.2573C84.184 70.1309 84.6613 70.9134 85.3728 71.4346C85.7218 71.6913 86.1187 71.875 86.5399 71.9748C86.9612 72.0742 87.3978 72.0882 87.8244 72.0152L102.417 69.5702C103.282 69.4183 104.053 68.9284 104.56 68.2081C105.068 67.4873 105.271 66.5941 105.126 65.7237L103.139 53.4173C103 52.5436 102.523 51.7611 101.812 51.2399C101.255 50.8376 100.587 50.623 99.9019 50.6276V50.6094Z" fill="#231815"/>
<path d="M86.9123 70.4411C86.8852 70.2742 86.9236 70.1036 87.0184 69.9644C87.1132 69.8251 87.2581 69.7276 87.4225 69.6926H87.4631C87.5466 69.6786 87.6324 69.6813 87.715 69.7008C87.7977 69.7203 87.8758 69.7566 87.9444 69.807C88.013 69.8569 88.0708 69.9208 88.1146 69.9938C88.1584 70.0669 88.1869 70.1481 88.199 70.2324C88.2266 70.4025 88.1869 70.5767 88.088 70.7173C87.9891 70.858 87.8392 70.9546 87.6708 70.9854H87.5715C87.4148 70.99 87.2617 70.9373 87.1403 70.8371C87.0193 70.7369 86.9385 70.5962 86.9123 70.4411ZM88.9711 70.0964C88.9566 70.012 88.9594 69.9258 88.9783 69.8423C88.9977 69.7589 89.033 69.6804 89.0826 69.611C89.1318 69.5411 89.1946 69.4822 89.2668 69.4373C89.3395 69.3919 89.4199 69.3615 89.5039 69.3479C89.6732 69.3216 89.8461 69.3638 89.9847 69.4649C90.1233 69.5661 90.2163 69.7181 90.2443 69.8877C90.2597 69.9734 90.2578 70.0619 90.2389 70.1472C90.2199 70.232 90.1843 70.3127 90.1337 70.3835C90.0831 70.4547 90.019 70.515 89.945 70.5604C89.8709 70.6062 89.7883 70.6366 89.7025 70.6498C89.6696 70.6543 89.6361 70.6543 89.6032 70.6498C89.4497 70.6475 89.302 70.5903 89.1865 70.4892C89.0709 70.388 88.9946 70.2488 88.9711 70.0964ZM91.0118 69.7562C90.9843 69.5856 91.0236 69.411 91.1225 69.2694C91.2213 69.1279 91.3712 69.0308 91.5401 68.9986C91.7099 68.9723 91.8832 69.015 92.0223 69.117C92.1609 69.2191 92.2539 69.3724 92.2805 69.543C92.3094 69.7131 92.2702 69.8877 92.1708 70.0288C92.0719 70.1698 91.9216 70.266 91.7523 70.2959H91.6439C91.4904 70.2946 91.3423 70.2379 91.2263 70.1363C91.1103 70.0351 91.0344 69.8954 91.0118 69.7425V69.7562ZM85.2598 69.7017C85.1871 69.5448 85.179 69.3651 85.2373 69.2018C85.2955 69.039 85.4156 68.9056 85.5714 68.8308C85.6481 68.7945 85.7312 68.7736 85.8156 68.77C85.9005 68.7664 85.9849 68.7795 86.0644 68.8095C86.1438 68.839 86.2165 68.8839 86.2784 68.9424C86.3402 69.0004 86.3899 69.0708 86.4247 69.1483C86.4978 69.3035 86.5073 69.4817 86.4504 69.6441C86.394 69.8061 86.2757 69.9394 86.1222 70.0147C86.035 70.0574 85.9393 70.0787 85.8423 70.0782C85.7194 70.0769 85.5998 70.041 85.4969 69.9743C85.3939 69.9077 85.3117 69.8133 85.2598 69.7017ZM93.0481 69.4159C93.0205 69.244 93.0616 69.068 93.1618 68.9265C93.2625 68.7845 93.4147 68.6884 93.5854 68.6584C93.7542 68.6321 93.9262 68.6743 94.0644 68.7754C94.2021 68.8766 94.2946 69.0286 94.3213 69.1982C94.3488 69.3692 94.3086 69.5448 94.2089 69.6863C94.1091 69.8278 93.9583 69.9249 93.7885 69.9557H93.6892C93.5366 69.9548 93.3885 69.9009 93.2716 69.802C93.1546 69.7035 93.0756 69.567 93.0481 69.4159ZM95.0933 69.0712C95.0644 68.9011 95.1037 68.7265 95.2026 68.5854C95.3019 68.4443 95.4523 68.3482 95.6216 68.3182C95.7051 68.3042 95.7909 68.3069 95.8735 68.3264C95.9561 68.3459 96.0342 68.3822 96.1029 68.4325C96.1711 68.4824 96.2293 68.5464 96.2731 68.6194C96.3164 68.6924 96.3453 68.7736 96.3575 68.858C96.3724 68.9424 96.3706 69.0286 96.3521 69.1125C96.3336 69.1959 96.2988 69.2749 96.2496 69.3452C96.2004 69.415 96.1381 69.4745 96.0659 69.5203C95.9936 69.5661 95.9132 69.5969 95.8293 69.611C95.795 69.6155 95.7597 69.6155 95.7254 69.611C95.5733 69.611 95.4265 69.5566 95.311 69.4577C95.1949 69.3588 95.1177 69.2218 95.0933 69.0712ZM97.1296 68.7265C97.102 68.5564 97.1427 68.3822 97.2424 68.242C97.3422 68.1018 97.493 68.007 97.6623 67.978C97.8316 67.9517 98.0046 67.9939 98.1432 68.095C98.2818 68.1962 98.3748 68.3482 98.4028 68.5178C98.429 68.6884 98.3883 68.8625 98.2886 69.0032C98.1892 69.1438 98.0389 69.2399 97.87 69.2708H97.7662C97.6131 69.2708 97.465 69.2159 97.3485 69.1161C97.2316 69.0163 97.154 68.8784 97.1296 68.7265ZM99.1839 68.3817C99.1694 68.2978 99.1721 68.2116 99.1906 68.1286C99.2096 68.0456 99.2444 67.9671 99.2936 67.8977C99.3428 67.8279 99.4051 67.7689 99.4769 67.7235C99.5487 67.6782 99.6286 67.6473 99.7121 67.6333C99.7961 67.6183 99.8823 67.6206 99.9654 67.6401C100.048 67.6591 100.127 67.695 100.196 67.7453C100.265 67.7957 100.323 67.8596 100.368 67.9331C100.411 68.0066 100.44 68.0882 100.453 68.1731C100.48 68.3427 100.44 68.516 100.341 68.6562C100.242 68.7963 100.093 68.8916 99.9243 68.9215H99.8159C99.6638 68.9215 99.5171 68.8671 99.401 68.7682C99.2854 68.6693 99.2082 68.5323 99.1839 68.3817ZM101.22 68.0415C101.194 67.8696 101.235 67.6945 101.336 67.553C101.436 67.4115 101.587 67.3148 101.757 67.284C101.927 67.2595 102.1 67.303 102.238 67.406C102.376 67.509 102.468 67.6623 102.493 67.8329C102.521 68.003 102.48 68.1771 102.38 68.3173C102.281 68.4575 102.13 68.5523 101.961 68.5813H101.861C101.707 68.5831 101.557 68.5305 101.437 68.4325C101.318 68.335 101.236 68.198 101.207 68.046L101.22 68.0415ZM84.8129 67.4745C84.7853 67.3035 84.8255 67.1279 84.9253 66.9864C85.0246 66.8449 85.1759 66.7478 85.3456 66.717C85.5149 66.692 85.6869 66.7347 85.8251 66.8354C85.9637 66.9361 86.0572 67.0876 86.0861 67.2568C86.1136 67.4278 86.0734 67.6033 85.9736 67.7449C85.8739 67.8864 85.7231 67.9835 85.5533 68.0143H85.4449C85.2932 68.0134 85.1465 67.9585 85.0309 67.8601C84.9153 67.7612 84.8381 67.6246 84.8129 67.4745ZM103.216 67.3929C103.134 67.3675 103.059 67.3262 102.993 67.2713C102.928 67.2169 102.873 67.1493 102.834 67.0735C102.795 66.9973 102.771 66.9143 102.763 66.829C102.756 66.7437 102.766 66.658 102.791 66.5764C102.816 66.4947 102.857 66.4185 102.91 66.3527C102.965 66.287 103.031 66.2321 103.106 66.1922C103.181 66.1522 103.264 66.1273 103.348 66.1196C103.433 66.1114 103.518 66.12 103.599 66.1454C103.763 66.1994 103.899 66.3155 103.978 66.4693C104.057 66.6226 104.074 66.8009 104.024 66.9665C103.981 67.0976 103.898 67.2123 103.787 67.2935C103.676 67.3752 103.543 67.4192 103.405 67.4201C103.341 67.4205 103.277 67.4101 103.216 67.3883V67.3929ZM84.4787 65.397C84.4638 65.3126 84.4657 65.226 84.4842 65.1425C84.5027 65.059 84.5374 64.9801 84.5867 64.9098C84.6359 64.8399 84.6982 64.7805 84.7704 64.7347C84.8426 64.6889 84.923 64.658 85.007 64.644C85.1768 64.6163 85.351 64.6581 85.4905 64.7592C85.6301 64.8604 85.7244 65.0132 85.752 65.1838C85.7795 65.3543 85.7389 65.529 85.6391 65.6701C85.5398 65.8111 85.3885 65.9068 85.2192 65.9368H85.1154C84.9618 65.9377 84.8133 65.8832 84.6964 65.783C84.5799 65.6832 84.5027 65.5449 84.4787 65.3924V65.397ZM102.606 64.7982C102.579 64.6277 102.619 64.453 102.719 64.3119C102.818 64.1709 102.97 64.0752 103.139 64.0452C103.223 64.0316 103.309 64.0348 103.391 64.0547C103.474 64.0743 103.552 64.1105 103.621 64.1604C103.689 64.2108 103.748 64.2743 103.792 64.3469C103.836 64.4199 103.866 64.5006 103.879 64.585C103.907 64.7556 103.866 64.9302 103.767 65.0713C103.667 65.2124 103.516 65.3081 103.347 65.338C103.31 65.343 103.274 65.343 103.238 65.338C103.086 65.3366 102.939 65.2813 102.823 65.182C102.708 65.0822 102.631 64.9447 102.606 64.7937V64.7982ZM84.1446 63.3149C84.1171 63.1453 84.1568 62.972 84.2557 62.8318C84.3546 62.6917 84.5045 62.5964 84.6729 62.5665C84.7569 62.5528 84.8426 62.556 84.9253 62.576C85.0079 62.5955 85.086 62.6318 85.1546 62.6817C85.2233 62.732 85.282 62.7955 85.3262 62.8681C85.3704 62.9411 85.4002 63.0219 85.4133 63.1063C85.4282 63.1906 85.426 63.2773 85.407 63.3607C85.3885 63.4442 85.3533 63.5231 85.3036 63.593C85.254 63.6628 85.1908 63.7218 85.1181 63.7667C85.0458 63.8116 84.965 63.8416 84.8806 63.8547C84.8463 63.8615 84.811 63.8615 84.7767 63.8547C84.6241 63.8533 84.4774 63.798 84.3618 63.6987C84.2462 63.5989 84.169 63.4614 84.1446 63.3104V63.3149ZM102.272 62.7161C102.245 62.546 102.285 62.3719 102.385 62.2317C102.485 62.0915 102.636 61.9967 102.805 61.9677C102.974 61.9427 103.146 61.9854 103.284 62.0861C103.423 62.1868 103.516 62.3383 103.545 62.5075C103.573 62.6794 103.532 62.8554 103.431 62.9969C103.331 63.1389 103.179 63.2351 103.008 63.265H102.904C102.751 63.2637 102.603 63.207 102.487 63.1053C102.37 63.0042 102.295 62.8645 102.272 62.7116V62.7161ZM83.8331 61.2374C83.8042 61.0668 83.8435 60.8913 83.9424 60.7498C84.0412 60.6078 84.1916 60.5107 84.3614 60.4799C84.4449 60.4663 84.5307 60.4694 84.6128 60.4894C84.6955 60.5093 84.7731 60.5452 84.8413 60.5955C84.9099 60.6459 84.9677 60.7089 85.0115 60.782C85.0553 60.8545 85.0846 60.9353 85.0973 61.0197C85.1122 61.104 85.1104 61.1911 85.0919 61.275C85.0734 61.359 85.0386 61.4383 84.9894 61.5086C84.9406 61.579 84.8783 61.6388 84.8061 61.6851C84.7338 61.7309 84.6535 61.7622 84.569 61.7772H84.4652C84.3135 61.7763 84.1672 61.7214 84.0516 61.623C83.9361 61.5241 83.8584 61.3875 83.8331 61.2374ZM101.961 60.6386C101.932 60.4681 101.971 60.2925 102.07 60.151C102.169 60.009 102.319 59.9119 102.489 59.8811C102.659 59.8561 102.832 59.9002 102.971 60.0027C103.11 60.1056 103.203 60.259 103.229 60.43C103.257 60.6001 103.216 60.7743 103.116 60.9144C103.017 61.0546 102.866 61.1494 102.696 61.1784H102.593C102.437 61.183 102.285 61.1308 102.165 61.0315C102.045 60.9321 101.964 60.7928 101.938 60.6386H101.961ZM83.499 59.1599C83.4832 59.0755 83.4846 58.9889 83.5026 58.9049C83.5202 58.821 83.555 58.7416 83.6033 58.6713C83.6521 58.601 83.7144 58.5407 83.7862 58.4944C83.8584 58.4486 83.9388 58.4173 84.0227 58.4023C84.1067 58.3887 84.1925 58.3919 84.2751 58.4119C84.3577 58.4314 84.4359 58.4677 84.5045 58.5176C84.5731 58.5679 84.6313 58.6314 84.676 58.704C84.7203 58.777 84.7501 58.8578 84.7632 58.9421C84.7907 59.1127 84.751 59.2873 84.6526 59.4289C84.5537 59.5704 84.4038 59.6675 84.2349 59.6997H84.1311C83.9753 59.7051 83.8227 59.6534 83.7026 59.5536C83.5821 59.4543 83.5017 59.3145 83.4764 59.1599H83.499ZM101.622 58.5611C101.607 58.4767 101.61 58.3901 101.629 58.3062C101.648 58.2227 101.683 58.1438 101.733 58.0739C101.783 58.0036 101.845 57.9442 101.918 57.8988C101.99 57.853 102.07 57.8222 102.155 57.8081C102.238 57.794 102.324 57.7968 102.407 57.8163C102.489 57.8358 102.567 57.8721 102.636 57.9224C102.705 57.9723 102.762 58.0363 102.806 58.1093C102.85 58.1823 102.878 58.2635 102.891 58.3479C102.92 58.518 102.88 58.6926 102.781 58.8337C102.682 58.9748 102.532 59.071 102.362 59.1009H102.259C102.102 59.1054 101.95 59.0533 101.829 58.9544C101.708 58.855 101.626 58.7158 101.599 58.5611H101.622ZM83.1559 57.0778C83.1414 56.9934 83.1441 56.9072 83.1631 56.8238C83.1825 56.7403 83.2177 56.6618 83.2674 56.5924C83.3166 56.5226 83.3794 56.4636 83.4516 56.4187C83.5243 56.3733 83.6047 56.343 83.6886 56.3293C83.7726 56.3157 83.8584 56.3189 83.941 56.3389C84.0236 56.3584 84.1018 56.3947 84.1704 56.4446C84.239 56.4949 84.2972 56.5584 84.3419 56.631C84.3862 56.704 84.416 56.7848 84.4291 56.8691C84.4566 57.0388 84.4164 57.2121 84.3176 57.3522C84.2187 57.4924 84.0692 57.5877 83.9008 57.6176C83.8647 57.6221 83.8286 57.6221 83.7925 57.6176C83.6363 57.623 83.4832 57.5713 83.3618 57.472C83.2408 57.3726 83.1595 57.2329 83.1333 57.0778H83.1559ZM101.288 56.4836C101.26 56.3135 101.3 56.1393 101.399 55.9987C101.498 55.858 101.647 55.7614 101.816 55.7306C101.9 55.7165 101.986 55.7192 102.069 55.7387C102.152 55.7583 102.23 55.7941 102.299 55.8444C102.368 55.8948 102.426 55.9583 102.47 56.0313C102.515 56.1044 102.544 56.1856 102.557 56.2704C102.585 56.4405 102.546 56.6151 102.447 56.7562C102.348 56.8973 102.198 56.9934 102.028 57.0234C101.992 57.0279 101.956 57.0279 101.92 57.0234C101.764 57.0288 101.612 56.9771 101.491 56.8773C101.371 56.778 101.291 56.6383 101.265 56.4836H101.288ZM83.8331 55.4811C83.7378 55.3391 83.7004 55.1654 83.7293 54.9966C83.7577 54.8279 83.8498 54.6764 83.9866 54.5739C84.0552 54.5231 84.1338 54.4863 84.2169 54.4668C84.3 54.4469 84.3862 54.4442 84.4706 54.4582C84.555 54.4727 84.6354 54.504 84.7072 54.5503C84.7794 54.5966 84.8413 54.6573 84.8896 54.7281C84.9876 54.8687 85.0269 55.0425 84.9989 55.2121C84.9713 55.3818 84.8783 55.5337 84.7406 55.6353C84.6345 55.7165 84.504 55.7596 84.3704 55.7578C84.2652 55.7587 84.1613 55.7342 84.0679 55.6857C83.9744 55.6376 83.8936 55.5673 83.8331 55.4811ZM85.7113 54.7009C85.6838 54.5308 85.7244 54.3566 85.8242 54.2164C85.924 54.0763 86.0748 53.9815 86.2441 53.9524C86.3281 53.9384 86.4138 53.9411 86.4969 53.9606C86.58 53.9801 86.6581 54.0159 86.7272 54.0663C86.7958 54.1166 86.854 54.1802 86.8983 54.2532C86.9425 54.3262 86.9719 54.4074 86.9845 54.4922C86.9985 54.5766 86.9963 54.6628 86.9769 54.7463C86.9579 54.8297 86.9227 54.9082 86.873 54.9776C86.8233 55.0474 86.761 55.1064 86.6883 55.1513C86.6161 55.1967 86.5357 55.2271 86.4518 55.2407C86.4156 55.2452 86.3795 55.2452 86.3434 55.2407C86.1949 55.2357 86.0527 55.179 85.9407 55.0806C85.8287 54.9821 85.7542 54.8483 85.7294 54.7009H85.7113ZM100.913 54.406C100.884 54.2359 100.923 54.0613 101.022 53.9202C101.122 53.7792 101.272 53.683 101.441 53.6531C101.525 53.639 101.611 53.6417 101.694 53.6612C101.777 53.6807 101.855 53.7166 101.924 53.7669C101.993 53.8173 102.051 53.8808 102.096 53.9538C102.14 54.0268 102.169 54.108 102.182 54.1929C102.211 54.363 102.171 54.5376 102.072 54.6787C101.973 54.8197 101.823 54.9159 101.654 54.9458C101.619 54.9504 101.584 54.9504 101.55 54.9458C101.4 54.9427 101.256 54.8869 101.143 54.788C101.03 54.6896 100.956 54.5544 100.931 54.406H100.913ZM87.7566 54.3607C87.7417 54.2768 87.7435 54.1906 87.7615 54.1071C87.7796 54.0237 87.8144 53.9447 87.8627 53.8749C87.9114 53.805 87.9733 53.7456 88.0451 53.6998C88.1169 53.6535 88.1968 53.6227 88.2803 53.6077C88.3643 53.5936 88.4501 53.5964 88.5331 53.6159C88.6162 53.6354 88.6943 53.6712 88.763 53.7216C88.832 53.7719 88.8903 53.8354 88.9345 53.9084C88.9788 53.9815 89.0081 54.0627 89.0208 54.1475C89.0497 54.3176 89.0104 54.4922 88.911 54.6333C88.8122 54.7744 88.6618 54.8705 88.4925 54.9005C88.4582 54.905 88.423 54.905 88.3887 54.9005C88.2401 54.8955 88.0979 54.8388 87.9859 54.7404C87.874 54.6419 87.7995 54.5081 87.7746 54.3607H87.7566ZM89.7928 54.0205C89.7653 53.8499 89.8059 53.6753 89.9052 53.5342C90.005 53.3931 90.1563 53.2974 90.3256 53.2675C90.4091 53.2539 90.4949 53.2571 90.5771 53.277C90.6597 53.297 90.7373 53.3328 90.8055 53.3832C90.8741 53.4335 90.9319 53.4966 90.9757 53.5696C91.0195 53.6422 91.0489 53.7229 91.0615 53.8073C91.0764 53.8921 91.0742 53.9787 91.0556 54.0627C91.0367 54.1466 91.0015 54.2255 90.9518 54.2958C90.9021 54.3657 90.8394 54.4251 90.7667 54.4705C90.694 54.5163 90.6132 54.5467 90.5287 54.5603H90.4249C90.2759 54.5557 90.1332 54.4995 90.0213 54.4011C89.9093 54.3026 89.8348 54.1679 89.8109 54.0205H89.7928ZM91.8336 53.6803C91.8047 53.5102 91.8439 53.3355 91.9428 53.1945C92.0421 53.0534 92.1925 52.9572 92.3618 52.9273C92.4458 52.9137 92.5316 52.9169 92.6142 52.9368C92.6968 52.9563 92.7749 52.9926 92.8435 53.0425C92.9122 53.0929 92.9709 53.1564 93.0151 53.2289C93.0594 53.302 93.0892 53.3827 93.1023 53.4671C93.1298 53.6372 93.0901 53.8114 92.9912 53.952C92.8923 54.0926 92.7424 54.1892 92.574 54.2201H92.4657C92.3167 54.2164 92.1735 54.1606 92.0611 54.0622C91.9491 53.9633 91.8746 53.8281 91.8516 53.6803H91.8336ZM93.8698 53.3355C93.8558 53.2507 93.8585 53.1641 93.8775 53.0806C93.8969 52.9971 93.933 52.9182 93.9827 52.8484C94.0328 52.779 94.096 52.72 94.1687 52.6751C94.2418 52.6302 94.3226 52.6002 94.4071 52.5871C94.4906 52.5735 94.5764 52.5766 94.6585 52.5966C94.7412 52.6166 94.8188 52.6524 94.887 52.7027C94.9556 52.7531 95.0134 52.8162 95.0572 52.8892C95.101 52.9618 95.1304 53.0425 95.143 53.1269C95.1705 53.297 95.1299 53.4712 95.0301 53.6113C94.9303 53.7515 94.7796 53.8463 94.6102 53.8753C94.5759 53.8799 94.5407 53.8799 94.5064 53.8753C94.357 53.8712 94.2138 53.815 94.101 53.7166C93.9881 53.6181 93.9127 53.4834 93.8878 53.3355H93.8698ZM95.9151 52.9953C95.9002 52.911 95.902 52.8243 95.9205 52.7409C95.939 52.6574 95.9737 52.5785 96.023 52.5081C96.0722 52.4383 96.1345 52.3789 96.2067 52.3331C96.279 52.2872 96.3593 52.2564 96.4433 52.2423C96.5268 52.2283 96.6126 52.231 96.6952 52.2505C96.7779 52.27 96.856 52.3063 96.9246 52.3566C96.9932 52.4065 97.051 52.4705 97.0948 52.5435C97.1386 52.6166 97.167 52.6978 97.1792 52.7821C97.2081 52.9522 97.1688 53.1269 97.0695 53.2679C96.9706 53.409 96.8203 53.5052 96.651 53.5351H96.5471C96.3986 53.5301 96.2564 53.4734 96.1444 53.375C96.0324 53.2766 95.9579 53.1428 95.9331 52.9953H95.9151ZM97.9513 52.6551C97.9237 52.4846 97.963 52.3099 98.0619 52.1684C98.1608 52.0269 98.3107 51.9298 98.4795 51.8976C98.6493 51.8713 98.8227 51.913 98.9622 52.0142C99.1012 52.1153 99.1956 52.2673 99.2245 52.4374C99.252 52.6084 99.2118 52.7839 99.1121 52.9255C99.0123 53.067 98.8615 53.1641 98.6917 53.1949H98.5834C98.4353 53.189 98.2931 53.1319 98.1815 53.0339C98.07 52.9355 97.9951 52.8021 97.9693 52.6551H97.9513ZM100.313 53.1087C100.161 53.0275 100.047 52.8901 99.9956 52.7254C99.9442 52.5608 99.9591 52.3825 100.037 52.2287C100.076 52.153 100.129 52.0858 100.193 52.0314C100.258 51.9765 100.333 51.9348 100.413 51.9094C100.494 51.8835 100.579 51.874 100.663 51.8813C100.747 51.8885 100.829 51.9126 100.904 51.952C101.056 52.0332 101.17 52.1707 101.221 52.3353C101.272 52.5 101.258 52.6783 101.179 52.832C101.126 52.9386 101.044 53.0275 100.942 53.0892C100.841 53.1509 100.725 53.1831 100.606 53.1813C100.51 53.1818 100.416 53.1582 100.331 53.1133L100.313 53.1087Z" fill="#F4E921"/>
<g opacity="0.2">
<path d="M88.3977 67.7871L90.294 69.1706C90.461 69.2922 90.6507 69.3788 90.8511 69.4264C91.052 69.4741 91.2597 69.4809 91.4633 69.4473L101.107 67.8325C101.521 67.7594 101.89 67.5249 102.133 67.1797C102.375 66.835 102.473 66.4077 102.403 65.9908L100.99 57.15C100.949 56.8991 100.849 56.661 100.7 56.4564C100.55 56.2514 100.354 56.0849 100.127 55.9706L98.6872 55.2539L88.3977 67.7871Z" fill="black"/>
</g>
<path d="M99.9695 65.8774L88.9712 67.7191C88.6994 67.7622 88.4217 67.695 88.1991 67.5326C87.9766 67.3702 87.8271 67.1258 87.7838 66.8527L86.3616 58.0436C86.316 57.7696 86.3796 57.4884 86.5399 57.2611C86.6997 57.0343 86.9422 56.8801 87.2149 56.8325L98.2132 54.9908C98.3478 54.9691 98.4855 54.974 98.6182 55.0058C98.751 55.0375 98.876 55.0952 98.9866 55.1759C99.0968 55.2562 99.1903 55.3578 99.2616 55.4748C99.3325 55.5919 99.3799 55.7216 99.4007 55.8572L100.823 64.6663C100.869 64.9403 100.805 65.222 100.645 65.4488C100.485 65.6756 100.242 65.8298 99.9695 65.8774Z" fill="white"/>
<path d="M91.7163 61.1915C91.7583 61.4464 91.6982 61.7077 91.5497 61.9181C91.4007 62.1291 91.1749 62.272 90.9216 62.3164C90.7966 62.3364 90.6688 62.3314 90.5455 62.3014C90.4223 62.272 90.3062 62.218 90.2038 62.1427C90.1017 62.0678 90.015 61.973 89.9491 61.8642C89.8832 61.7557 89.8394 61.6346 89.82 61.509C89.7952 61.382 89.7956 61.2513 89.8218 61.1248C89.8475 60.9978 89.899 60.8776 89.9721 60.7714C90.0453 60.6648 90.1392 60.5741 90.248 60.5047C90.3568 60.4353 90.4783 60.3886 90.6051 60.3677C90.7325 60.3464 90.8625 60.3509 90.9876 60.3809C91.1126 60.4113 91.2309 60.4661 91.3343 60.5433C91.4381 60.6199 91.5253 60.717 91.5907 60.8286C91.6567 60.9397 91.6991 61.0631 91.7163 61.1915Z" fill="#231815"/>
<path d="M97.2154 60.2713C97.2443 60.46 97.2172 60.6528 97.1369 60.8261C97.0565 60.9989 96.9269 61.1445 96.7648 61.2434C96.6023 61.3427 96.4145 61.3913 96.2249 61.3836C96.0348 61.3754 95.8519 61.311 95.6984 61.1985C95.5449 61.086 95.428 60.9304 95.3625 60.7512C95.297 60.5721 95.2857 60.3775 95.33 60.1919C95.3747 60.0064 95.4727 59.8381 95.6122 59.7084C95.7517 59.5791 95.9264 59.4938 96.1138 59.4639C96.2393 59.443 96.3671 59.448 96.4908 59.4775C96.614 59.507 96.7305 59.561 96.833 59.6358C96.9355 59.7111 97.0222 59.8059 97.0877 59.9152C97.1536 60.0241 97.1969 60.1452 97.2154 60.2713Z" fill="#231815"/>
<path d="M93.8336 62.8791L92.5604 62.2305C92.5139 62.2078 92.4728 62.1761 92.4389 62.1375C92.4051 62.0985 92.3789 62.0531 92.3626 62.0041C92.3464 61.9556 92.3396 61.9039 92.3437 61.8522C92.3473 61.8005 92.3608 61.7506 92.3843 61.7043C92.4064 61.658 92.4371 61.6168 92.4755 61.5827C92.5139 61.5487 92.5586 61.5229 92.6069 61.5061C92.6552 61.4897 92.7062 61.4829 92.7572 61.4866C92.8083 61.4902 92.8579 61.5043 92.9035 61.5274L93.6801 61.922L94.2986 61.2915C94.3343 61.2552 94.3767 61.2262 94.4237 61.2067C94.4707 61.1867 94.5208 61.1768 94.5718 61.1768C94.6224 61.1768 94.6729 61.1867 94.7194 61.2067C94.7664 61.2262 94.8093 61.2552 94.845 61.2915C94.9185 61.3655 94.9596 61.4657 94.9596 61.5705C94.9596 61.6753 94.9185 61.7755 94.845 61.8495L93.8336 62.8791Z" fill="#231815"/>
<path d="M105.523 72.3636L105.735 73.7063L108.625 73.221L108.412 71.8828L105.523 72.3636Z" fill="#F4E921"/>
<path d="M112.616 71.1758L109.726 71.6611L109.943 73.0038L112.833 72.5185L112.616 71.1758Z" fill="#F4E921"/>
<path d="M109.103 76.1656L110.417 75.9433L109.943 73.0039L108.625 73.2216L109.103 76.1656Z" fill="#F4E921"/>
<path d="M109.252 68.7168L107.934 68.9391L108.412 71.883L109.726 71.6607L109.252 68.7168Z" fill="#F4E921"/>
<path d="M112.945 59.577C117.032 59.577 120.345 56.2017 120.345 52.038C120.345 47.8743 117.032 44.499 112.945 44.499C108.858 44.499 105.545 47.8743 105.545 52.038C105.545 56.2017 108.858 59.577 112.945 59.577Z" fill="white"/>
<path d="M112.959 60.2162C112.414 60.2162 111.871 60.1599 111.338 60.0483C109.236 59.5929 107.398 58.3228 106.223 56.5134C105.048 54.7044 104.631 52.5026 105.062 50.3865C105.357 48.8057 106.117 47.35 107.243 46.2078C108.37 45.0651 109.811 44.2882 111.382 43.9771C112.952 43.666 114.579 43.8351 116.054 44.4626C117.527 45.09 118.78 46.1471 119.65 47.497C120.834 49.3128 121.258 51.5246 120.828 53.6525C120.623 54.7044 120.213 55.7046 119.622 56.5968C119.031 57.4891 118.27 58.2548 117.384 58.8508C116.077 59.7385 114.536 60.2144 112.959 60.2162ZM112.959 45.1382C111.392 45.145 109.876 45.6975 108.668 46.7018C107.462 47.7061 106.639 49.0996 106.34 50.645C105.978 52.4232 106.329 54.2735 107.316 55.7935C108.304 57.3135 109.848 58.3809 111.614 58.7646C112.484 58.9474 113.382 58.9524 114.255 58.7791C115.127 58.6063 115.956 58.2589 116.693 57.7576C117.437 57.2582 118.076 56.6154 118.572 55.8665C119.069 55.1176 119.412 54.2771 119.582 53.3939C119.945 51.6071 119.591 49.7487 118.598 48.2228C118.114 47.4698 117.485 46.8216 116.748 46.3154C116.012 45.8091 115.183 45.4553 114.309 45.2743C113.858 45.187 113.4 45.1474 112.94 45.1564L112.959 45.1382Z" fill="#231815"/>
<path d="M111.5 54.7369C111.381 54.6811 111.278 54.5953 111.202 54.4874L109.117 51.5661C108.998 51.3974 108.95 51.1892 108.981 50.9855C108.996 50.8848 109.031 50.7878 109.084 50.7007C109.136 50.6136 109.206 50.5374 109.288 50.4775C109.369 50.4181 109.461 50.375 109.559 50.3514C109.656 50.3278 109.758 50.3242 109.857 50.34C109.956 50.3559 110.051 50.3918 110.136 50.4448C110.221 50.4979 110.295 50.5678 110.354 50.6499L111.74 52.5958C111.786 52.6562 111.844 52.7061 111.911 52.741C111.984 52.775 112.063 52.7886 112.143 52.7818C112.222 52.7746 112.298 52.7464 112.363 52.7002L116.201 49.9377C116.31 49.8592 116.439 49.8116 116.573 49.7998C116.707 49.788 116.842 49.812 116.964 49.8697C117.086 49.9259 117.191 50.0157 117.266 50.1282C117.325 50.2117 117.367 50.3056 117.389 50.4054C117.411 50.5052 117.414 50.6081 117.397 50.7088C117.363 50.9111 117.251 51.0917 117.085 51.2123L112.277 54.6688C112.192 54.7296 112.096 54.7718 111.994 54.7936C111.892 54.8158 111.788 54.8162 111.686 54.7958C111.621 54.7845 111.559 54.7645 111.5 54.7369Z" fill="#E83828"/>
<path d="M109.46 70.1228C109.418 70.1274 109.375 70.1274 109.333 70.1228C109.165 70.087 109.019 69.9854 108.925 69.8412C108.831 69.6965 108.798 69.5209 108.832 69.3517L110.837 59.3088C110.853 59.2249 110.885 59.1446 110.932 59.0734C110.978 59.0017 111.039 58.9405 111.11 58.8929C111.18 58.8452 111.259 58.8121 111.343 58.7953C111.426 58.779 111.512 58.779 111.595 58.7962C111.763 58.8321 111.911 58.9337 112.004 59.0779C112.098 59.2226 112.131 59.3986 112.097 59.5674L110.092 69.6148C110.06 69.7591 109.98 69.8883 109.865 69.9809C109.75 70.0729 109.607 70.1233 109.46 70.1228Z" fill="#231815"/>
<path d="M80.7676 68.5218C81.5577 70.3815 81.4313 72.4999 79.5982 73.3028C79.1625 73.4938 78.693 73.5954 78.2176 73.6026C77.7421 73.6094 77.2703 73.521 76.8292 73.3432C76.3877 73.1649 75.9863 72.9004 75.6477 72.5648C75.3095 72.2291 75.0409 71.8295 74.8576 71.3886C74.476 70.4968 74.4589 69.4902 74.8106 68.5862C75.1619 67.6821 75.8536 66.9532 76.7358 66.5576C78.5688 65.7502 79.9775 66.6574 80.7676 68.5218Z" fill="#39E54A"/>
<path d="M78.1709 74.2785C77.3366 74.2753 76.5207 74.0258 75.8263 73.5604C75.1319 73.095 74.5892 72.4346 74.266 71.6612C73.8145 70.6074 73.7964 69.4167 74.2159 68.3498C74.4177 67.8232 74.7206 67.3414 75.108 66.9327C75.4958 66.524 75.9595 66.1961 76.4733 65.9684C78.5321 65.0612 80.3521 65.9275 81.3499 68.2727C82.4154 70.7857 81.8014 73.0537 79.8464 73.9201C79.3186 74.1546 78.7484 74.2767 78.1709 74.2785ZM78.0134 66.9346C77.6598 66.9414 77.3122 67.0235 76.993 67.175C76.6336 67.3324 76.309 67.5596 76.0376 67.844C75.7667 68.128 75.5541 68.4637 75.4128 68.8306C75.1197 69.5764 75.1324 70.4078 75.4489 71.144C75.5988 71.5065 75.8196 71.8358 76.0977 72.1116C76.3758 72.3878 76.7054 72.6056 77.0684 72.7521C77.4309 72.8986 77.8192 72.9707 78.2102 72.9653C78.6008 72.9594 78.9868 72.8755 79.3453 72.7181C80.8984 72.0331 80.763 70.1779 80.176 68.7944C79.7922 67.869 79.124 66.9209 78.0134 66.9209V66.9346Z" fill="#231815"/>
<path d="M107.983 63.9584C107.821 65.9815 108.606 67.9457 110.593 68.109C111.56 68.1879 112.519 67.8776 113.258 67.2462C113.997 66.6148 114.456 65.7148 114.535 64.7432C114.613 63.7716 114.304 62.8086 113.676 62.066C113.047 61.3234 112.152 60.8621 111.184 60.7832C109.198 60.6199 108.146 61.9354 107.983 63.9584Z" fill="#39E54A"/>
<path d="M110.891 68.7803C110.775 68.7871 110.659 68.7871 110.543 68.7803C108.408 68.6034 107.121 66.6529 107.342 63.9222C107.545 61.3729 108.999 59.9622 111.234 60.1482C111.793 60.1949 112.337 60.3527 112.835 60.6127C113.333 60.873 113.774 61.23 114.133 61.6632C114.498 62.101 114.773 62.6067 114.944 63.1515C115.114 63.6963 115.176 64.2697 115.126 64.8385C115.037 65.9081 114.553 66.9056 113.77 67.6345C112.986 68.3639 111.959 68.7726 110.891 68.7803ZM108.634 64.0129C108.512 65.5144 108.972 67.3152 110.656 67.4558C111.047 67.4853 111.439 67.4377 111.811 67.3147C112.183 67.1918 112.528 66.9968 112.824 66.74C113.121 66.4837 113.365 66.1707 113.541 65.8196C113.718 65.4685 113.823 65.0857 113.853 64.6933C113.92 63.8963 113.669 63.1057 113.157 62.4933C112.908 62.1908 112.601 61.9413 112.255 61.7598C111.908 61.5779 111.529 61.4682 111.139 61.4364C109.243 61.2822 108.733 62.7519 108.634 64.0129Z" fill="#231815"/>
<path d="M27.1122 66.5036C27.1122 66.5036 18.8815 61.2735 10.723 57.885C10.0714 57.6178 9.37202 57.4886 8.66846 57.5054C7.96485 57.5221 7.27226 57.685 6.63408 57.983C5.99589 58.281 5.42579 58.7079 4.9594 59.2377C4.493 59.767 4.14037 60.3876 3.92358 61.0603C3.69481 61.7461 3.60987 62.4724 3.67414 63.1927C3.73841 63.913 3.95051 64.6125 4.29703 65.2466C4.64354 65.8808 5.11697 66.4355 5.68757 66.8769C6.25812 67.3183 6.9135 67.6358 7.61228 67.81L26.0287 72.2417L27.1122 66.5036Z" fill="#F4E921"/>
<path d="M26.6335 73.2082L7.43598 68.5859C6.63422 68.3918 5.88176 68.0311 5.22705 67.5272C4.5723 67.0232 4.0298 66.3873 3.63441 65.6601C3.23365 64.928 2.98678 64.121 2.90911 63.2896C2.83145 62.4577 2.92465 61.6189 3.18292 60.8247C3.43965 60.0458 3.85252 59.3278 4.39609 58.7154C4.93967 58.103 5.60238 57.609 6.34337 57.2638C7.07207 56.9177 7.86517 56.7295 8.67103 56.7113C9.4769 56.6937 10.2775 56.8461 11.0208 57.1595C19.1477 60.5344 27.4507 65.7781 27.532 65.837L27.9834 66.1228L26.6335 73.2082ZM8.79045 58.2845C8.16613 58.2872 7.54989 58.4264 6.98448 58.6927C6.43818 58.9472 5.95002 59.3119 5.55068 59.7646C5.15133 60.2173 4.84938 60.748 4.66381 61.3236C4.46906 61.9092 4.39776 62.5289 4.45451 63.1435C4.51125 63.7581 4.69479 64.3542 4.9934 64.8935C5.28154 65.4333 5.68048 65.9051 6.16385 66.2779C6.64722 66.6513 7.20396 66.9166 7.79717 67.0572L25.4325 71.303L26.2632 66.8894C24.4572 65.7645 17.3688 61.4915 10.461 58.6156C9.9321 58.3929 9.36385 58.2804 8.79045 58.2845Z" fill="#231815"/>
<path d="M12.163 68.9443L10.6731 68.5315L13.1608 59.1963L14.6507 59.6091L12.163 68.9443Z" fill="#231815"/>
<path d="M43.3433 87.1469H30.3268C28.6692 87.1351 27.084 86.462 25.9199 85.2763C24.7558 84.0905 24.108 82.4893 24.1188 80.8236V79.5581C24.1176 79.4256 24.1425 79.2941 24.192 79.1712C24.2416 79.0482 24.3149 78.9362 24.4076 78.8418C24.5003 78.7475 24.6106 78.6722 24.7323 78.6209C24.854 78.5692 24.9846 78.5424 25.1166 78.542H48.5535C48.6853 78.5434 48.8153 78.5706 48.9363 78.6223C49.0578 78.674 49.1675 78.7488 49.2596 78.8432C49.3517 78.9375 49.4249 79.0496 49.4741 79.1721C49.5233 79.2945 49.5481 79.4256 49.5468 79.5581V80.8236C49.5526 81.6483 49.3969 82.4657 49.0885 83.2296C48.7801 83.9935 48.3246 84.6888 47.7485 85.2763C47.1724 85.8632 46.487 86.3309 45.7312 86.6516C44.9753 86.9728 44.1639 87.141 43.3433 87.1469Z" fill="#F4E921"/>
<path d="M43.3433 87.9322H30.3267C29.403 87.9267 28.4893 87.7389 27.6379 87.3788C26.7865 87.0186 26.014 86.4933 25.3647 85.8333C24.7152 85.1733 24.2016 84.3913 23.853 83.5317C23.5045 82.6721 23.3278 81.7522 23.3331 80.8241V79.5586C23.333 79.0836 23.5184 78.6273 23.8493 78.2885C24.1802 77.9492 24.6304 77.7537 25.103 77.7441H48.54C48.7748 77.746 49.0068 77.7945 49.2227 77.8866C49.4389 77.9791 49.6344 78.1134 49.7988 78.2821C49.9626 78.4509 50.0922 78.6505 50.1789 78.8695C50.2661 79.0886 50.3089 79.3227 50.3053 79.5586V80.8241C50.3162 82.693 49.5897 84.4902 48.2849 85.8225C46.9801 87.1542 45.2035 87.9131 43.3433 87.9322ZM25.1165 79.3136C25.0567 79.3136 24.9993 79.3377 24.9569 79.3799C24.9146 79.4225 24.8908 79.4801 24.8908 79.5404V80.806C24.8823 82.2607 25.4476 83.6592 26.4629 84.6966C27.4782 85.7335 28.8609 86.3246 30.3087 86.34H43.3253C44.7734 86.3255 46.157 85.7349 47.1724 84.698C48.1878 83.6606 48.7526 82.2612 48.7432 80.806V79.5404C48.7436 79.5109 48.7387 79.4815 48.7278 79.4538C48.717 79.4266 48.7007 79.4016 48.68 79.3803C48.6592 79.359 48.6348 79.3422 48.6077 79.3309C48.5806 79.3195 48.5513 79.3136 48.5219 79.3136H25.1165Z" fill="#231815"/>
<path d="M52.4319 63.2559C52.4319 63.2559 57.5699 71.6385 60.8928 79.9532C61.1583 80.6123 61.2875 81.319 61.273 82.0298C61.2581 82.7406 61.0996 83.4414 60.8071 84.0887C60.514 84.7365 60.0937 85.3171 59.5704 85.7961C59.0471 86.2751 58.4327 86.6425 57.764 86.8752C57.0841 87.1034 56.3639 87.1855 55.6506 87.117C54.9372 87.0481 54.246 86.8294 53.6216 86.4756C52.9976 86.1213 52.454 85.6401 52.0269 85.0617C51.5993 84.4838 51.2973 83.822 51.1406 83.1194L46.8108 64.3627L52.4319 63.2559Z" fill="#F4E921"/>
<path d="M56.1386 87.9274C55.1309 87.9284 54.1399 87.6675 53.2626 87.1699C52.5434 86.759 51.9172 86.2033 51.4219 85.5374C50.9271 84.8715 50.5744 84.1099 50.3866 83.3006L45.8491 63.7456L52.8066 62.3848L53.0865 62.8384C53.1407 62.9246 58.2968 71.3753 61.6107 79.6536C61.9155 80.413 62.0636 81.2267 62.0455 82.0451C62.0275 82.8638 61.8441 83.6699 61.506 84.4152C61.1683 85.16 60.6829 85.8286 60.0802 86.3793C59.477 86.93 58.769 87.3518 57.9988 87.619C57.3997 87.8231 56.7712 87.9274 56.1386 87.9274ZM47.7138 64.9794L51.8811 82.9378C52.0152 83.537 52.2739 84.1013 52.6391 84.5934C53.0048 85.086 53.4694 85.4952 54.0031 85.7955C54.53 86.0994 55.116 86.2867 55.7215 86.3439C56.3265 86.4006 56.9369 86.3267 57.5112 86.1266C58.0805 85.9334 58.6042 85.6236 59.0485 85.2167C59.4932 84.8098 59.849 84.3149 60.0937 83.7633C60.3438 83.2136 60.4793 82.618 60.4928 82.0138C60.5059 81.4091 60.3962 80.8081 60.1705 80.2479C57.3441 73.1897 53.1498 65.991 52.0436 64.1312L47.7138 64.9794Z" fill="#231815"/>
<path d="M50.7297 81.4178L50.0344 80.0116L58.9198 75.4619L59.6151 76.8681L50.7297 81.4178Z" fill="#231815"/>
<path d="M52.346 78.3246C51.8268 70.3456 51.2218 64.5439 51.2218 64.5439H22.4303C22.4303 64.5439 21.8207 70.3456 21.3015 78.3246C21.2552 78.9691 21.3409 79.6164 21.5534 80.2261C21.7658 80.8362 22.1006 81.3959 22.5369 81.8709C22.9731 82.3458 23.5016 82.7255 24.0898 82.9872C24.6779 83.2485 25.3133 83.3864 25.9564 83.3914H47.7137C48.3552 83.3837 48.9882 83.2444 49.5743 82.9818C50.1598 82.7191 50.6863 82.3385 51.1202 81.8641C51.5541 81.3891 51.8868 80.8303 52.0977 80.2216C52.3085 79.6128 52.3929 78.9673 52.346 78.3246Z" fill="#2FDDDD"/>
<path d="M47.7137 84.1757H25.9922C25.2457 84.1784 24.5068 84.0242 23.8233 83.7225C23.1398 83.4209 22.5267 82.9791 22.0236 82.4248C21.5148 81.8664 21.1238 81.2105 20.8739 80.4965C20.6241 79.7825 20.5206 79.025 20.5697 78.2697C21.0844 70.3724 21.694 64.5209 21.6985 64.4619L21.7708 63.7588H51.9306L52.0074 64.4619C52.0074 64.5209 52.6214 70.3588 53.1361 78.2697C53.1844 79.0254 53.0801 79.783 52.8296 80.4969C52.579 81.2114 52.1871 81.8668 51.6778 82.4248C51.1748 82.9782 50.5626 83.42 49.88 83.7216C49.1973 84.0233 48.4591 84.178 47.7137 84.1757ZM23.1613 65.3328C22.9897 67.111 22.5202 72.087 22.1094 78.374C22.0707 78.9152 22.1433 79.4591 22.3228 79.9708C22.5022 80.4829 22.7845 80.9524 23.1523 81.3497C23.5118 81.7471 23.9503 82.0642 24.4395 82.281C24.9287 82.4973 25.4577 82.608 25.9922 82.6062H47.7137C48.2474 82.6085 48.7761 82.4978 49.2646 82.2814C49.7531 82.0651 50.1906 81.7475 50.5491 81.3497C50.9175 80.9524 51.2006 80.4833 51.3807 79.9712C51.5609 79.4595 51.6345 78.9157 51.5965 78.374C51.1857 72.087 50.6936 67.111 50.54 65.3328H23.1613Z" fill="#231815"/>
<path d="M38.9819 70.913V64.5625H34.6882V83.4099H38.9819V77.0957L45.1628 83.3918H47.7137C48.6763 83.3931 49.6145 83.0901 50.3956 82.5254L38.9819 70.913Z" fill="white"/>
<path d="M47.7137 84.1757H25.9922C25.2457 84.1784 24.5068 84.0242 23.8233 83.7225C23.1398 83.4209 22.5267 82.9791 22.0236 82.4248C21.5148 81.8664 21.1238 81.2105 20.8739 80.4965C20.6241 79.7825 20.5206 79.025 20.5697 78.2697C21.0844 70.3724 21.694 64.5209 21.6985 64.4619L21.7708 63.7588H51.9306L52.0074 64.4619C52.0074 64.5209 52.6214 70.3588 53.1361 78.2697C53.1844 79.0254 53.0801 79.783 52.8296 80.4969C52.579 81.2114 52.1871 81.8668 51.6778 82.4248C51.1748 82.9782 50.5626 83.42 49.88 83.7216C49.1973 84.0233 48.4591 84.178 47.7137 84.1757ZM23.1613 65.3328C22.9897 67.111 22.5202 72.087 22.1094 78.374C22.0707 78.9152 22.1433 79.4591 22.3228 79.9708C22.5022 80.4829 22.7845 80.9524 23.1523 81.3497C23.5118 81.7471 23.9503 82.0642 24.4395 82.281C24.9287 82.4973 25.4577 82.608 25.9922 82.6062H47.7137C48.2474 82.6085 48.7761 82.4978 49.2646 82.2814C49.7531 82.0651 50.1906 81.7475 50.5491 81.3497C50.9175 80.9524 51.2006 80.4833 51.3807 79.9712C51.5609 79.4595 51.6345 78.9157 51.5965 78.374C51.1857 72.087 50.6936 67.111 50.54 65.3328H23.1613Z" fill="#231815"/>
<g opacity="0.2">
<path d="M48.9418 64.072L48.9914 64.2807H26.5162L26.5658 64.072L20.2178 62.8291L19.9966 63.1965C21.3511 67.3652 28.7736 70.5586 37.7538 70.5586C46.734 70.5586 54.1746 67.3833 55.511 63.1965L55.2898 62.8291L48.9418 64.072Z" fill="black"/>
</g>
<path d="M48.6168 2.15427C48.1535 1.87623 47.6402 1.69359 47.1061 1.61702C46.572 1.54044 46.0284 1.57146 45.5064 1.70826C44.9843 1.84506 44.4947 2.08491 44.066 2.41382C43.6372 2.74272 43.2779 3.1541 43.0091 3.62396L41.745 5.79221L40.842 3.44252C40.6534 2.93324 40.3656 2.4669 39.9953 2.07083C39.6251 1.67476 39.1799 1.35694 38.6858 1.13598C38.1917 0.915026 37.6587 0.795391 37.118 0.784087C36.5773 0.772779 36.0397 0.870033 35.5369 1.07015C34.5197 1.48218 33.7049 2.2801 33.2689 3.2912C32.8329 4.3023 32.8107 5.44524 33.2072 6.47262L36.8191 15.9621C36.8939 16.5898 37.1105 17.1921 37.4525 17.7227C37.7945 18.2534 38.2527 18.6985 38.7922 19.024C39.3098 19.3386 39.8918 19.531 40.4943 19.5864H40.6162H40.7336C41.3364 19.6301 41.9412 19.5371 42.5034 19.3143C43.0866 19.0812 43.6091 18.7173 44.0308 18.2503C44.4526 17.7833 44.7626 17.2256 44.937 16.6198L50.0299 7.85159C50.5803 6.90436 50.741 5.77846 50.4769 4.71407C50.2128 3.6497 49.5455 2.73111 48.6168 2.15427Z" fill="#2FDDDD"/>
<path d="M41.0767 20.4078C40.9593 20.4078 40.8419 20.4078 40.7245 20.4078H40.5801H40.4446C39.7373 20.339 39.054 20.1128 38.4445 19.7455C37.8179 19.3674 37.2832 18.8536 36.8794 18.2415C36.4756 17.6294 36.2129 16.9345 36.1103 16.2074L32.4984 6.79956C32.0261 5.57463 32.0537 4.21204 32.5751 3.00741C32.8304 2.41084 33.2015 1.87135 33.6666 1.42042C34.1317 0.969485 34.6815 0.616142 35.2841 0.381017C35.8785 0.142772 36.5144 0.0268361 37.1542 0.0400821C37.794 0.0533282 38.4247 0.195485 39.0089 0.458128C39.5958 0.718821 40.1258 1.09346 40.5682 1.56053C41.0106 2.02759 41.3568 2.57788 41.5869 3.17978L41.912 4.02803L42.3635 3.24329C42.684 2.68534 43.1117 2.197 43.6218 1.80671C44.132 1.4164 44.7143 1.13193 45.3348 0.96983C45.9556 0.807737 46.6017 0.771263 47.2365 0.862524C47.8713 0.953786 48.4817 1.17097 49.0321 1.50143C50.1513 2.18075 50.959 3.27628 51.2796 4.55016C51.5997 5.82407 51.4069 7.17351 50.7432 8.30554L45.7 16.9967C45.4842 17.6973 45.1148 18.3403 44.6185 18.8781C44.1223 19.4159 43.5121 19.8349 42.833 20.1039C42.2719 20.3155 41.676 20.4186 41.0767 20.4078ZM37.0494 1.57401C36.6347 1.57371 36.2238 1.6538 35.8394 1.80989C35.4301 1.97115 35.0569 2.21263 34.7414 2.52024C34.4259 2.82785 34.1745 3.19545 34.0018 3.60163C33.6459 4.42436 33.6265 5.35472 33.9476 6.19172L37.6273 15.8672C37.6888 16.3767 37.8651 16.8654 38.1428 17.2962C38.4205 17.7269 38.7924 18.0884 39.2301 18.353C39.6502 18.6079 40.1228 18.763 40.6117 18.8066H40.7832C41.2881 18.8519 41.7966 18.7789 42.2686 18.5934C42.7426 18.4045 43.167 18.1087 43.5091 17.7288C43.8512 17.3489 44.1019 16.8951 44.2417 16.4024L44.3184 16.2301L49.4113 7.46183C49.8605 6.6887 49.9897 5.76928 49.7711 4.90139C49.5522 4.03355 49.0032 3.28663 48.2419 2.82143C47.8658 2.59674 47.4491 2.4493 47.0157 2.38769C46.5827 2.32606 46.1416 2.35148 45.7181 2.46245C45.2951 2.57343 44.8976 2.76777 44.5496 3.03418C44.2016 3.30059 43.9097 3.63378 43.6909 4.01442L41.6185 7.59791L40.1421 3.74226C39.9874 3.32857 39.7519 2.95015 39.4495 2.62921C39.1471 2.30826 38.7839 2.0513 38.3813 1.87339C37.9639 1.6787 37.5096 1.57659 37.0494 1.57401Z" fill="#231815"/>
<path d="M47.8041 67.1657L26.0511 65.3513C10.9668 64.0993 -0.365711 50.5092 0.862348 35.1455C2.09041 19.7818 15.4366 8.23747 30.5209 9.48943L52.2694 11.3039C67.3537 12.5558 78.6907 26.1459 77.4581 41.5096C76.2301 56.8733 62.884 68.4177 47.8041 67.1657Z" fill="#2FDDDD"/>
<path d="M50.0615 68.046C49.2894 68.046 48.5174 68.0143 47.7408 67.9508L25.9879 66.1363C10.443 64.8481 -1.17391 50.9178 0.0947824 35.0823C1.36348 19.2469 15.0437 7.41222 30.5841 8.705L52.3325 10.5194C67.8774 11.8122 79.4943 25.7425 78.2301 41.5735C77.6436 49.1655 74.0827 56.2132 68.3289 61.1693C63.2627 65.5975 56.7761 68.0392 50.0615 68.046ZM28.2679 10.1928C14.4974 10.1928 2.76763 20.9978 1.62987 35.2184C1.04982 42.4052 3.32198 49.5306 7.95078 55.0411C10.1971 57.7664 12.9632 60.0131 16.0863 61.6493C19.2094 63.285 22.6266 64.277 26.1369 64.5669L47.8898 66.3813C51.3957 66.6748 54.9241 66.2579 58.2665 65.1561C61.6093 64.0543 64.6975 62.2902 67.3491 59.9673C72.791 55.2851 76.1591 48.623 76.7131 41.4464C77.9096 26.4774 66.9293 13.3227 52.2332 12.0889L30.4802 10.2745C29.7217 10.2201 28.9903 10.1928 28.2679 10.1928Z" fill="#231815"/>
<path d="M51.6055 59.1372L23.5723 56.8102C16.2085 56.1979 10.6687 49.5525 11.2692 42.0544L11.9644 33.395C12.2381 29.8061 13.9159 26.4724 16.6304 24.1234C19.3449 21.7745 22.8751 20.6017 26.4484 20.8618L54.4815 23.1888C61.8499 23.8012 67.3852 30.4465 66.7847 37.9447L66.0939 46.6086C65.819 50.1975 64.1403 53.5306 61.425 55.879C58.7093 58.2268 55.1786 59.3985 51.6055 59.1372Z" fill="#231815"/>
<path d="M52.7116 59.9669C52.3233 59.9669 51.9351 59.9669 51.5423 59.917L23.5138 57.5945C19.7328 57.2489 16.2417 55.4136 13.8035 52.4896C11.3653 49.5657 10.1783 45.7912 10.5017 41.9904L11.1925 33.331C11.4852 29.5173 13.2712 25.9758 16.1589 23.4832C17.5681 22.2512 19.2085 21.3151 20.9834 20.7301C22.7584 20.145 24.6319 19.9228 26.4936 20.0766L54.5266 22.4036C56.3926 22.559 58.209 23.0872 59.8687 23.9572C61.5288 24.8274 62.9989 26.0218 64.1931 27.4704C66.6587 30.3908 67.8759 34.1717 67.5793 37.9896L66.884 46.649C66.5928 50.4615 64.8062 54.0024 61.9176 56.4923C59.3684 58.7313 56.0978 59.9655 52.7116 59.9669ZM51.6687 58.3521C55.0359 58.6061 58.3652 57.5061 60.9252 55.2947C63.4856 53.0829 65.0667 49.9408 65.3218 46.5582L66.0171 37.8989C66.2952 34.4959 65.2225 31.1205 63.0327 28.5092C61.9713 27.2136 60.662 26.1447 59.1824 25.3657C57.7029 24.5866 56.0829 24.1131 54.4183 23.9731L26.3853 21.6597C24.7243 21.5208 23.0525 21.7183 21.4689 22.2403C19.8853 22.7624 18.422 23.5984 17.1658 24.6989C14.5896 26.9177 12.9951 30.0728 12.7321 33.4716L12.0459 42.1174C11.7661 45.5199 12.8373 48.8952 15.0257 51.5071C16.088 52.8022 17.3974 53.8704 18.8768 54.6497C20.3562 55.4285 21.9758 55.9026 23.6402 56.0432L51.6687 58.3521Z" fill="#F7F8F8"/>
<path d="M30.0512 42.0542L27.6628 41.8591L28.2453 34.5605L30.6337 34.7556L30.0512 42.0542Z" fill="#F4E921"/>
<path d="M25.4688 39.2279L25.6629 36.792L32.8281 37.3862L32.6339 39.8221L25.4688 39.2279Z" fill="#F4E921"/>
<path d="M49.9531 43.7055L47.5647 43.5105L48.1471 36.2119L50.5355 36.407L49.9531 43.7055Z" fill="#F4E921"/>
<path d="M45.3706 40.8792L45.5647 38.4434L52.7299 39.0376L52.5358 41.4735L45.3706 40.8792Z" fill="#F4E921"/>
<path d="M35.9343 42.39L33.5459 42.1904L33.3518 44.6263L35.7402 44.8214L35.9343 42.39Z" fill="#F4E921"/>
<path d="M41.7046 42.8662L44.093 43.0658L43.8989 45.5017L41.5105 45.3021L41.7046 42.8662Z" fill="#F4E921"/>
<path d="M41.5104 45.3021L35.7403 44.8213L35.5461 47.2571L41.3162 47.7334L41.5104 45.3021Z" fill="#F4E921"/>
<path opacity="0.1" d="M27.3649 23.4379C24.1836 23.2029 21.0393 24.2453 18.6219 26.3363C16.2046 28.4274 14.7115 31.3964 14.4702 34.5921L13.8517 42.3035C13.7952 42.9796 13.7952 43.6594 13.8517 44.3356L34.8055 24.0548L27.3649 23.4379Z" fill="white"/>
</g>
</svg>
