<svg width="56" height="64" version="1.1" xmlns="http://www.w3.org/2000/svg" desc="Created with imagetracer.js version 1.2.6" ><path fill="rgb(0,0,0)" stroke="rgb(0,0,0)" stroke-width="1" opacity="0" d="M 0 0 L 56 0 L 56 64 L 0 64 L 0 0 Z M 26 2 L 19 5 L 12 14 L 12 26 L 6 27 L 1 33 L 1 56 L 2 58 L 8 62 L 49 62 L 51 61 L 55 56 L 55 33 L 54 31 Q 52 25 44 26 L 44 14 L 42 10 Q 38 2 26 2 Z " /><path fill="rgb(0,0,0)" stroke="rgb(0,0,0)" stroke-width="1" opacity="0" d="M 28.5 8 L 32.5 9 L 37 13.5 L 38 15.5 L 38 26 L 18 26 L 18 15.5 L 22.5 10 L 28.5 8 Z " /><path fill="rgb(0,0,0)" stroke="rgb(0,0,0)" stroke-width="1" opacity="0" d="M 9.5 32 L 46.5 32 L 49 33 L 49 54.5 L 47.5 55 L 46.5 56 L 8.5 56 L 7 54.5 L 7 33 L 9.5 32 Z " /><path fill="rgb(30,30,30)" stroke="rgb(30,30,30)" stroke-width="1" opacity="0.3803921568627451" d="M 23.5 3 L 32.5 3 L 42 10.5 Q 45.7 16.4 44 27 Q 50.5 25.8 53 29.5 L 55 34.5 L 55 54.5 L 51.5 60 L 49.5 61 L 6.5 61 L 3 58.5 L 1 53.5 L 1 34.5 L 4.5 28 L 12 27 Q 9.7 10.4 19.5 5 L 23.5 3 Z M 26 8 L 22 10 L 17 18 L 17 27 L 39 27 Q 41 17 37 13 L 31 8 L 26 8 Z M 9 32 L 7 34 L 7 55 L 9 56 L 48 56 L 49 55 L 49 37 L 50 36 L 49 34 L 48 32 L 9 32 Z " /><path fill="rgb(15,15,15)" stroke="rgb(15,15,15)" stroke-width="1" opacity="0.11372549019607843" d="M 25.5 2 L 31 2.5 L 25.5 3 L 25.5 2 Z " /><path fill="rgb(15,15,15)" stroke="rgb(15,15,15)" stroke-width="1" opacity="0.11372549019607843" d="M 18.5 5 L 14.5 10 L 18.5 5 Z " /><path fill="rgb(15,15,15)" stroke="rgb(15,15,15)" stroke-width="1" opacity="0.11372549019607843" d="M 37.5 5 L 41.5 10 L 37.5 5 Z " /><path fill="rgb(15,15,15)" stroke="rgb(15,15,15)" stroke-width="1" opacity="0.11372549019607843" d="M 25.5 8 L 28 8.5 L 25.5 9 L 25.5 8 Z " /><path fill="rgb(15,15,15)" stroke="rgb(15,15,15)" stroke-width="1" opacity="0.11372549019607843" d="M 21.5 10 L 19.5 13 L 21.5 10 Z " /><path fill="rgb(15,15,15)" stroke="rgb(15,15,15)" stroke-width="1" opacity="0.11372549019607843" d="M 34.5 10 L 36.5 13 L 34.5 10 Z " /><path fill="rgb(15,15,15)" stroke="rgb(15,15,15)" stroke-width="1" opacity="0.11372549019607843" d="M 38.5 16 L 39 27 L 17 27 L 17 17.5 L 18 17.5 L 18 26 L 38 26 L 38.5 16 Z " /><path fill="rgb(15,15,15)" stroke="rgb(15,15,15)" stroke-width="1" opacity="0.11372549019607843" d="M 7.5 26 L 12 26.5 L 7.5 27 L 7.5 26 Z " /><path fill="rgb(15,15,15)" stroke="rgb(15,15,15)" stroke-width="1" opacity="0.11372549019607843" d="M 44.5 26 L 49 26.5 L 44.5 27 L 44.5 26 Z " /><path fill="rgb(15,15,15)" stroke="rgb(15,15,15)" stroke-width="1" opacity="0.11372549019607843" d="M 7.5 61 L 49 61.5 L 7.5 62 L 7.5 61 Z " /></svg>