<svg width="91" height="92" viewBox="0 0 91 92" fill="none" xmlns="http://www.w3.org/2000/svg">
<path d="M34.1387 3.95749C35.0437 -0.274141 40.5321 -1.43607 43.0743 2.06577L56.9144 21.1302C57.9629 22.5745 59.7018 23.3504 61.477 23.166L84.9094 20.7328C89.2136 20.2858 92.0147 25.1466 89.4698 28.6465L75.6153 47.7004C74.5657 49.1439 74.3651 51.0374 75.089 52.6688L84.6442 74.2024C86.3993 78.1578 82.642 82.3239 78.527 80.9851L56.1244 73.6966C54.4272 73.1445 52.5644 73.5389 51.2365 74.7315L33.7096 90.4732C30.4901 93.3647 25.3669 91.0787 25.3686 86.7514L25.3775 63.193C25.3782 61.4082 24.4274 59.7584 22.8829 58.8641L2.49545 47.0595C-1.24941 44.8911 -0.658449 39.3122 3.45759 37.9766L25.8657 30.7051C27.5633 30.1543 28.8386 28.7402 29.2118 26.9949L34.1387 3.95749Z" fill="currentColor"/>
</svg>
