<svg width="15" height="15" viewBox="0 0 15 15" fill="none" xmlns="http://www.w3.org/2000/svg">
<path d="M6.63074 0.828125C6.79121 0.391383 7.40972 0.391381 7.57019 0.828125L8.88953 4.4209C9.04135 4.8339 9.36715 5.1597 9.78015 5.31152L13.3729 6.63086C13.8097 6.79133 13.8097 7.40984 13.3729 7.57031L9.78015 8.88965C9.36715 9.04147 9.04135 9.36727 8.88953 9.78027L7.57019 13.373C7.40972 13.8098 6.79121 13.8098 6.63074 13.373L5.3114 9.78027C5.15958 9.36727 4.83378 9.04147 4.42078 8.88965L0.828003 7.57031C0.391261 7.40984 0.391259 6.79133 0.828003 6.63086L4.42078 5.31152C4.83378 5.1597 5.15958 4.8339 5.3114 4.4209L6.63074 0.828125Z" stroke="#8D8D8D"/>
</svg>
