<svg width="60" height="58" viewBox="0 0 60 58" fill="none" xmlns="http://www.w3.org/2000/svg">
<path d="M27.1531 1.67263C28.2535 -0.557104 31.433 -0.5571 32.5335 1.67264L39.4315 15.6496C39.8685 16.535 40.7132 17.1487 41.6903 17.2907L57.1148 19.532C59.5754 19.8895 60.5579 22.9135 58.7774 24.6491L47.6162 35.5286C46.9091 36.2178 46.5865 37.2108 46.7534 38.184L49.3882 53.5461C49.8085 55.9968 47.2362 57.8657 45.0353 56.7086L31.2393 49.4556C30.3653 48.9961 29.3212 48.9961 28.4472 49.4556L14.6512 56.7086C12.4503 57.8657 9.87802 55.9968 10.2983 53.5461L12.9332 38.184C13.1001 37.2108 12.7774 36.2178 12.0704 35.5286L0.909127 24.6491C-0.871424 22.9135 0.111108 19.8895 2.57177 19.532L17.9962 17.2907C18.9734 17.1487 19.818 16.535 20.255 15.6496L27.1531 1.67263Z" fill="white"/>
</svg>
