<svg width="149" height="224" viewBox="0 0 149 224" fill="none" xmlns="http://www.w3.org/2000/svg">
<rect x="0.5" y="0.5" width="148" height="223" rx="9.5" fill="white" stroke="#8B8B8B"/>
<path d="M96.78 170.984H96.476V170.736H96.468C96.4547 170.757 96.428 170.785 96.388 170.82C96.348 170.852 96.296 170.884 96.232 170.916C96.168 170.948 96.0933 170.975 96.008 170.996C95.9253 171.017 95.8347 171.028 95.736 171.028C95.6667 171.028 95.5987 171.017 95.532 170.996C95.468 170.972 95.4093 170.937 95.356 170.892C95.3027 170.847 95.26 170.792 95.228 170.728C95.196 170.664 95.18 170.592 95.18 170.512C95.18 170.368 95.2253 170.243 95.316 170.136C95.4067 170.027 95.516 169.952 95.644 169.912C95.724 169.888 95.8067 169.871 95.892 169.86C95.9773 169.849 96.0587 169.844 96.136 169.844C96.2107 169.841 96.2773 169.841 96.336 169.844C96.3973 169.844 96.444 169.844 96.476 169.844V169.648C96.476 169.616 96.4707 169.575 96.46 169.524C96.4493 169.473 96.428 169.425 96.396 169.38C96.364 169.335 96.3173 169.296 96.256 169.264C96.1973 169.229 96.1187 169.212 96.02 169.212C95.892 169.212 95.788 169.241 95.708 169.3C95.628 169.359 95.588 169.436 95.588 169.532H95.236C95.236 169.465 95.252 169.4 95.284 169.336C95.3187 169.269 95.3693 169.209 95.436 169.156C95.5027 169.103 95.584 169.06 95.68 169.028C95.7787 168.993 95.892 168.976 96.02 168.976C96.276 168.976 96.4667 169.04 96.592 169.168C96.7173 169.293 96.78 169.448 96.78 169.632V170.984ZM96.476 170.252V170.048C96.4067 170.045 96.3227 170.045 96.224 170.048C96.128 170.048 96.032 170.059 95.936 170.08C95.8907 170.093 95.8427 170.111 95.792 170.132C95.744 170.151 95.6987 170.176 95.656 170.208C95.6133 170.24 95.5787 170.279 95.552 170.324C95.5253 170.367 95.512 170.416 95.512 170.472C95.512 170.6 95.5533 170.687 95.636 170.732C95.7187 170.775 95.808 170.796 95.904 170.796C95.944 170.796 95.9893 170.788 96.04 170.772C96.0933 170.756 96.1467 170.733 96.2 170.704C96.2507 170.675 96.2973 170.64 96.34 170.6C96.3827 170.56 96.4147 170.515 96.436 170.464C96.452 170.432 96.4627 170.399 96.468 170.364C96.4733 170.329 96.476 170.292 96.476 170.252ZM98.9431 170.992H98.6511V170.66H98.6431C98.6351 170.687 98.6177 170.721 98.5911 170.764C98.5671 170.807 98.5311 170.848 98.4831 170.888C98.4324 170.928 98.3671 170.963 98.2871 170.992C98.2071 171.021 98.1111 171.036 97.9991 171.036C97.8844 171.036 97.7791 171.012 97.6831 170.964C97.5871 170.916 97.5044 170.849 97.4351 170.764C97.3657 170.676 97.3111 170.572 97.2711 170.452C97.2337 170.332 97.2151 170.2 97.2151 170.056C97.2151 169.987 97.2177 169.917 97.2231 169.848C97.2311 169.776 97.2431 169.712 97.2591 169.656C97.3177 169.416 97.4204 169.244 97.5671 169.14C97.7164 169.036 97.8804 168.984 98.0591 168.984C98.1471 168.987 98.2231 169 98.2871 169.024C98.3537 169.048 98.4097 169.079 98.4551 169.116C98.5004 169.151 98.5377 169.191 98.5671 169.236C98.5991 169.279 98.6244 169.319 98.6431 169.356H98.6511V168.148H98.9431V170.992ZM98.6191 169.892C98.6191 169.839 98.6084 169.773 98.5871 169.696C98.5684 169.619 98.5391 169.545 98.4991 169.476C98.4564 169.407 98.4004 169.347 98.3311 169.296C98.2617 169.245 98.1777 169.22 98.0791 169.22C97.9751 169.22 97.8711 169.264 97.7671 169.352C97.6631 169.44 97.5991 169.572 97.5751 169.748C97.5671 169.799 97.5604 169.852 97.5551 169.908C97.5524 169.961 97.5511 170.015 97.5511 170.068C97.5511 170.153 97.5604 170.24 97.5791 170.328C97.6004 170.416 97.6324 170.496 97.6751 170.568C97.7177 170.64 97.7724 170.699 97.8391 170.744C97.9057 170.789 97.9871 170.812 98.0831 170.812C98.2164 170.812 98.3257 170.761 98.4111 170.66C98.4991 170.556 98.5577 170.429 98.5871 170.28C98.5977 170.229 98.6057 170.168 98.6111 170.096C98.6164 170.024 98.6191 169.956 98.6191 169.892ZM101.142 170.992H100.85V170.66H100.842C100.834 170.687 100.817 170.721 100.79 170.764C100.766 170.807 100.73 170.848 100.682 170.888C100.632 170.928 100.566 170.963 100.486 170.992C100.406 171.021 100.31 171.036 100.198 171.036C100.084 171.036 99.9783 171.012 99.8823 170.964C99.7863 170.916 99.7036 170.849 99.6343 170.764C99.5649 170.676 99.5103 170.572 99.4703 170.452C99.4329 170.332 99.4143 170.2 99.4143 170.056C99.4143 169.987 99.4169 169.917 99.4223 169.848C99.4303 169.776 99.4423 169.712 99.4583 169.656C99.5169 169.416 99.6196 169.244 99.7663 169.14C99.9156 169.036 100.08 168.984 100.258 168.984C100.346 168.987 100.422 169 100.486 169.024C100.553 169.048 100.609 169.079 100.654 169.116C100.7 169.151 100.737 169.191 100.766 169.236C100.798 169.279 100.824 169.319 100.842 169.356H100.85V168.148H101.142V170.992ZM100.818 169.892C100.818 169.839 100.808 169.773 100.786 169.696C100.768 169.619 100.738 169.545 100.698 169.476C100.656 169.407 100.6 169.347 100.53 169.296C100.461 169.245 100.377 169.22 100.278 169.22C100.174 169.22 100.07 169.264 99.9663 169.352C99.8623 169.44 99.7983 169.572 99.7743 169.748C99.7663 169.799 99.7596 169.852 99.7543 169.908C99.7516 169.961 99.7503 170.015 99.7503 170.068C99.7503 170.153 99.7596 170.24 99.7783 170.328C99.7996 170.416 99.8316 170.496 99.8743 170.568C99.9169 170.64 99.9716 170.699 100.038 170.744C100.105 170.789 100.186 170.812 100.282 170.812C100.416 170.812 100.525 170.761 100.61 170.66C100.698 170.556 100.757 170.429 100.786 170.28C100.797 170.229 100.805 170.168 100.81 170.096C100.816 170.024 100.818 169.956 100.818 169.892ZM104.686 170.04H103.262C103.27 170.157 103.303 170.279 103.362 170.404C103.42 170.527 103.526 170.629 103.678 170.712C103.71 170.733 103.76 170.752 103.83 170.768C103.902 170.784 103.983 170.793 104.074 170.796C104.162 170.796 104.254 170.787 104.35 170.768C104.448 170.749 104.542 170.713 104.63 170.66V170.896C104.512 170.957 104.387 170.997 104.254 171.016C104.123 171.037 103.994 171.041 103.866 171.028C103.738 171.015 103.619 170.987 103.51 170.944C103.4 170.899 103.311 170.84 103.242 170.768C103.151 170.68 103.076 170.569 103.018 170.436C102.959 170.3 102.93 170.143 102.93 169.964C102.93 169.676 103.014 169.441 103.182 169.26C103.352 169.076 103.592 168.984 103.902 168.984C104.032 168.984 104.147 169.009 104.246 169.06C104.344 169.111 104.426 169.176 104.49 169.256C104.554 169.336 104.602 169.427 104.634 169.528C104.668 169.627 104.686 169.727 104.686 169.828V170.04ZM104.362 169.804C104.362 169.745 104.354 169.683 104.338 169.616C104.324 169.547 104.299 169.483 104.262 169.424C104.227 169.365 104.179 169.317 104.118 169.28C104.056 169.24 103.98 169.22 103.89 169.22C103.719 169.22 103.575 169.272 103.458 169.376C103.343 169.477 103.276 169.62 103.258 169.804H104.362ZM106.743 170.988H106.403L105.827 170.196L105.239 170.988H104.899L105.651 169.96L104.983 169.028H105.319L105.827 169.716L106.335 169.028H106.671L105.995 169.96L106.743 170.988ZM108.561 170.984H108.257V170.736H108.249C108.236 170.757 108.209 170.785 108.169 170.82C108.129 170.852 108.077 170.884 108.013 170.916C107.949 170.948 107.875 170.975 107.789 170.996C107.707 171.017 107.616 171.028 107.517 171.028C107.448 171.028 107.38 171.017 107.313 170.996C107.249 170.972 107.191 170.937 107.137 170.892C107.084 170.847 107.041 170.792 107.009 170.728C106.977 170.664 106.961 170.592 106.961 170.512C106.961 170.368 107.007 170.243 107.097 170.136C107.188 170.027 107.297 169.952 107.425 169.912C107.505 169.888 107.588 169.871 107.673 169.86C107.759 169.849 107.84 169.844 107.917 169.844C107.992 169.841 108.059 169.841 108.117 169.844C108.179 169.844 108.225 169.844 108.257 169.844V169.648C108.257 169.616 108.252 169.575 108.241 169.524C108.231 169.473 108.209 169.425 108.177 169.38C108.145 169.335 108.099 169.296 108.037 169.264C107.979 169.229 107.9 169.212 107.801 169.212C107.673 169.212 107.569 169.241 107.489 169.3C107.409 169.359 107.369 169.436 107.369 169.532H107.017C107.017 169.465 107.033 169.4 107.065 169.336C107.1 169.269 107.151 169.209 107.217 169.156C107.284 169.103 107.365 169.06 107.461 169.028C107.56 168.993 107.673 168.976 107.801 168.976C108.057 168.976 108.248 169.04 108.373 169.168C108.499 169.293 108.561 169.448 108.561 169.632V170.984ZM108.257 170.252V170.048C108.188 170.045 108.104 170.045 108.005 170.048C107.909 170.048 107.813 170.059 107.717 170.08C107.672 170.093 107.624 170.111 107.573 170.132C107.525 170.151 107.48 170.176 107.437 170.208C107.395 170.24 107.36 170.279 107.333 170.324C107.307 170.367 107.293 170.416 107.293 170.472C107.293 170.6 107.335 170.687 107.417 170.732C107.5 170.775 107.589 170.796 107.685 170.796C107.725 170.796 107.771 170.788 107.821 170.772C107.875 170.756 107.928 170.733 107.981 170.704C108.032 170.675 108.079 170.64 108.121 170.6C108.164 170.56 108.196 170.515 108.217 170.464C108.233 170.432 108.244 170.399 108.249 170.364C108.255 170.329 108.257 170.292 108.257 170.252ZM111.756 170.992H111.476V169.904C111.476 169.835 111.474 169.763 111.468 169.688C111.463 169.611 111.45 169.541 111.428 169.48C111.404 169.419 111.367 169.368 111.316 169.328C111.266 169.285 111.195 169.264 111.104 169.264C110.99 169.264 110.887 169.325 110.796 169.448C110.706 169.568 110.64 169.716 110.6 169.892C110.592 169.948 110.586 170 110.58 170.048C110.575 170.093 110.572 170.139 110.572 170.184V170.992H110.292V169.904C110.292 169.835 110.288 169.763 110.28 169.688C110.275 169.611 110.26 169.541 110.236 169.48C110.212 169.419 110.175 169.368 110.124 169.328C110.076 169.285 110.008 169.264 109.92 169.264C109.84 169.264 109.764 169.295 109.692 169.356C109.62 169.417 109.56 169.497 109.512 169.596C109.472 169.687 109.442 169.78 109.42 169.876C109.399 169.969 109.388 170.072 109.388 170.184V170.992H109.108V169.032H109.388V169.484H109.396C109.407 169.444 109.426 169.396 109.452 169.34C109.479 169.281 109.516 169.227 109.564 169.176C109.61 169.123 109.667 169.077 109.736 169.04C109.808 169.003 109.892 168.984 109.988 168.984C110.148 168.984 110.274 169.024 110.364 169.104C110.458 169.181 110.524 169.292 110.564 169.436H110.572C110.578 169.409 110.592 169.372 110.616 169.324C110.64 169.273 110.676 169.223 110.724 169.172C110.772 169.121 110.832 169.077 110.904 169.04C110.976 169.003 111.064 168.984 111.168 168.984C111.336 168.984 111.476 169.036 111.588 169.14C111.7 169.241 111.756 169.392 111.756 169.592V170.992ZM114.035 170.028C114.035 170.156 114.016 170.281 113.979 170.404C113.944 170.524 113.892 170.631 113.823 170.724C113.751 170.817 113.663 170.892 113.559 170.948C113.458 171.004 113.339 171.032 113.203 171.032C113.043 171.032 112.916 170.993 112.823 170.916C112.732 170.839 112.667 170.745 112.627 170.636H112.619V171.748H112.327V169.024H112.619V169.396H112.627C112.643 169.348 112.667 169.3 112.699 169.252C112.731 169.201 112.772 169.156 112.823 169.116C112.871 169.076 112.927 169.044 112.991 169.02C113.058 168.993 113.135 168.98 113.223 168.98C113.335 168.98 113.44 169.004 113.539 169.052C113.638 169.097 113.723 169.164 113.795 169.252C113.87 169.34 113.928 169.449 113.971 169.58C114.014 169.711 114.035 169.86 114.035 170.028ZM113.715 170.024C113.715 169.917 113.703 169.815 113.679 169.716C113.658 169.617 113.626 169.532 113.583 169.46C113.538 169.385 113.482 169.327 113.415 169.284C113.351 169.239 113.275 169.216 113.187 169.216C113.035 169.216 112.906 169.287 112.799 169.428C112.692 169.569 112.639 169.756 112.639 169.988C112.639 170.068 112.648 170.155 112.667 170.248C112.686 170.341 112.718 170.429 112.763 170.512C112.806 170.592 112.862 170.659 112.931 170.712C113.003 170.765 113.091 170.792 113.195 170.792C113.283 170.792 113.359 170.771 113.423 170.728C113.49 170.685 113.544 170.629 113.587 170.56C113.63 170.488 113.662 170.407 113.683 170.316C113.704 170.223 113.715 170.125 113.715 170.024ZM114.792 171H114.488V168.16H114.792V171ZM117.03 170.04H115.606C115.614 170.157 115.647 170.279 115.706 170.404C115.764 170.527 115.87 170.629 116.022 170.712C116.054 170.733 116.104 170.752 116.174 170.768C116.246 170.784 116.327 170.793 116.418 170.796C116.506 170.796 116.598 170.787 116.694 170.768C116.792 170.749 116.886 170.713 116.974 170.66V170.896C116.856 170.957 116.731 170.997 116.598 171.016C116.467 171.037 116.338 171.041 116.21 171.028C116.082 171.015 115.963 170.987 115.854 170.944C115.744 170.899 115.655 170.84 115.586 170.768C115.495 170.68 115.42 170.569 115.362 170.436C115.303 170.3 115.274 170.143 115.274 169.964C115.274 169.676 115.358 169.441 115.526 169.26C115.696 169.076 115.936 168.984 116.246 168.984C116.376 168.984 116.491 169.009 116.59 169.06C116.688 169.111 116.77 169.176 116.834 169.256C116.898 169.336 116.946 169.427 116.978 169.528C117.012 169.627 117.03 169.727 117.03 169.828V170.04ZM116.706 169.804C116.706 169.745 116.698 169.683 116.682 169.616C116.668 169.547 116.643 169.483 116.606 169.424C116.571 169.365 116.523 169.317 116.462 169.28C116.4 169.24 116.324 169.22 116.234 169.22C116.063 169.22 115.919 169.272 115.802 169.376C115.687 169.477 115.62 169.62 115.602 169.804H116.706ZM119.831 169.292H119.255V170.348C119.255 170.409 119.258 170.468 119.263 170.524C119.269 170.577 119.283 170.625 119.307 170.668C119.329 170.711 119.362 170.744 119.407 170.768C119.453 170.792 119.514 170.804 119.591 170.804C119.637 170.804 119.679 170.803 119.719 170.8C119.759 170.795 119.793 170.788 119.819 170.78V171.028C119.769 171.036 119.719 171.04 119.671 171.04C119.626 171.043 119.581 171.044 119.535 171.044C119.338 171.044 119.191 171.004 119.095 170.924C118.999 170.841 118.951 170.716 118.951 170.548V169.292H118.603V169.056H118.951V168.576L119.255 168.392V169.056H119.831V169.292ZM121.873 170.04H120.449C120.457 170.157 120.491 170.279 120.549 170.404C120.608 170.527 120.713 170.629 120.865 170.712C120.897 170.733 120.948 170.752 121.017 170.768C121.089 170.784 121.171 170.793 121.261 170.796C121.349 170.796 121.441 170.787 121.537 170.768C121.636 170.749 121.729 170.713 121.817 170.66V170.896C121.7 170.957 121.575 170.997 121.441 171.016C121.311 171.037 121.181 171.041 121.053 171.028C120.925 171.015 120.807 170.987 120.697 170.944C120.588 170.899 120.499 170.84 120.429 170.768C120.339 170.68 120.264 170.569 120.205 170.436C120.147 170.3 120.117 170.143 120.117 169.964C120.117 169.676 120.201 169.441 120.369 169.26C120.54 169.076 120.78 168.984 121.089 168.984C121.22 168.984 121.335 169.009 121.433 169.06C121.532 169.111 121.613 169.176 121.677 169.256C121.741 169.336 121.789 169.427 121.821 169.528C121.856 169.627 121.873 169.727 121.873 169.828V170.04ZM121.549 169.804C121.549 169.745 121.541 169.683 121.525 169.616C121.512 169.547 121.487 169.483 121.449 169.424C121.415 169.365 121.367 169.317 121.305 169.28C121.244 169.24 121.168 169.22 121.077 169.22C120.907 169.22 120.763 169.272 120.645 169.376C120.531 169.477 120.464 169.62 120.445 169.804H121.549ZM123.931 170.988H123.591L123.015 170.196L122.427 170.988H122.087L122.839 169.96L122.171 169.028H122.507L123.015 169.716L123.523 169.028H123.859L123.183 169.96L123.931 170.988ZM125.277 169.292H124.701V170.348C124.701 170.409 124.703 170.468 124.709 170.524C124.714 170.577 124.729 170.625 124.753 170.668C124.774 170.711 124.807 170.744 124.853 170.768C124.898 170.792 124.959 170.804 125.037 170.804C125.082 170.804 125.125 170.803 125.165 170.8C125.205 170.795 125.238 170.788 125.265 170.78V171.028C125.214 171.036 125.165 171.04 125.117 171.04C125.071 171.043 125.026 171.044 124.981 171.044C124.783 171.044 124.637 171.004 124.541 170.924C124.445 170.841 124.397 170.716 124.397 170.548V169.292H124.049V169.056H124.397V168.576L124.701 168.392V169.056H125.277V169.292ZM128.019 169.292H127.443V170.348C127.443 170.409 127.446 170.468 127.451 170.524C127.456 170.577 127.471 170.625 127.495 170.668C127.516 170.711 127.55 170.744 127.595 170.768C127.64 170.792 127.702 170.804 127.779 170.804C127.824 170.804 127.867 170.803 127.907 170.8C127.947 170.795 127.98 170.788 128.007 170.78V171.028C127.956 171.036 127.907 171.04 127.859 171.04C127.814 171.043 127.768 171.044 127.723 171.044C127.526 171.044 127.379 171.004 127.283 170.924C127.187 170.841 127.139 170.716 127.139 170.548V169.292H126.791V169.056H127.139V168.576L127.443 168.392V169.056H128.019V169.292ZM130.205 170.016C130.205 170.32 130.119 170.565 129.949 170.752C129.781 170.939 129.547 171.032 129.249 171.032C128.969 171.032 128.739 170.944 128.561 170.768C128.382 170.592 128.293 170.343 128.293 170.02C128.293 169.881 128.311 169.751 128.349 169.628C128.389 169.503 128.447 169.392 128.525 169.296C128.605 169.203 128.703 169.128 128.821 169.072C128.941 169.016 129.081 168.988 129.241 168.988C129.539 168.988 129.774 169.083 129.945 169.272C130.118 169.461 130.205 169.709 130.205 170.016ZM129.869 170.016C129.869 169.917 129.857 169.82 129.833 169.724C129.811 169.628 129.775 169.543 129.725 169.468C129.674 169.393 129.609 169.333 129.529 169.288C129.449 169.243 129.351 169.22 129.237 169.22C129.127 169.22 129.034 169.243 128.957 169.288C128.879 169.331 128.815 169.388 128.765 169.46C128.714 169.535 128.677 169.62 128.653 169.716C128.631 169.812 128.621 169.913 128.621 170.02C128.621 170.124 128.631 170.223 128.653 170.316C128.677 170.409 128.715 170.492 128.769 170.564C128.819 170.636 128.885 170.693 128.965 170.736C129.045 170.779 129.141 170.8 129.253 170.8C129.362 170.8 129.455 170.779 129.533 170.736C129.61 170.693 129.674 170.635 129.725 170.56C129.773 170.488 129.809 170.405 129.833 170.312C129.857 170.216 129.869 170.117 129.869 170.016ZM132.275 170.992H131.983V170.66H131.975C131.967 170.687 131.95 170.721 131.923 170.764C131.899 170.807 131.863 170.848 131.815 170.888C131.764 170.928 131.699 170.963 131.619 170.992C131.539 171.021 131.443 171.036 131.331 171.036C131.216 171.036 131.111 171.012 131.015 170.964C130.919 170.916 130.836 170.849 130.767 170.764C130.698 170.676 130.643 170.572 130.603 170.452C130.566 170.332 130.547 170.2 130.547 170.056C130.547 169.987 130.55 169.917 130.555 169.848C130.563 169.776 130.575 169.712 130.591 169.656C130.65 169.416 130.752 169.244 130.899 169.14C131.048 169.036 131.212 168.984 131.391 168.984C131.479 168.987 131.555 169 131.619 169.024C131.686 169.048 131.742 169.079 131.787 169.116C131.832 169.151 131.87 169.191 131.899 169.236C131.931 169.279 131.956 169.319 131.975 169.356H131.983V168.148H132.275V170.992ZM131.951 169.892C131.951 169.839 131.94 169.773 131.919 169.696C131.9 169.619 131.871 169.545 131.831 169.476C131.788 169.407 131.732 169.347 131.663 169.296C131.594 169.245 131.51 169.22 131.411 169.22C131.307 169.22 131.203 169.264 131.099 169.352C130.995 169.44 130.931 169.572 130.907 169.748C130.899 169.799 130.892 169.852 130.887 169.908C130.884 169.961 130.883 170.015 130.883 170.068C130.883 170.153 130.892 170.24 130.911 170.328C130.932 170.416 130.964 170.496 131.007 170.568C131.05 170.64 131.104 170.699 131.171 170.744C131.238 170.789 131.319 170.812 131.415 170.812C131.548 170.812 131.658 170.761 131.743 170.66C131.831 170.556 131.89 170.429 131.919 170.28C131.93 170.229 131.938 170.168 131.943 170.096C131.948 170.024 131.951 169.956 131.951 169.892ZM134.35 170.984H134.046V170.736H134.038C134.025 170.757 133.998 170.785 133.958 170.82C133.918 170.852 133.866 170.884 133.802 170.916C133.738 170.948 133.664 170.975 133.578 170.996C133.496 171.017 133.405 171.028 133.306 171.028C133.237 171.028 133.169 171.017 133.102 170.996C133.038 170.972 132.98 170.937 132.926 170.892C132.873 170.847 132.83 170.792 132.798 170.728C132.766 170.664 132.75 170.592 132.75 170.512C132.75 170.368 132.796 170.243 132.886 170.136C132.977 170.027 133.086 169.952 133.214 169.912C133.294 169.888 133.377 169.871 133.462 169.86C133.548 169.849 133.629 169.844 133.706 169.844C133.781 169.841 133.848 169.841 133.906 169.844C133.968 169.844 134.014 169.844 134.046 169.844V169.648C134.046 169.616 134.041 169.575 134.03 169.524C134.02 169.473 133.998 169.425 133.966 169.38C133.934 169.335 133.888 169.296 133.826 169.264C133.768 169.229 133.689 169.212 133.59 169.212C133.462 169.212 133.358 169.241 133.278 169.3C133.198 169.359 133.158 169.436 133.158 169.532H132.806C132.806 169.465 132.822 169.4 132.854 169.336C132.889 169.269 132.94 169.209 133.006 169.156C133.073 169.103 133.154 169.06 133.25 169.028C133.349 168.993 133.462 168.976 133.59 168.976C133.846 168.976 134.037 169.04 134.162 169.168C134.288 169.293 134.35 169.448 134.35 169.632V170.984ZM134.046 170.252V170.048C133.977 170.045 133.893 170.045 133.794 170.048C133.698 170.048 133.602 170.059 133.506 170.08C133.461 170.093 133.413 170.111 133.362 170.132C133.314 170.151 133.269 170.176 133.226 170.208C133.184 170.24 133.149 170.279 133.122 170.324C133.096 170.367 133.082 170.416 133.082 170.472C133.082 170.6 133.124 170.687 133.206 170.732C133.289 170.775 133.378 170.796 133.474 170.796C133.514 170.796 133.56 170.788 133.61 170.772C133.664 170.756 133.717 170.733 133.77 170.704C133.821 170.675 133.868 170.64 133.91 170.6C133.953 170.56 133.985 170.515 134.006 170.464C134.022 170.432 134.033 170.399 134.038 170.364C134.044 170.329 134.046 170.292 134.046 170.252ZM136.453 169.028L135.445 171.752H135.141L135.433 170.96L134.621 169.028H134.921L135.569 170.552H135.577L136.153 169.028H136.453ZM137.18 168.216C137.18 168.264 137.175 168.321 137.164 168.388C137.154 168.455 137.136 168.508 137.112 168.548C137.083 168.591 137.047 168.628 137.004 168.66C136.964 168.692 136.919 168.721 136.868 168.748L136.728 168.584C136.774 168.568 136.812 168.551 136.844 168.532C136.876 168.511 136.9 168.488 136.916 168.464C136.935 168.44 136.946 168.413 136.948 168.384C136.954 168.355 136.956 168.325 136.956 168.296H136.748V167.876H137.18V168.216ZM138.973 170.48C138.973 170.565 138.96 170.643 138.933 170.712C138.907 170.781 138.863 170.84 138.801 170.888C138.74 170.939 138.657 170.977 138.553 171.004C138.449 171.031 138.32 171.044 138.165 171.044C138.037 171.044 137.921 171.035 137.817 171.016C137.716 170.997 137.641 170.976 137.593 170.952V170.644C137.604 170.649 137.625 170.661 137.657 170.68C137.692 170.696 137.733 170.713 137.781 170.732C137.829 170.751 137.884 170.768 137.945 170.784C138.009 170.797 138.079 170.804 138.153 170.804C138.215 170.804 138.276 170.8 138.337 170.792C138.399 170.781 138.453 170.765 138.501 170.744C138.549 170.72 138.588 170.689 138.617 170.652C138.649 170.615 138.665 170.568 138.665 170.512C138.665 170.445 138.647 170.391 138.609 170.348C138.572 170.303 138.52 170.261 138.453 170.224C138.389 170.189 138.313 170.155 138.225 170.12C138.137 170.085 138.044 170.044 137.945 169.996C137.863 169.959 137.784 169.901 137.709 169.824C137.637 169.747 137.601 169.645 137.601 169.52C137.601 169.352 137.664 169.221 137.789 169.128C137.915 169.032 138.093 168.984 138.325 168.984C138.427 168.984 138.528 168.993 138.629 169.012C138.731 169.028 138.803 169.041 138.845 169.052V169.348C138.813 169.335 138.744 169.309 138.637 169.272C138.533 169.235 138.416 169.216 138.285 169.216C138.197 169.216 138.111 169.235 138.025 169.272C137.943 169.309 137.901 169.369 137.901 169.452C137.901 169.511 137.915 169.565 137.941 169.616C137.971 169.664 138.015 169.705 138.073 169.74C138.129 169.772 138.208 169.805 138.309 169.84C138.411 169.875 138.509 169.919 138.605 169.972C138.704 170.028 138.789 170.096 138.861 170.176C138.936 170.256 138.973 170.357 138.973 170.48ZM97.72 173.028L97.22 174.988H96.908L96.404 173.488H96.396L95.896 174.988H95.592L95.076 173.028H95.364L95.756 174.552H95.764L96.272 173.028H96.524L97.036 174.552H97.044L97.44 173.028H97.72ZM99.7288 174.04H98.3048C98.3128 174.157 98.3461 174.279 98.4048 174.404C98.4634 174.527 98.5688 174.629 98.7208 174.712C98.7528 174.733 98.8034 174.752 98.8728 174.768C98.9448 174.784 99.0261 174.793 99.1168 174.796C99.2048 174.796 99.2968 174.787 99.3928 174.768C99.4914 174.749 99.5848 174.713 99.6728 174.66V174.896C99.5554 174.957 99.4301 174.997 99.2968 175.016C99.1661 175.037 99.0368 175.041 98.9088 175.028C98.7808 175.015 98.6621 174.987 98.5528 174.944C98.4434 174.899 98.3541 174.84 98.2848 174.768C98.1941 174.68 98.1194 174.569 98.0608 174.436C98.0021 174.3 97.9728 174.143 97.9728 173.964C97.9728 173.676 98.0568 173.441 98.2248 173.26C98.3954 173.076 98.6354 172.984 98.9448 172.984C99.0754 172.984 99.1901 173.009 99.2888 173.06C99.3874 173.111 99.4688 173.176 99.5328 173.256C99.5968 173.336 99.6448 173.427 99.6768 173.528C99.7114 173.627 99.7288 173.727 99.7288 173.828V174.04ZM99.4048 173.804C99.4048 173.745 99.3968 173.683 99.3808 173.616C99.3674 173.547 99.3421 173.483 99.3048 173.424C99.2701 173.365 99.2221 173.317 99.1608 173.28C99.0994 173.24 99.0234 173.22 98.9328 173.22C98.7621 173.22 98.6181 173.272 98.5008 173.376C98.3861 173.477 98.3194 173.62 98.3008 173.804H99.4048ZM101.682 174.984H101.378V174.736H101.37C101.357 174.757 101.33 174.785 101.29 174.82C101.25 174.852 101.198 174.884 101.134 174.916C101.07 174.948 100.996 174.975 100.91 174.996C100.828 175.017 100.737 175.028 100.638 175.028C100.569 175.028 100.501 175.017 100.434 174.996C100.37 174.972 100.312 174.937 100.258 174.892C100.205 174.847 100.162 174.792 100.13 174.728C100.098 174.664 100.082 174.592 100.082 174.512C100.082 174.368 100.128 174.243 100.218 174.136C100.309 174.027 100.418 173.952 100.546 173.912C100.626 173.888 100.709 173.871 100.794 173.86C100.88 173.849 100.961 173.844 101.038 173.844C101.113 173.841 101.18 173.841 101.238 173.844C101.3 173.844 101.346 173.844 101.378 173.844V173.648C101.378 173.616 101.373 173.575 101.362 173.524C101.352 173.473 101.33 173.425 101.298 173.38C101.266 173.335 101.22 173.296 101.158 173.264C101.1 173.229 101.021 173.212 100.922 173.212C100.794 173.212 100.69 173.241 100.61 173.3C100.53 173.359 100.49 173.436 100.49 173.532H100.138C100.138 173.465 100.154 173.4 100.186 173.336C100.221 173.269 100.272 173.209 100.338 173.156C100.405 173.103 100.486 173.06 100.582 173.028C100.681 172.993 100.794 172.976 100.922 172.976C101.178 172.976 101.369 173.04 101.494 173.168C101.62 173.293 101.682 173.448 101.682 173.632V174.984ZM101.378 174.252V174.048C101.309 174.045 101.225 174.045 101.126 174.048C101.03 174.048 100.934 174.059 100.838 174.08C100.793 174.093 100.745 174.111 100.694 174.132C100.646 174.151 100.601 174.176 100.558 174.208C100.516 174.24 100.481 174.279 100.454 174.324C100.428 174.367 100.414 174.416 100.414 174.472C100.414 174.6 100.456 174.687 100.538 174.732C100.621 174.775 100.71 174.796 100.806 174.796C100.846 174.796 100.892 174.788 100.942 174.772C100.996 174.756 101.049 174.733 101.102 174.704C101.153 174.675 101.2 174.64 101.242 174.6C101.285 174.56 101.317 174.515 101.338 174.464C101.354 174.432 101.365 174.399 101.37 174.364C101.376 174.329 101.378 174.292 101.378 174.252ZM103.249 173.292H102.673V174.348C102.673 174.409 102.676 174.468 102.681 174.524C102.687 174.577 102.701 174.625 102.725 174.668C102.747 174.711 102.78 174.744 102.825 174.768C102.871 174.792 102.932 174.804 103.009 174.804C103.055 174.804 103.097 174.803 103.137 174.8C103.177 174.795 103.211 174.788 103.237 174.78V175.028C103.187 175.036 103.137 175.04 103.089 175.04C103.044 175.043 102.999 175.044 102.953 175.044C102.756 175.044 102.609 175.004 102.513 174.924C102.417 174.841 102.369 174.716 102.369 174.548V173.292H102.021V173.056H102.369V172.576L102.673 172.392V173.056H103.249V173.292ZM105.259 174.996H104.963V173.692C104.963 173.649 104.957 173.603 104.943 173.552C104.933 173.499 104.913 173.449 104.883 173.404C104.854 173.359 104.814 173.321 104.763 173.292C104.713 173.26 104.65 173.244 104.575 173.244C104.447 173.244 104.327 173.303 104.215 173.42C104.103 173.535 104.025 173.676 103.979 173.844C103.966 173.892 103.957 173.94 103.951 173.988C103.946 174.036 103.943 174.084 103.943 174.132V174.996H103.655V172.152H103.943V173.504H103.951C103.962 173.469 103.982 173.423 104.011 173.364C104.043 173.305 104.086 173.248 104.139 173.192C104.193 173.136 104.259 173.088 104.339 173.048C104.419 173.008 104.515 172.988 104.627 172.988C104.699 172.988 104.773 172.999 104.847 173.02C104.922 173.039 104.99 173.071 105.051 173.116C105.113 173.159 105.162 173.217 105.199 173.292C105.239 173.364 105.259 173.452 105.259 173.556V174.996ZM107.471 174.04H106.047C106.055 174.157 106.088 174.279 106.147 174.404C106.206 174.527 106.311 174.629 106.463 174.712C106.495 174.733 106.546 174.752 106.615 174.768C106.687 174.784 106.768 174.793 106.859 174.796C106.947 174.796 107.039 174.787 107.135 174.768C107.234 174.749 107.327 174.713 107.415 174.66V174.896C107.298 174.957 107.172 174.997 107.039 175.016C106.908 175.037 106.779 175.041 106.651 175.028C106.523 175.015 106.404 174.987 106.295 174.944C106.186 174.899 106.096 174.84 106.027 174.768C105.936 174.68 105.862 174.569 105.803 174.436C105.744 174.3 105.715 174.143 105.715 173.964C105.715 173.676 105.799 173.441 105.967 173.26C106.138 173.076 106.378 172.984 106.687 172.984C106.818 172.984 106.932 173.009 107.031 173.06C107.13 173.111 107.211 173.176 107.275 173.256C107.339 173.336 107.387 173.427 107.419 173.528C107.454 173.627 107.471 173.727 107.471 173.828V174.04ZM107.147 173.804C107.147 173.745 107.139 173.683 107.123 173.616C107.11 173.547 107.084 173.483 107.047 173.424C107.012 173.365 106.964 173.317 106.903 173.28C106.842 173.24 106.766 173.22 106.675 173.22C106.504 173.22 106.36 173.272 106.243 173.376C106.128 173.477 106.062 173.62 106.043 173.804H107.147ZM109.089 173.292C109.003 173.292 108.917 173.303 108.829 173.324C108.743 173.343 108.663 173.373 108.589 173.416C108.514 173.459 108.449 173.515 108.393 173.584C108.337 173.651 108.297 173.731 108.273 173.824C108.259 173.877 108.249 173.935 108.241 173.996C108.235 174.055 108.233 174.117 108.233 174.184V174.996H107.941V173.036H108.233V173.472H108.241C108.318 173.315 108.426 173.196 108.565 173.116C108.706 173.033 108.881 172.992 109.089 172.992V173.292ZM111.753 173.292H111.177V174.348C111.177 174.409 111.18 174.468 111.185 174.524C111.191 174.577 111.205 174.625 111.229 174.668C111.251 174.711 111.284 174.744 111.329 174.768C111.375 174.792 111.436 174.804 111.513 174.804C111.559 174.804 111.601 174.803 111.641 174.8C111.681 174.795 111.715 174.788 111.741 174.78V175.028C111.691 175.036 111.641 175.04 111.593 175.04C111.548 175.043 111.503 175.044 111.457 175.044C111.26 175.044 111.113 175.004 111.017 174.924C110.921 174.841 110.873 174.716 110.873 174.548V173.292H110.525V173.056H110.873V172.576L111.177 172.392V173.056H111.753V173.292ZM113.795 174.04H112.371C112.379 174.157 112.413 174.279 112.471 174.404C112.53 174.527 112.635 174.629 112.787 174.712C112.819 174.733 112.87 174.752 112.939 174.768C113.011 174.784 113.093 174.793 113.183 174.796C113.271 174.796 113.363 174.787 113.459 174.768C113.558 174.749 113.651 174.713 113.739 174.66V174.896C113.622 174.957 113.497 174.997 113.363 175.016C113.233 175.037 113.103 175.041 112.975 175.028C112.847 175.015 112.729 174.987 112.619 174.944C112.51 174.899 112.421 174.84 112.351 174.768C112.261 174.68 112.186 174.569 112.127 174.436C112.069 174.3 112.039 174.143 112.039 173.964C112.039 173.676 112.123 173.441 112.291 173.26C112.462 173.076 112.702 172.984 113.011 172.984C113.142 172.984 113.257 173.009 113.355 173.06C113.454 173.111 113.535 173.176 113.599 173.256C113.663 173.336 113.711 173.427 113.743 173.528C113.778 173.627 113.795 173.727 113.795 173.828V174.04ZM113.471 173.804C113.471 173.745 113.463 173.683 113.447 173.616C113.434 173.547 113.409 173.483 113.371 173.424C113.337 173.365 113.289 173.317 113.227 173.28C113.166 173.24 113.09 173.22 112.999 173.22C112.829 173.22 112.685 173.272 112.567 173.376C112.453 173.477 112.386 173.62 112.367 173.804H113.471ZM116.905 174.992H116.625V173.904C116.625 173.835 116.622 173.763 116.617 173.688C116.611 173.611 116.598 173.541 116.577 173.48C116.553 173.419 116.515 173.368 116.465 173.328C116.414 173.285 116.343 173.264 116.253 173.264C116.138 173.264 116.035 173.325 115.945 173.448C115.854 173.568 115.789 173.716 115.749 173.892C115.741 173.948 115.734 174 115.729 174.048C115.723 174.093 115.721 174.139 115.721 174.184V174.992H115.441V173.904C115.441 173.835 115.437 173.763 115.429 173.688C115.423 173.611 115.409 173.541 115.385 173.48C115.361 173.419 115.323 173.368 115.273 173.328C115.225 173.285 115.157 173.264 115.069 173.264C114.989 173.264 114.913 173.295 114.841 173.356C114.769 173.417 114.709 173.497 114.661 173.596C114.621 173.687 114.59 173.78 114.569 173.876C114.547 173.969 114.537 174.072 114.537 174.184V174.992H114.257V173.032H114.537V173.484H114.545C114.555 173.444 114.574 173.396 114.601 173.34C114.627 173.281 114.665 173.227 114.713 173.176C114.758 173.123 114.815 173.077 114.885 173.04C114.957 173.003 115.041 172.984 115.137 172.984C115.297 172.984 115.422 173.024 115.513 173.104C115.606 173.181 115.673 173.292 115.713 173.436H115.721C115.726 173.409 115.741 173.372 115.765 173.324C115.789 173.273 115.825 173.223 115.873 173.172C115.921 173.121 115.981 173.077 116.053 173.04C116.125 173.003 116.213 172.984 116.317 172.984C116.485 172.984 116.625 173.036 116.737 173.14C116.849 173.241 116.905 173.392 116.905 173.592V174.992ZM119.184 174.028C119.184 174.156 119.165 174.281 119.128 174.404C119.093 174.524 119.041 174.631 118.972 174.724C118.9 174.817 118.812 174.892 118.708 174.948C118.606 175.004 118.488 175.032 118.352 175.032C118.192 175.032 118.065 174.993 117.972 174.916C117.881 174.839 117.816 174.745 117.775 174.636H117.768V175.748H117.476V173.024H117.768V173.396H117.775C117.792 173.348 117.816 173.3 117.848 173.252C117.88 173.201 117.921 173.156 117.972 173.116C118.02 173.076 118.076 173.044 118.14 173.02C118.206 172.993 118.284 172.98 118.372 172.98C118.484 172.98 118.589 173.004 118.688 173.052C118.786 173.097 118.872 173.164 118.944 173.252C119.018 173.34 119.077 173.449 119.12 173.58C119.162 173.711 119.184 173.86 119.184 174.028ZM118.864 174.024C118.864 173.917 118.852 173.815 118.828 173.716C118.806 173.617 118.774 173.532 118.732 173.46C118.686 173.385 118.63 173.327 118.564 173.284C118.5 173.239 118.424 173.216 118.336 173.216C118.184 173.216 118.054 173.287 117.948 173.428C117.841 173.569 117.788 173.756 117.788 173.988C117.788 174.068 117.797 174.155 117.816 174.248C117.834 174.341 117.866 174.429 117.912 174.512C117.954 174.592 118.01 174.659 118.08 174.712C118.152 174.765 118.24 174.792 118.344 174.792C118.432 174.792 118.508 174.771 118.572 174.728C118.638 174.685 118.693 174.629 118.736 174.56C118.778 174.488 118.81 174.407 118.832 174.316C118.853 174.223 118.864 174.125 118.864 174.024ZM121.256 174.04H119.832C119.84 174.157 119.873 174.279 119.932 174.404C119.991 174.527 120.096 174.629 120.248 174.712C120.28 174.733 120.331 174.752 120.4 174.768C120.472 174.784 120.553 174.793 120.644 174.796C120.732 174.796 120.824 174.787 120.92 174.768C121.019 174.749 121.112 174.713 121.2 174.66V174.896C121.083 174.957 120.957 174.997 120.824 175.016C120.693 175.037 120.564 175.041 120.436 175.028C120.308 175.015 120.189 174.987 120.08 174.944C119.971 174.899 119.881 174.84 119.812 174.768C119.721 174.68 119.647 174.569 119.588 174.436C119.529 174.3 119.5 174.143 119.5 173.964C119.5 173.676 119.584 173.441 119.752 173.26C119.923 173.076 120.163 172.984 120.472 172.984C120.603 172.984 120.717 173.009 120.816 173.06C120.915 173.111 120.996 173.176 121.06 173.256C121.124 173.336 121.172 173.427 121.204 173.528C121.239 173.627 121.256 173.727 121.256 173.828V174.04ZM120.932 173.804C120.932 173.745 120.924 173.683 120.908 173.616C120.895 173.547 120.869 173.483 120.832 173.424C120.797 173.365 120.749 173.317 120.688 173.28C120.627 173.24 120.551 173.22 120.46 173.22C120.289 173.22 120.145 173.272 120.028 173.376C119.913 173.477 119.847 173.62 119.828 173.804H120.932ZM122.874 173.292C122.788 173.292 122.702 173.303 122.614 173.324C122.528 173.343 122.448 173.373 122.374 173.416C122.299 173.459 122.234 173.515 122.178 173.584C122.122 173.651 122.082 173.731 122.058 173.824C122.044 173.877 122.034 173.935 122.026 173.996C122.02 174.055 122.018 174.117 122.018 174.184V174.996H121.726V173.036H122.018V173.472H122.026C122.103 173.315 122.211 173.196 122.35 173.116C122.491 173.033 122.666 172.992 122.874 172.992V173.292ZM124.69 174.984H124.386V174.736H124.378C124.365 174.757 124.338 174.785 124.298 174.82C124.258 174.852 124.206 174.884 124.142 174.916C124.078 174.948 124.003 174.975 123.918 174.996C123.835 175.017 123.745 175.028 123.646 175.028C123.577 175.028 123.509 175.017 123.442 174.996C123.378 174.972 123.319 174.937 123.266 174.892C123.213 174.847 123.17 174.792 123.138 174.728C123.106 174.664 123.09 174.592 123.09 174.512C123.09 174.368 123.135 174.243 123.226 174.136C123.317 174.027 123.426 173.952 123.554 173.912C123.634 173.888 123.717 173.871 123.802 173.86C123.887 173.849 123.969 173.844 124.046 173.844C124.121 173.841 124.187 173.841 124.246 173.844C124.307 173.844 124.354 173.844 124.386 173.844V173.648C124.386 173.616 124.381 173.575 124.37 173.524C124.359 173.473 124.338 173.425 124.306 173.38C124.274 173.335 124.227 173.296 124.166 173.264C124.107 173.229 124.029 173.212 123.93 173.212C123.802 173.212 123.698 173.241 123.618 173.3C123.538 173.359 123.498 173.436 123.498 173.532H123.146C123.146 173.465 123.162 173.4 123.194 173.336C123.229 173.269 123.279 173.209 123.346 173.156C123.413 173.103 123.494 173.06 123.59 173.028C123.689 172.993 123.802 172.976 123.93 172.976C124.186 172.976 124.377 173.04 124.502 173.168C124.627 173.293 124.69 173.448 124.69 173.632V174.984ZM124.386 174.252V174.048C124.317 174.045 124.233 174.045 124.134 174.048C124.038 174.048 123.942 174.059 123.846 174.08C123.801 174.093 123.753 174.111 123.702 174.132C123.654 174.151 123.609 174.176 123.566 174.208C123.523 174.24 123.489 174.279 123.462 174.324C123.435 174.367 123.422 174.416 123.422 174.472C123.422 174.6 123.463 174.687 123.546 174.732C123.629 174.775 123.718 174.796 123.814 174.796C123.854 174.796 123.899 174.788 123.95 174.772C124.003 174.756 124.057 174.733 124.11 174.704C124.161 174.675 124.207 174.64 124.25 174.6C124.293 174.56 124.325 174.515 124.346 174.464C124.362 174.432 124.373 174.399 124.378 174.364C124.383 174.329 124.386 174.292 124.386 174.252ZM126.257 173.292H125.681V174.348C125.681 174.409 125.684 174.468 125.689 174.524C125.695 174.577 125.709 174.625 125.733 174.668C125.755 174.711 125.788 174.744 125.833 174.768C125.879 174.792 125.94 174.804 126.017 174.804C126.063 174.804 126.105 174.803 126.145 174.8C126.185 174.795 126.219 174.788 126.245 174.78V175.028C126.195 175.036 126.145 175.04 126.097 175.04C126.052 175.043 126.007 175.044 125.961 175.044C125.764 175.044 125.617 175.004 125.521 174.924C125.425 174.841 125.377 174.716 125.377 174.548V173.292H125.029V173.056H125.377V172.576L125.681 172.392V173.056H126.257V173.292ZM128.323 174.984H128.047V174.524H128.039C127.996 174.663 127.912 174.781 127.787 174.88C127.662 174.979 127.487 175.028 127.263 175.028C127.175 175.028 127.094 175.013 127.019 174.984C126.944 174.952 126.88 174.908 126.827 174.852C126.774 174.799 126.731 174.736 126.699 174.664C126.67 174.589 126.655 174.509 126.655 174.424V173.024H126.947V174.272C126.947 174.331 126.952 174.391 126.963 174.452C126.976 174.511 126.999 174.564 127.031 174.612C127.063 174.66 127.107 174.699 127.163 174.728C127.219 174.757 127.291 174.772 127.379 174.772C127.536 174.772 127.67 174.712 127.779 174.592C127.891 174.472 127.967 174.328 128.007 174.16C128.015 174.109 128.022 174.059 128.027 174.008C128.032 173.957 128.036 173.907 128.039 173.856V173.024H128.323V174.984ZM130.077 173.292C129.991 173.292 129.905 173.303 129.817 173.324C129.731 173.343 129.651 173.373 129.577 173.416C129.502 173.459 129.437 173.515 129.381 173.584C129.325 173.651 129.285 173.731 129.261 173.824C129.247 173.877 129.237 173.935 129.229 173.996C129.223 174.055 129.221 174.117 129.221 174.184V174.996H128.929V173.036H129.221V173.472H129.229C129.306 173.315 129.414 173.196 129.553 173.116C129.694 173.033 129.869 172.992 130.077 172.992V173.292ZM132.041 174.04H130.617C130.625 174.157 130.659 174.279 130.717 174.404C130.776 174.527 130.881 174.629 131.033 174.712C131.065 174.733 131.116 174.752 131.185 174.768C131.257 174.784 131.339 174.793 131.429 174.796C131.517 174.796 131.609 174.787 131.705 174.768C131.804 174.749 131.897 174.713 131.985 174.66V174.896C131.868 174.957 131.743 174.997 131.609 175.016C131.479 175.037 131.349 175.041 131.221 175.028C131.093 175.015 130.975 174.987 130.865 174.944C130.756 174.899 130.667 174.84 130.597 174.768C130.507 174.68 130.432 174.569 130.373 174.436C130.315 174.3 130.285 174.143 130.285 173.964C130.285 173.676 130.369 173.441 130.537 173.26C130.708 173.076 130.948 172.984 131.257 172.984C131.388 172.984 131.503 173.009 131.601 173.06C131.7 173.111 131.781 173.176 131.845 173.256C131.909 173.336 131.957 173.427 131.989 173.528C132.024 173.627 132.041 173.727 132.041 173.828V174.04ZM131.717 173.804C131.717 173.745 131.709 173.683 131.693 173.616C131.68 173.547 131.655 173.483 131.617 173.424C131.583 173.365 131.535 173.317 131.473 173.28C131.412 173.24 131.336 173.22 131.245 173.22C131.075 173.22 130.931 173.272 130.813 173.376C130.699 173.477 130.632 173.62 130.613 173.804H131.717ZM134.183 172.556H133.799V172.172H134.183V172.556ZM134.155 175.012H133.835V173.052H134.155V175.012ZM135.981 174.48C135.981 174.565 135.968 174.643 135.941 174.712C135.914 174.781 135.87 174.84 135.809 174.888C135.748 174.939 135.665 174.977 135.561 175.004C135.457 175.031 135.328 175.044 135.173 175.044C135.045 175.044 134.929 175.035 134.825 175.016C134.724 174.997 134.649 174.976 134.601 174.952V174.644C134.612 174.649 134.633 174.661 134.665 174.68C134.7 174.696 134.741 174.713 134.789 174.732C134.837 174.751 134.892 174.768 134.953 174.784C135.017 174.797 135.086 174.804 135.161 174.804C135.222 174.804 135.284 174.8 135.345 174.792C135.406 174.781 135.461 174.765 135.509 174.744C135.557 174.72 135.596 174.689 135.625 174.652C135.657 174.615 135.673 174.568 135.673 174.512C135.673 174.445 135.654 174.391 135.617 174.348C135.58 174.303 135.528 174.261 135.461 174.224C135.397 174.189 135.321 174.155 135.233 174.12C135.145 174.085 135.052 174.044 134.953 173.996C134.87 173.959 134.792 173.901 134.717 173.824C134.645 173.747 134.609 173.645 134.609 173.52C134.609 173.352 134.672 173.221 134.797 173.128C134.922 173.032 135.101 172.984 135.333 172.984C135.434 172.984 135.536 172.993 135.637 173.012C135.738 173.028 135.81 173.041 135.853 173.052V173.348C135.821 173.335 135.752 173.309 135.645 173.272C135.541 173.235 135.424 173.216 135.293 173.216C135.205 173.216 135.118 173.235 135.033 173.272C134.95 173.309 134.909 173.369 134.909 173.452C134.909 173.511 134.922 173.565 134.949 173.616C134.978 173.664 135.022 173.705 135.081 173.74C135.137 173.772 135.216 173.805 135.317 173.84C135.418 173.875 135.517 173.919 135.613 173.972C135.712 174.028 135.797 174.096 135.869 174.176C135.944 174.256 135.981 174.357 135.981 174.48ZM96.308 177.292H95.732V178.348C95.732 178.409 95.7347 178.468 95.74 178.524C95.7453 178.577 95.76 178.625 95.784 178.668C95.8053 178.711 95.8387 178.744 95.884 178.768C95.9293 178.792 95.9907 178.804 96.068 178.804C96.1133 178.804 96.156 178.803 96.196 178.8C96.236 178.795 96.2693 178.788 96.296 178.78V179.028C96.2453 179.036 96.196 179.04 96.148 179.04C96.1027 179.043 96.0573 179.044 96.012 179.044C95.8147 179.044 95.668 179.004 95.572 178.924C95.476 178.841 95.428 178.716 95.428 178.548V177.292H95.08V177.056H95.428V176.576L95.732 176.392V177.056H96.308V177.292ZM98.3179 178.996H98.0219V177.692C98.0219 177.649 98.0152 177.603 98.0019 177.552C97.9912 177.499 97.9712 177.449 97.9419 177.404C97.9125 177.359 97.8725 177.321 97.8219 177.292C97.7712 177.26 97.7085 177.244 97.6339 177.244C97.5059 177.244 97.3859 177.303 97.2739 177.42C97.1619 177.535 97.0832 177.676 97.0379 177.844C97.0245 177.892 97.0152 177.94 97.0099 177.988C97.0045 178.036 97.0019 178.084 97.0019 178.132V178.996H96.7139V176.152H97.0019V177.504H97.0099C97.0205 177.469 97.0405 177.423 97.0699 177.364C97.1019 177.305 97.1445 177.248 97.1979 177.192C97.2512 177.136 97.3179 177.088 97.3979 177.048C97.4779 177.008 97.5739 176.988 97.6859 176.988C97.7579 176.988 97.8312 176.999 97.9059 177.02C97.9805 177.039 98.0485 177.071 98.1099 177.116C98.1712 177.159 98.2205 177.217 98.2579 177.292C98.2979 177.364 98.3179 177.452 98.3179 177.556V178.996ZM99.2496 176.556H98.8656V176.172H99.2496V176.556ZM99.2216 179.012H98.9016V177.052H99.2216V179.012ZM101.047 178.48C101.047 178.565 101.034 178.643 101.007 178.712C100.981 178.781 100.937 178.84 100.875 178.888C100.814 178.939 100.731 178.977 100.627 179.004C100.523 179.031 100.394 179.044 100.239 179.044C100.111 179.044 99.9954 179.035 99.8914 179.016C99.7901 178.997 99.7154 178.976 99.6674 178.952V178.644C99.6781 178.649 99.6994 178.661 99.7314 178.68C99.7661 178.696 99.8074 178.713 99.8554 178.732C99.9034 178.751 99.9581 178.768 100.019 178.784C100.083 178.797 100.153 178.804 100.227 178.804C100.289 178.804 100.35 178.8 100.411 178.792C100.473 178.781 100.527 178.765 100.575 178.744C100.623 178.72 100.662 178.689 100.691 178.652C100.723 178.615 100.739 178.568 100.739 178.512C100.739 178.445 100.721 178.391 100.683 178.348C100.646 178.303 100.594 178.261 100.527 178.224C100.463 178.189 100.387 178.155 100.299 178.12C100.211 178.085 100.118 178.044 100.019 177.996C99.9368 177.959 99.8581 177.901 99.7834 177.824C99.7114 177.747 99.6754 177.645 99.6754 177.52C99.6754 177.352 99.7381 177.221 99.8634 177.128C99.9888 177.032 100.167 176.984 100.399 176.984C100.501 176.984 100.602 176.993 100.703 177.012C100.805 177.028 100.877 177.041 100.919 177.052V177.348C100.887 177.335 100.818 177.309 100.711 177.272C100.607 177.235 100.49 177.216 100.359 177.216C100.271 177.216 100.185 177.235 100.099 177.272C100.017 177.309 99.9754 177.369 99.9754 177.452C99.9754 177.511 99.9888 177.565 100.015 177.616C100.045 177.664 100.089 177.705 100.147 177.74C100.203 177.772 100.282 177.805 100.383 177.84C100.485 177.875 100.583 177.919 100.679 177.972C100.778 178.028 100.863 178.096 100.935 178.176C101.01 178.256 101.047 178.357 101.047 178.48ZM103.132 176.556H102.748V176.172H103.132V176.556ZM103.104 179.012H102.784V177.052H103.104V179.012ZM104.93 178.48C104.93 178.565 104.917 178.643 104.89 178.712C104.864 178.781 104.82 178.84 104.758 178.888C104.697 178.939 104.614 178.977 104.51 179.004C104.406 179.031 104.277 179.044 104.122 179.044C103.994 179.044 103.878 179.035 103.774 179.016C103.673 178.997 103.598 178.976 103.55 178.952V178.644C103.561 178.649 103.582 178.661 103.614 178.68C103.649 178.696 103.69 178.713 103.738 178.732C103.786 178.751 103.841 178.768 103.902 178.784C103.966 178.797 104.036 178.804 104.11 178.804C104.172 178.804 104.233 178.8 104.294 178.792C104.356 178.781 104.41 178.765 104.458 178.744C104.506 178.72 104.545 178.689 104.574 178.652C104.606 178.615 104.622 178.568 104.622 178.512C104.622 178.445 104.604 178.391 104.566 178.348C104.529 178.303 104.477 178.261 104.41 178.224C104.346 178.189 104.27 178.155 104.182 178.12C104.094 178.085 104.001 178.044 103.902 177.996C103.82 177.959 103.741 177.901 103.666 177.824C103.594 177.747 103.558 177.645 103.558 177.52C103.558 177.352 103.621 177.221 103.746 177.128C103.872 177.032 104.05 176.984 104.282 176.984C104.384 176.984 104.485 176.993 104.586 177.012C104.688 177.028 104.76 177.041 104.802 177.052V177.348C104.77 177.335 104.701 177.309 104.594 177.272C104.49 177.235 104.373 177.216 104.242 177.216C104.154 177.216 104.068 177.235 103.982 177.272C103.9 177.309 103.858 177.369 103.858 177.452C103.858 177.511 103.872 177.565 103.898 177.616C103.928 177.664 103.972 177.705 104.03 177.74C104.086 177.772 104.165 177.805 104.266 177.84C104.368 177.875 104.466 177.919 104.562 177.972C104.661 178.028 104.746 178.096 104.818 178.176C104.893 178.256 104.93 178.357 104.93 178.48ZM108.295 178.04H106.871C106.879 178.157 106.913 178.279 106.971 178.404C107.03 178.527 107.135 178.629 107.287 178.712C107.319 178.733 107.37 178.752 107.439 178.768C107.511 178.784 107.593 178.793 107.683 178.796C107.771 178.796 107.863 178.787 107.959 178.768C108.058 178.749 108.151 178.713 108.239 178.66V178.896C108.122 178.957 107.997 178.997 107.863 179.016C107.733 179.037 107.603 179.041 107.475 179.028C107.347 179.015 107.229 178.987 107.119 178.944C107.01 178.899 106.921 178.84 106.851 178.768C106.761 178.68 106.686 178.569 106.627 178.436C106.569 178.3 106.539 178.143 106.539 177.964C106.539 177.676 106.623 177.441 106.791 177.26C106.962 177.076 107.202 176.984 107.511 176.984C107.642 176.984 107.757 177.009 107.855 177.06C107.954 177.111 108.035 177.176 108.099 177.256C108.163 177.336 108.211 177.427 108.243 177.528C108.278 177.627 108.295 177.727 108.295 177.828V178.04ZM107.971 177.804C107.971 177.745 107.963 177.683 107.947 177.616C107.934 177.547 107.909 177.483 107.871 177.424C107.837 177.365 107.789 177.317 107.727 177.28C107.666 177.24 107.59 177.22 107.499 177.22C107.329 177.22 107.185 177.272 107.067 177.376C106.953 177.477 106.886 177.62 106.867 177.804H107.971ZM110.353 178.988H110.013L109.437 178.196L108.849 178.988H108.509L109.261 177.96L108.593 177.028H108.929L109.437 177.716L109.945 177.028H110.281L109.605 177.96L110.353 178.988ZM112.171 178.984H111.867V178.736H111.859C111.845 178.757 111.819 178.785 111.779 178.82C111.739 178.852 111.687 178.884 111.623 178.916C111.559 178.948 111.484 178.975 111.399 178.996C111.316 179.017 111.225 179.028 111.127 179.028C111.057 179.028 110.989 179.017 110.923 178.996C110.859 178.972 110.8 178.937 110.747 178.892C110.693 178.847 110.651 178.792 110.619 178.728C110.587 178.664 110.571 178.592 110.571 178.512C110.571 178.368 110.616 178.243 110.707 178.136C110.797 178.027 110.907 177.952 111.035 177.912C111.115 177.888 111.197 177.871 111.283 177.86C111.368 177.849 111.449 177.844 111.527 177.844C111.601 177.841 111.668 177.841 111.727 177.844C111.788 177.844 111.835 177.844 111.867 177.844V177.648C111.867 177.616 111.861 177.575 111.851 177.524C111.84 177.473 111.819 177.425 111.787 177.38C111.755 177.335 111.708 177.296 111.647 177.264C111.588 177.229 111.509 177.212 111.411 177.212C111.283 177.212 111.179 177.241 111.099 177.3C111.019 177.359 110.979 177.436 110.979 177.532H110.627C110.627 177.465 110.643 177.4 110.675 177.336C110.709 177.269 110.76 177.209 110.827 177.156C110.893 177.103 110.975 177.06 111.071 177.028C111.169 176.993 111.283 176.976 111.411 176.976C111.667 176.976 111.857 177.04 111.983 177.168C112.108 177.293 112.171 177.448 112.171 177.632V178.984ZM111.867 178.252V178.048C111.797 178.045 111.713 178.045 111.615 178.048C111.519 178.048 111.423 178.059 111.327 178.08C111.281 178.093 111.233 178.111 111.183 178.132C111.135 178.151 111.089 178.176 111.047 178.208C111.004 178.24 110.969 178.279 110.943 178.324C110.916 178.367 110.903 178.416 110.903 178.472C110.903 178.6 110.944 178.687 111.027 178.732C111.109 178.775 111.199 178.796 111.295 178.796C111.335 178.796 111.38 178.788 111.431 178.772C111.484 178.756 111.537 178.733 111.591 178.704C111.641 178.675 111.688 178.64 111.731 178.6C111.773 178.56 111.805 178.515 111.827 178.464C111.843 178.432 111.853 178.399 111.859 178.364C111.864 178.329 111.867 178.292 111.867 178.252ZM115.366 178.992H115.086V177.904C115.086 177.835 115.083 177.763 115.078 177.688C115.072 177.611 115.059 177.541 115.038 177.48C115.014 177.419 114.976 177.368 114.926 177.328C114.875 177.285 114.804 177.264 114.714 177.264C114.599 177.264 114.496 177.325 114.406 177.448C114.315 177.568 114.25 177.716 114.21 177.892C114.202 177.948 114.195 178 114.19 178.048C114.184 178.093 114.182 178.139 114.182 178.184V178.992H113.902V177.904C113.902 177.835 113.898 177.763 113.89 177.688C113.884 177.611 113.87 177.541 113.846 177.48C113.822 177.419 113.784 177.368 113.734 177.328C113.686 177.285 113.618 177.264 113.53 177.264C113.45 177.264 113.374 177.295 113.302 177.356C113.23 177.417 113.17 177.497 113.122 177.596C113.082 177.687 113.051 177.78 113.03 177.876C113.008 177.969 112.998 178.072 112.998 178.184V178.992H112.718V177.032H112.998V177.484H113.006C113.016 177.444 113.035 177.396 113.062 177.34C113.088 177.281 113.126 177.227 113.174 177.176C113.219 177.123 113.276 177.077 113.346 177.04C113.418 177.003 113.502 176.984 113.598 176.984C113.758 176.984 113.883 177.024 113.974 177.104C114.067 177.181 114.134 177.292 114.174 177.436H114.182C114.187 177.409 114.202 177.372 114.226 177.324C114.25 177.273 114.286 177.223 114.334 177.172C114.382 177.121 114.442 177.077 114.514 177.04C114.586 177.003 114.674 176.984 114.778 176.984C114.946 176.984 115.086 177.036 115.198 177.14C115.31 177.241 115.366 177.392 115.366 177.592V178.992ZM117.644 178.028C117.644 178.156 117.626 178.281 117.588 178.404C117.554 178.524 117.502 178.631 117.432 178.724C117.36 178.817 117.272 178.892 117.168 178.948C117.067 179.004 116.948 179.032 116.812 179.032C116.652 179.032 116.526 178.993 116.432 178.916C116.342 178.839 116.276 178.745 116.236 178.636H116.228V179.748H115.936V177.024H116.228V177.396H116.236C116.252 177.348 116.276 177.3 116.308 177.252C116.34 177.201 116.382 177.156 116.432 177.116C116.48 177.076 116.536 177.044 116.6 177.02C116.667 176.993 116.744 176.98 116.832 176.98C116.944 176.98 117.05 177.004 117.148 177.052C117.247 177.097 117.332 177.164 117.404 177.252C117.479 177.34 117.538 177.449 117.58 177.58C117.623 177.711 117.644 177.86 117.644 178.028ZM117.324 178.024C117.324 177.917 117.312 177.815 117.288 177.716C117.267 177.617 117.235 177.532 117.192 177.46C117.147 177.385 117.091 177.327 117.024 177.284C116.96 177.239 116.884 177.216 116.796 177.216C116.644 177.216 116.515 177.287 116.408 177.428C116.302 177.569 116.248 177.756 116.248 177.988C116.248 178.068 116.258 178.155 116.276 178.248C116.295 178.341 116.327 178.429 116.372 178.512C116.415 178.592 116.471 178.659 116.54 178.712C116.612 178.765 116.7 178.792 116.804 178.792C116.892 178.792 116.968 178.771 117.032 178.728C117.099 178.685 117.154 178.629 117.196 178.56C117.239 178.488 117.271 178.407 117.292 178.316C117.314 178.223 117.324 178.125 117.324 178.024ZM118.401 179H118.097V176.16H118.401V179ZM120.639 178.04H119.215C119.223 178.157 119.256 178.279 119.315 178.404C119.374 178.527 119.479 178.629 119.631 178.712C119.663 178.733 119.714 178.752 119.783 178.768C119.855 178.784 119.936 178.793 120.027 178.796C120.115 178.796 120.207 178.787 120.303 178.768C120.402 178.749 120.495 178.713 120.583 178.66V178.896C120.466 178.957 120.34 178.997 120.207 179.016C120.076 179.037 119.947 179.041 119.819 179.028C119.691 179.015 119.572 178.987 119.463 178.944C119.354 178.899 119.264 178.84 119.195 178.768C119.104 178.68 119.03 178.569 118.971 178.436C118.912 178.3 118.883 178.143 118.883 177.964C118.883 177.676 118.967 177.441 119.135 177.26C119.306 177.076 119.546 176.984 119.855 176.984C119.986 176.984 120.1 177.009 120.199 177.06C120.298 177.111 120.379 177.176 120.443 177.256C120.507 177.336 120.555 177.427 120.587 177.528C120.622 177.627 120.639 177.727 120.639 177.828V178.04ZM120.315 177.804C120.315 177.745 120.307 177.683 120.291 177.616C120.278 177.547 120.252 177.483 120.215 177.424C120.18 177.365 120.132 177.317 120.071 177.28C120.01 177.24 119.934 177.22 119.843 177.22C119.672 177.22 119.528 177.272 119.411 177.376C119.296 177.477 119.23 177.62 119.211 177.804H120.315ZM123.913 178.984H123.609V178.736H123.601C123.587 178.757 123.561 178.785 123.521 178.82C123.481 178.852 123.429 178.884 123.365 178.916C123.301 178.948 123.226 178.975 123.141 178.996C123.058 179.017 122.967 179.028 122.869 179.028C122.799 179.028 122.731 179.017 122.665 178.996C122.601 178.972 122.542 178.937 122.489 178.892C122.435 178.847 122.393 178.792 122.361 178.728C122.329 178.664 122.313 178.592 122.313 178.512C122.313 178.368 122.358 178.243 122.449 178.136C122.539 178.027 122.649 177.952 122.777 177.912C122.857 177.888 122.939 177.871 123.025 177.86C123.11 177.849 123.191 177.844 123.269 177.844C123.343 177.841 123.41 177.841 123.469 177.844C123.53 177.844 123.577 177.844 123.609 177.844V177.648C123.609 177.616 123.603 177.575 123.593 177.524C123.582 177.473 123.561 177.425 123.529 177.38C123.497 177.335 123.45 177.296 123.389 177.264C123.33 177.229 123.251 177.212 123.153 177.212C123.025 177.212 122.921 177.241 122.841 177.3C122.761 177.359 122.721 177.436 122.721 177.532H122.369C122.369 177.465 122.385 177.4 122.417 177.336C122.451 177.269 122.502 177.209 122.569 177.156C122.635 177.103 122.717 177.06 122.813 177.028C122.911 176.993 123.025 176.976 123.153 176.976C123.409 176.976 123.599 177.04 123.725 177.168C123.85 177.293 123.913 177.448 123.913 177.632V178.984ZM123.609 178.252V178.048C123.539 178.045 123.455 178.045 123.357 178.048C123.261 178.048 123.165 178.059 123.069 178.08C123.023 178.093 122.975 178.111 122.925 178.132C122.877 178.151 122.831 178.176 122.789 178.208C122.746 178.24 122.711 178.279 122.685 178.324C122.658 178.367 122.645 178.416 122.645 178.472C122.645 178.6 122.686 178.687 122.769 178.732C122.851 178.775 122.941 178.796 123.037 178.796C123.077 178.796 123.122 178.788 123.173 178.772C123.226 178.756 123.279 178.733 123.333 178.704C123.383 178.675 123.43 178.64 123.473 178.6C123.515 178.56 123.547 178.515 123.569 178.464C123.585 178.432 123.595 178.399 123.601 178.364C123.606 178.329 123.609 178.292 123.609 178.252ZM124.784 179H124.48V176.16H124.784V179ZM127.142 178.032C127.142 178.371 127.055 178.624 126.882 178.792C126.711 178.96 126.494 179.044 126.23 179.044C126.051 179.044 125.906 179.016 125.794 178.96C125.684 178.901 125.598 178.828 125.534 178.74C125.472 178.649 125.431 178.551 125.41 178.444C125.388 178.337 125.378 178.235 125.378 178.136V176.156H125.67V177.368H125.678C125.688 177.341 125.708 177.307 125.738 177.264C125.77 177.221 125.811 177.18 125.862 177.14C125.915 177.1 125.978 177.065 126.05 177.036C126.122 177.007 126.206 176.992 126.302 176.992C126.51 176.992 126.68 177.045 126.814 177.152C126.95 177.256 127.043 177.408 127.094 177.608C127.11 177.672 127.122 177.739 127.13 177.808C127.138 177.877 127.142 177.952 127.142 178.032ZM126.806 178.052C126.806 178.007 126.803 177.961 126.798 177.916C126.795 177.868 126.79 177.816 126.782 177.76C126.766 177.624 126.716 177.504 126.634 177.4C126.554 177.293 126.431 177.24 126.266 177.24C126.175 177.24 126.094 177.268 126.022 177.324C125.95 177.38 125.89 177.451 125.842 177.536C125.791 177.621 125.752 177.717 125.726 177.824C125.702 177.931 125.69 178.036 125.69 178.14C125.69 178.22 125.699 178.301 125.718 178.384C125.736 178.464 125.768 178.536 125.814 178.6C125.856 178.664 125.911 178.716 125.978 178.756C126.047 178.796 126.131 178.816 126.23 178.816C126.414 178.816 126.555 178.744 126.654 178.6C126.755 178.453 126.806 178.271 126.806 178.052ZM129.245 178.984H128.969V178.524H128.961C128.918 178.663 128.834 178.781 128.709 178.88C128.584 178.979 128.409 179.028 128.185 179.028C128.097 179.028 128.016 179.013 127.941 178.984C127.866 178.952 127.802 178.908 127.749 178.852C127.696 178.799 127.653 178.736 127.621 178.664C127.592 178.589 127.577 178.509 127.577 178.424V177.024H127.869V178.272C127.869 178.331 127.874 178.391 127.885 178.452C127.898 178.511 127.921 178.564 127.953 178.612C127.985 178.66 128.029 178.699 128.085 178.728C128.141 178.757 128.213 178.772 128.301 178.772C128.458 178.772 128.592 178.712 128.701 178.592C128.813 178.472 128.889 178.328 128.929 178.16C128.937 178.109 128.944 178.059 128.949 178.008C128.954 177.957 128.958 177.907 128.961 177.856V177.024H129.245V178.984ZM132.491 178.992H132.211V177.904C132.211 177.835 132.208 177.763 132.203 177.688C132.197 177.611 132.184 177.541 132.163 177.48C132.139 177.419 132.101 177.368 132.051 177.328C132 177.285 131.929 177.264 131.839 177.264C131.724 177.264 131.621 177.325 131.531 177.448C131.44 177.568 131.375 177.716 131.335 177.892C131.327 177.948 131.32 178 131.315 178.048C131.309 178.093 131.307 178.139 131.307 178.184V178.992H131.027V177.904C131.027 177.835 131.023 177.763 131.015 177.688C131.009 177.611 130.995 177.541 130.971 177.48C130.947 177.419 130.909 177.368 130.859 177.328C130.811 177.285 130.743 177.264 130.655 177.264C130.575 177.264 130.499 177.295 130.427 177.356C130.355 177.417 130.295 177.497 130.247 177.596C130.207 177.687 130.176 177.78 130.155 177.876C130.133 177.969 130.123 178.072 130.123 178.184V178.992H129.843V177.032H130.123V177.484H130.131C130.141 177.444 130.16 177.396 130.187 177.34C130.213 177.281 130.251 177.227 130.299 177.176C130.344 177.123 130.401 177.077 130.471 177.04C130.543 177.003 130.627 176.984 130.723 176.984C130.883 176.984 131.008 177.024 131.099 177.104C131.192 177.181 131.259 177.292 131.299 177.436H131.307C131.312 177.409 131.327 177.372 131.351 177.324C131.375 177.273 131.411 177.223 131.459 177.172C131.507 177.121 131.567 177.077 131.639 177.04C131.711 177.003 131.799 176.984 131.903 176.984C132.071 176.984 132.211 177.036 132.323 177.14C132.435 177.241 132.491 177.392 132.491 177.592V178.992Z" fill="black"/>
<path d="M132.724 12.488C133.252 13.336 133.516 14.408 133.516 15.704C133.516 17 133.252 18.072 132.724 18.92C132.196 19.768 131.448 20.192 130.48 20.192C129.512 20.192 128.764 19.768 128.236 18.92C127.708 18.072 127.444 17 127.444 15.704C127.444 14.408 127.708 13.336 128.236 12.488C128.764 11.64 129.512 11.216 130.48 11.216C131.448 11.216 132.196 11.64 132.724 12.488ZM130.48 11.84C129.72 11.84 129.34 13.128 129.34 15.704C129.34 18.272 129.72 19.556 130.48 19.556C131.232 19.556 131.608 18.272 131.608 15.704C131.608 13.128 131.232 11.84 130.48 11.84ZM137.861 14.6C138.541 14.6 139.121 14.832 139.601 15.296C140.081 15.76 140.321 16.388 140.321 17.18C140.321 18.156 140.049 18.904 139.505 19.424C138.969 19.936 138.237 20.192 137.309 20.192C136.429 20.192 135.725 19.884 135.197 19.268C134.669 18.652 134.405 17.808 134.405 16.736C134.405 15.928 134.537 15.2 134.801 14.552C135.065 13.896 135.385 13.376 135.761 12.992C136.145 12.6 136.577 12.268 137.057 11.996C137.545 11.724 137.981 11.536 138.365 11.432C138.757 11.32 139.121 11.248 139.457 11.216C139.681 11.192 139.809 11.24 139.841 11.36C139.881 11.512 139.789 11.632 139.565 11.72C137.989 12.344 136.977 13.408 136.529 14.912C136.873 14.704 137.317 14.6 137.861 14.6ZM137.345 15.296C136.953 15.296 136.681 15.452 136.529 15.764C136.377 16.076 136.301 16.556 136.301 17.204C136.301 17.932 136.393 18.508 136.577 18.932C136.769 19.348 137.037 19.556 137.381 19.556C137.773 19.556 138.045 19.384 138.197 19.04C138.349 18.688 138.425 18.204 138.425 17.588C138.425 16.06 138.065 15.296 137.345 15.296Z" fill="black"/>
<path d="M132.572 31.616C132.684 31.656 132.74 31.728 132.74 31.832C132.74 31.944 132.68 32 132.56 32H129.128C129.008 32 128.948 31.944 128.948 31.832C128.948 31.728 129.004 31.656 129.116 31.616L129.896 31.268V24.644L129.14 24.728C128.996 24.744 128.904 24.692 128.864 24.572C128.832 24.452 128.88 24.364 129.008 24.308L131.336 23.288C131.64 23.152 131.792 23.224 131.792 23.504V31.268L132.572 31.616ZM139.87 29.42C139.974 29.46 140.018 29.536 140.002 29.648L139.69 31.784C139.666 31.928 139.578 32 139.426 32H134.146C133.97 32 133.862 31.94 133.822 31.82C133.79 31.7 133.842 31.56 133.978 31.4C134.746 30.56 135.438 29.744 136.054 28.952C136.574 28.288 136.97 27.708 137.242 27.212C137.514 26.716 137.65 26.248 137.65 25.808C137.65 25.32 137.534 24.944 137.302 24.68C137.078 24.416 136.766 24.284 136.366 24.284C136.03 24.284 135.746 24.38 135.514 24.572C135.282 24.764 135.046 25.048 134.806 25.424C134.694 25.6 134.55 25.652 134.374 25.58C134.254 25.532 134.206 25.42 134.229 25.244C134.318 24.692 134.602 24.216 135.082 23.816C135.57 23.416 136.178 23.216 136.906 23.216C137.698 23.216 138.334 23.44 138.814 23.888C139.302 24.328 139.546 24.884 139.546 25.556C139.546 26.116 139.442 26.616 139.234 27.056C139.034 27.496 138.714 27.96 138.274 28.448C137.802 28.976 137.15 29.676 136.318 30.548H138.994L139.63 29.504C139.662 29.44 139.726 29.408 139.822 29.408C139.846 29.408 139.862 29.412 139.87 29.42Z" fill="black"/>
<path d="M101.12 116.784L101.168 119.664C101.168 119.803 101.099 119.888 100.96 119.92C100.949 119.92 100.939 119.925 100.928 119.936C100.917 119.936 100.907 119.936 100.896 119.936C100.8 119.936 100.725 119.883 100.672 119.776L99.6 117.376H97.168V127.136L97.856 127.488C97.9947 127.552 98.064 127.648 98.064 127.776C98.064 127.925 97.984 128 97.824 128H93.968C93.808 128 93.728 127.925 93.728 127.776C93.728 127.648 93.7973 127.552 93.936 127.488L94.624 127.136V117.376H92.192L91.12 119.776C91.0667 119.883 90.992 119.936 90.896 119.936H90.864L90.832 119.92C90.6933 119.888 90.624 119.803 90.624 119.664L90.672 116.784C90.672 116.624 90.7627 116.544 90.944 116.544H100.848C101.029 116.544 101.12 116.624 101.12 116.784ZM106.117 127.488C106.267 127.552 106.341 127.648 106.341 127.776C106.341 127.925 106.261 128 106.101 128H102.517C102.357 128 102.277 127.925 102.277 127.776C102.277 127.648 102.352 127.552 102.501 127.488L103.125 127.168V121.264H102.565C102.373 121.264 102.277 121.184 102.277 121.024C102.277 120.875 102.363 120.779 102.533 120.736L105.109 120.016C105.365 119.952 105.493 120.037 105.493 120.272V127.168L106.117 127.488ZM105.157 118.176C104.912 118.421 104.603 118.544 104.229 118.544C103.856 118.544 103.541 118.421 103.285 118.176C103.04 117.931 102.917 117.621 102.917 117.248C102.917 116.875 103.04 116.565 103.285 116.32C103.541 116.064 103.856 115.936 104.229 115.936C104.603 115.936 104.912 116.064 105.157 116.32C105.413 116.565 105.541 116.875 105.541 117.248C105.541 117.621 105.413 117.931 105.157 118.176ZM112.844 126.64C112.94 126.725 112.929 126.864 112.812 127.056C112.588 127.387 112.22 127.669 111.708 127.904C111.196 128.139 110.668 128.256 110.124 128.256C109.494 128.256 109.041 128.117 108.764 127.84C108.497 127.552 108.364 127.125 108.364 126.56V121.088H107.26V120.24H108.364V118.688L110.316 117.776C110.412 117.723 110.502 117.717 110.588 117.76C110.673 117.803 110.716 117.888 110.716 118.016V120.24H112.732V121.088H110.716V126.224C110.716 126.736 110.881 126.992 111.212 126.992C111.617 126.992 112.054 126.88 112.524 126.656C112.673 126.581 112.78 126.576 112.844 126.64ZM117.586 127.488C117.735 127.552 117.81 127.648 117.81 127.776C117.81 127.925 117.73 128 117.57 128H113.986C113.826 128 113.746 127.925 113.746 127.776C113.746 127.648 113.821 127.552 113.97 127.488L114.594 127.168V116.88H114.034C113.842 116.88 113.746 116.8 113.746 116.64C113.746 116.491 113.831 116.395 114.002 116.352L116.578 115.616C116.685 115.595 116.775 115.605 116.85 115.648C116.925 115.691 116.962 115.771 116.962 115.888V127.168L117.586 127.488ZM125.353 124.128H121.353C121.385 125.013 121.614 125.712 122.041 126.224C122.478 126.736 122.99 126.992 123.577 126.992C124.377 126.992 125.075 126.731 125.673 126.208C125.769 126.123 125.865 126.107 125.961 126.16C126.057 126.213 126.078 126.331 126.025 126.512C125.875 126.981 125.518 127.392 124.953 127.744C124.387 128.085 123.689 128.256 122.857 128.256C121.843 128.256 120.942 127.888 120.153 127.152C119.374 126.416 118.985 125.461 118.985 124.288C118.985 123.019 119.363 121.989 120.121 121.2C120.878 120.4 121.822 120 122.953 120C123.955 120 124.766 120.325 125.385 120.976C126.003 121.616 126.312 122.443 126.312 123.456C126.312 123.733 126.254 123.915 126.137 124C126.019 124.085 125.758 124.128 125.353 124.128ZM121.369 123.28H124.121C124.121 122.523 123.993 121.915 123.737 121.456C123.481 120.987 123.134 120.752 122.697 120.752C121.886 120.752 121.443 121.595 121.369 123.28Z" fill="black"/>
<path d="M10 0.5H64.5V223.5H10C4.7533 223.5 0.5 219.247 0.5 214V10L0.512695 9.51074C0.767339 4.49142 4.91739 0.5 10 0.5Z" fill="#D8D8D8" stroke="#8B8B8B"/>
</svg>
