<svg width="149" height="224" viewBox="0 0 149 224" fill="none" xmlns="http://www.w3.org/2000/svg">
<rect width="149" height="224" rx="10" fill="white"/>
<path d="M25.51 57.382L25.564 60.622C25.564 60.778 25.486 60.874 25.33 60.91C25.318 60.91 25.306 60.916 25.294 60.928C25.282 60.928 25.27 60.928 25.258 60.928C25.15 60.928 25.066 60.868 25.006 60.748L23.8 58.048H21.064V69.028L21.838 69.424C21.994 69.496 22.072 69.604 22.072 69.748C22.072 69.916 21.982 70 21.802 70H17.464C17.284 70 17.194 69.916 17.194 69.748C17.194 69.604 17.272 69.496 17.428 69.424L18.202 69.028V58.048H15.466L14.26 60.748C14.2 60.868 14.116 60.928 14.008 60.928H13.972L13.936 60.91C13.78 60.874 13.702 60.778 13.702 60.622L13.756 57.382C13.756 57.202 13.858 57.112 14.062 57.112H25.204C25.408 57.112 25.51 57.202 25.51 57.382ZM31.1319 69.424C31.2999 69.496 31.3839 69.604 31.3839 69.748C31.3839 69.916 31.2939 70 31.1139 70H27.0819C26.9019 70 26.8119 69.916 26.8119 69.748C26.8119 69.604 26.8959 69.496 27.0639 69.424L27.7659 69.064V62.422H27.1359C26.9199 62.422 26.8119 62.332 26.8119 62.152C26.8119 61.984 26.9079 61.876 27.0999 61.828L29.9979 61.018C30.2859 60.946 30.4299 61.042 30.4299 61.306V69.064L31.1319 69.424ZM30.0519 58.948C29.7759 59.224 29.4279 59.362 29.0079 59.362C28.5879 59.362 28.2339 59.224 27.9459 58.948C27.6699 58.672 27.5319 58.324 27.5319 57.904C27.5319 57.484 27.6699 57.136 27.9459 56.86C28.2339 56.572 28.5879 56.428 29.0079 56.428C29.4279 56.428 29.7759 56.572 30.0519 56.86C30.3399 57.136 30.4839 57.484 30.4839 57.904C30.4839 58.324 30.3399 58.672 30.0519 58.948ZM38.6992 68.47C38.8072 68.566 38.7952 68.722 38.6632 68.938C38.4112 69.31 37.9972 69.628 37.4212 69.892C36.8452 70.156 36.2512 70.288 35.6392 70.288C34.9312 70.288 34.4212 70.132 34.1092 69.82C33.8092 69.496 33.6592 69.016 33.6592 68.38V62.224H32.4172V61.27H33.6592V59.524L35.8552 58.498C35.9632 58.438 36.0652 58.432 36.1612 58.48C36.2572 58.528 36.3052 58.624 36.3052 58.768V61.27H38.5732V62.224H36.3052V68.002C36.3052 68.578 36.4912 68.866 36.8632 68.866C37.3192 68.866 37.8112 68.74 38.3392 68.488C38.5072 68.404 38.6272 68.398 38.6992 68.47ZM44.0343 69.424C44.2023 69.496 44.2863 69.604 44.2863 69.748C44.2863 69.916 44.1963 70 44.0163 70H39.9843C39.8043 70 39.7143 69.916 39.7143 69.748C39.7143 69.604 39.7983 69.496 39.9663 69.424L40.6683 69.064V57.49H40.0383C39.8223 57.49 39.7143 57.4 39.7143 57.22C39.7143 57.052 39.8103 56.944 40.0023 56.896L42.9003 56.068C43.0203 56.044 43.1223 56.056 43.2063 56.104C43.2903 56.152 43.3323 56.242 43.3323 56.374V69.064L44.0343 69.424ZM52.7716 65.644H48.2716C48.3076 66.64 48.5656 67.426 49.0456 68.002C49.5376 68.578 50.1136 68.866 50.7736 68.866C51.6736 68.866 52.4596 68.572 53.1316 67.984C53.2396 67.888 53.3476 67.87 53.4556 67.93C53.5636 67.99 53.5876 68.122 53.5276 68.326C53.3596 68.854 52.9576 69.316 52.3216 69.712C51.6856 70.096 50.8996 70.288 49.9636 70.288C48.8236 70.288 47.8096 69.874 46.9216 69.046C46.0456 68.218 45.6076 67.144 45.6076 65.824C45.6076 64.396 46.0336 63.238 46.8856 62.35C47.7376 61.45 48.7996 61 50.0716 61C51.1996 61 52.1116 61.366 52.8076 62.098C53.5036 62.818 53.8516 63.748 53.8516 64.888C53.8516 65.2 53.7856 65.404 53.6536 65.5C53.5216 65.596 53.2276 65.644 52.7716 65.644ZM48.2896 64.69H51.3856C51.3856 63.838 51.2416 63.154 50.9536 62.638C50.6656 62.11 50.2756 61.846 49.7836 61.846C48.8716 61.846 48.3736 62.794 48.2896 64.69ZM72.2692 69.424C72.4372 69.496 72.5212 69.604 72.5212 69.748C72.5212 69.916 72.4312 70 72.2512 70H67.8412C67.6612 70 67.5712 69.916 67.5712 69.748C67.5712 69.604 67.6492 69.496 67.8052 69.424L68.6152 69.01V63.844H63.8812V69.01L64.6732 69.424C64.8412 69.496 64.9252 69.604 64.9252 69.748C64.9252 69.916 64.8352 70 64.6552 70H60.2452C60.0652 70 59.9752 69.916 59.9752 69.748C59.9752 69.604 60.0592 69.496 60.2272 69.424L61.0372 69.01V58.084L60.2272 57.688C60.0592 57.616 59.9752 57.508 59.9752 57.364C59.9752 57.196 60.0652 57.112 60.2452 57.112H64.6552C64.8352 57.112 64.9252 57.196 64.9252 57.364C64.9252 57.508 64.8412 57.616 64.6732 57.688L63.8812 58.084V62.89H68.6152V58.084L67.8052 57.688C67.6492 57.616 67.5712 57.508 67.5712 57.364C67.5712 57.196 67.6612 57.112 67.8412 57.112H72.2512C72.4312 57.112 72.5212 57.196 72.5212 57.364C72.5212 57.508 72.4372 57.616 72.2692 57.688L71.4592 58.084V69.01L72.2692 69.424ZM81.4415 65.644H76.9415C76.9775 66.64 77.2355 67.426 77.7155 68.002C78.2075 68.578 78.7835 68.866 79.4435 68.866C80.3435 68.866 81.1295 68.572 81.8015 67.984C81.9095 67.888 82.0175 67.87 82.1255 67.93C82.2335 67.99 82.2575 68.122 82.1975 68.326C82.0295 68.854 81.6275 69.316 80.9915 69.712C80.3555 70.096 79.5695 70.288 78.6335 70.288C77.4935 70.288 76.4795 69.874 75.5915 69.046C74.7155 68.218 74.2775 67.144 74.2775 65.824C74.2775 64.396 74.7035 63.238 75.5555 62.35C76.4075 61.45 77.4695 61 78.7415 61C79.8695 61 80.7815 61.366 81.4775 62.098C82.1735 62.818 82.5215 63.748 82.5215 64.888C82.5215 65.2 82.4555 65.404 82.3235 65.5C82.1915 65.596 81.8975 65.644 81.4415 65.644ZM76.9595 64.69H80.0555C80.0555 63.838 79.9115 63.154 79.6235 62.638C79.3355 62.11 78.9455 61.846 78.4535 61.846C77.5415 61.846 77.0435 62.794 76.9595 64.69ZM89.9939 61C90.4979 61 90.8999 61.138 91.1999 61.414C91.4999 61.69 91.6499 62.038 91.6499 62.458C91.6499 62.842 91.5119 63.172 91.2359 63.448C90.9719 63.712 90.6539 63.844 90.2819 63.844C89.8499 63.844 89.4779 63.658 89.1659 63.286C89.0339 63.118 88.8599 63.034 88.6439 63.034C88.4279 63.022 88.2359 63.082 88.0679 63.214C87.5879 63.562 87.3479 64.084 87.3479 64.78V69.064L88.0499 69.424C88.2179 69.496 88.3019 69.604 88.3019 69.748C88.3019 69.916 88.2119 70 88.0319 70H83.9999C83.8199 70 83.7299 69.916 83.7299 69.748C83.7299 69.604 83.8139 69.496 83.9819 69.424L84.6839 69.064V62.422H84.0539C83.8379 62.422 83.7299 62.332 83.7299 62.152C83.7299 61.984 83.8259 61.876 84.0179 61.828L86.9159 61.018C87.0359 60.982 87.1379 60.988 87.2219 61.036C87.3059 61.084 87.3479 61.174 87.3479 61.306V62.926C87.6599 62.35 88.0559 61.888 88.5359 61.54C89.0279 61.18 89.5139 61 89.9939 61ZM99.547 65.644H95.047C95.083 66.64 95.341 67.426 95.821 68.002C96.313 68.578 96.889 68.866 97.549 68.866C98.449 68.866 99.235 68.572 99.907 67.984C100.015 67.888 100.123 67.87 100.231 67.93C100.339 67.99 100.363 68.122 100.303 68.326C100.135 68.854 99.733 69.316 99.097 69.712C98.461 70.096 97.675 70.288 96.739 70.288C95.599 70.288 94.585 69.874 93.697 69.046C92.821 68.218 92.383 67.144 92.383 65.824C92.383 64.396 92.809 63.238 93.661 62.35C94.513 61.45 95.575 61 96.847 61C97.975 61 98.887 61.366 99.583 62.098C100.279 62.818 100.627 63.748 100.627 64.888C100.627 65.2 100.561 65.404 100.429 65.5C100.297 65.596 100.003 65.644 99.547 65.644ZM95.065 64.69H98.161C98.161 63.838 98.017 63.154 97.729 62.638C97.441 62.11 97.051 61.846 96.559 61.846C95.647 61.846 95.149 62.794 95.065 64.69Z" fill="black"/>
<rect x="13" y="81" width="123" height="130" fill="#D8D8D8"/>
</svg>
