<svg width="149" height="224" viewBox="0 0 149 224" fill="none" xmlns="http://www.w3.org/2000/svg">
<rect x="0.5" y="0.5" width="148" height="223" rx="9.5" fill="white" stroke="#8B8B8B"/>
<rect x="12" y="174" width="6" height="32" fill="#B8B8B8"/>
<path d="M29.091 181.612C29.5823 181.825 29.9343 182.078 30.147 182.371C30.367 182.664 30.477 183.031 30.477 183.471C30.477 184.021 30.2973 184.443 29.938 184.736C29.586 185.029 29.0983 185.176 28.475 185.176C27.9103 185.176 27.4447 185.048 27.078 184.791C27.034 184.791 26.9643 184.791 26.869 184.791C26.781 184.784 26.7187 184.776 26.682 184.769C26.5427 184.762 26.473 184.696 26.473 184.571L26.528 183.317C26.5427 183.148 26.5867 183.064 26.66 183.064C26.682 183.064 26.7003 183.068 26.715 183.075C26.737 183.075 26.7517 183.09 26.759 183.119C26.7737 183.141 26.781 183.159 26.781 183.174C26.7883 183.189 26.7993 183.214 26.814 183.251C26.8653 183.456 26.9387 183.651 27.034 183.834C27.1733 184.098 27.3713 184.3 27.628 184.439C27.8847 184.578 28.156 184.648 28.442 184.648C29.0213 184.648 29.311 184.432 29.311 183.999C29.311 183.889 29.2853 183.79 29.234 183.702C29.19 183.607 29.1093 183.519 28.992 183.438C28.882 183.35 28.7793 183.28 28.684 183.229C28.5887 183.178 28.4457 183.108 28.255 183.02C28.0717 182.925 27.9323 182.851 27.837 182.8C26.9863 182.353 26.561 181.766 26.561 181.04C26.561 180.607 26.7297 180.244 27.067 179.951C27.4117 179.65 27.8847 179.5 28.486 179.5C28.86 179.5 29.179 179.581 29.443 179.742C29.4943 179.735 29.619 179.72 29.817 179.698C29.949 179.691 30.0187 179.738 30.026 179.841L30.147 180.985C30.1543 181.11 30.1397 181.179 30.103 181.194C30.0957 181.201 30.0883 181.205 30.081 181.205C30.015 181.22 29.9563 181.176 29.905 181.073C29.7877 180.838 29.663 180.648 29.531 180.501C29.245 180.178 28.8967 180.017 28.486 180.017C27.9727 180.017 27.716 180.211 27.716 180.6C27.716 180.673 27.7233 180.739 27.738 180.798C27.76 180.857 27.8003 180.915 27.859 180.974C27.9177 181.025 27.969 181.069 28.013 181.106C28.057 181.143 28.1303 181.187 28.233 181.238C28.3357 181.289 28.4163 181.33 28.475 181.359C28.5337 181.381 28.6327 181.421 28.772 181.48C28.9187 181.539 29.025 181.583 29.091 181.612ZM37.1032 184.34C37.2352 184.34 37.3012 184.395 37.3012 184.505C37.3012 184.608 37.2425 184.674 37.1252 184.703L35.3542 185.209C35.2882 185.231 35.2259 185.224 35.1672 185.187C35.1159 185.158 35.0902 185.103 35.0902 185.022V184.439C34.6722 184.93 34.1809 185.176 33.6162 185.176C32.3989 185.176 31.7902 184.589 31.7902 183.416V180.369H31.4052C31.2732 180.369 31.2072 180.314 31.2072 180.204C31.2072 180.101 31.2659 180.035 31.3832 180.006L33.1542 179.511C33.3302 179.467 33.4182 179.526 33.4182 179.687V183.009C33.4182 183.515 33.4732 183.867 33.5832 184.065C33.6932 184.263 33.8839 184.362 34.1552 184.362C34.4705 184.362 34.7822 184.149 35.0902 183.724V180.369H34.7052C34.5732 180.369 34.5072 180.314 34.5072 180.204C34.5072 180.101 34.5659 180.035 34.6832 180.006L36.4542 179.511C36.6302 179.467 36.7182 179.526 36.7182 179.687V184.34H37.1032ZM41.4725 179.5C42.1105 179.5 42.6495 179.749 43.0895 180.248C43.5369 180.739 43.7605 181.385 43.7605 182.184C43.7605 183.159 43.5552 183.904 43.1445 184.417C42.7412 184.923 42.1582 185.176 41.3955 185.176C41.1022 185.176 40.8492 185.132 40.6365 185.044C40.4312 184.956 40.2992 184.868 40.2405 184.78L40.1415 184.648C40.0902 184.883 39.9179 185 39.6245 185H38.1505C38.0405 185 37.9855 184.949 37.9855 184.846C37.9855 184.758 38.0369 184.692 38.1395 184.648L38.5685 184.428V177.355H38.1835C38.0515 177.355 37.9855 177.3 37.9855 177.19C37.9855 177.087 38.0442 177.021 38.1615 176.992L39.9325 176.486C40.0059 176.471 40.0682 176.479 40.1195 176.508C40.1709 176.537 40.1965 176.592 40.1965 176.673V180.017C40.2332 179.98 40.2845 179.933 40.3505 179.874C40.4239 179.815 40.5705 179.738 40.7905 179.643C41.0179 179.548 41.2452 179.5 41.4725 179.5ZM41.0435 184.472C41.4175 184.472 41.6925 184.263 41.8685 183.845C42.0445 183.427 42.1325 182.87 42.1325 182.173C42.1325 181.572 42.0262 181.11 41.8135 180.787C41.6082 180.464 41.3515 180.303 41.0435 180.303C40.6989 180.303 40.4165 180.435 40.1965 180.699V183.295C40.1965 184.08 40.4789 184.472 41.0435 184.472ZM48.333 184.065C48.399 184.124 48.3917 184.219 48.311 184.351C48.157 184.578 47.904 184.773 47.552 184.934C47.2 185.095 46.837 185.176 46.463 185.176C46.0303 185.176 45.7187 185.081 45.528 184.89C45.3447 184.692 45.253 184.399 45.253 184.01V180.248H44.494V179.665H45.253V178.598L46.595 177.971C46.661 177.934 46.7233 177.931 46.782 177.96C46.8407 177.989 46.87 178.048 46.87 178.136V179.665H48.256V180.248H46.87V183.779C46.87 184.131 46.9837 184.307 47.211 184.307C47.4897 184.307 47.7903 184.23 48.113 184.076C48.2157 184.025 48.289 184.021 48.333 184.065ZM51.5933 184.648C51.696 184.692 51.7473 184.758 51.7473 184.846C51.7473 184.949 51.6923 185 51.5823 185H49.1183C49.0083 185 48.9533 184.949 48.9533 184.846C48.9533 184.758 49.0046 184.692 49.1073 184.648L49.5363 184.428V180.369H49.1513C49.0193 180.369 48.9533 180.314 48.9533 180.204C48.9533 180.101 49.012 180.035 49.1293 180.006L50.9003 179.511C51.0763 179.467 51.1643 179.526 51.1643 179.687V184.428L51.5933 184.648ZM50.9333 178.246C50.7646 178.415 50.552 178.499 50.2953 178.499C50.0386 178.499 49.8223 178.415 49.6463 178.246C49.4776 178.077 49.3933 177.865 49.3933 177.608C49.3933 177.351 49.4776 177.139 49.6463 176.97C49.8223 176.794 50.0386 176.706 50.2953 176.706C50.552 176.706 50.7646 176.794 50.9333 176.97C51.1093 177.139 51.1973 177.351 51.1973 177.608C51.1973 177.865 51.1093 178.077 50.9333 178.246ZM56.2178 184.065C56.2838 184.124 56.2764 184.219 56.1958 184.351C56.0418 184.578 55.7888 184.773 55.4368 184.934C55.0848 185.095 54.7218 185.176 54.3478 185.176C53.9151 185.176 53.6034 185.081 53.4128 184.89C53.2294 184.692 53.1378 184.399 53.1378 184.01V180.248H52.3788V179.665H53.1378V178.598L54.4798 177.971C54.5458 177.934 54.6081 177.931 54.6668 177.96C54.7254 177.989 54.7548 178.048 54.7548 178.136V179.665H56.1408V180.248H54.7548V183.779C54.7548 184.131 54.8684 184.307 55.0958 184.307C55.3744 184.307 55.6751 184.23 55.9978 184.076C56.1004 184.025 56.1738 184.021 56.2178 184.065ZM59.4781 184.648C59.5807 184.692 59.6321 184.758 59.6321 184.846C59.6321 184.949 59.5771 185 59.4671 185H57.0031C56.8931 185 56.8381 184.949 56.8381 184.846C56.8381 184.758 56.8894 184.692 56.9921 184.648L57.4211 184.428V177.355H57.0361C56.9041 177.355 56.8381 177.3 56.8381 177.19C56.8381 177.087 56.8967 177.021 57.0141 176.992L58.7851 176.486C58.8584 176.471 58.9207 176.479 58.9721 176.508C59.0234 176.537 59.0491 176.592 59.0491 176.673V184.428L59.4781 184.648ZM64.8175 182.338H62.0675C62.0895 182.947 62.2472 183.427 62.5405 183.779C62.8412 184.131 63.1932 184.307 63.5965 184.307C64.1465 184.307 64.6269 184.127 65.0375 183.768C65.1035 183.709 65.1695 183.698 65.2355 183.735C65.3015 183.772 65.3162 183.852 65.2795 183.977C65.1769 184.3 64.9312 184.582 64.5425 184.824C64.1539 185.059 63.6735 185.176 63.1015 185.176C62.4049 185.176 61.7852 184.923 61.2425 184.417C60.7072 183.911 60.4395 183.255 60.4395 182.448C60.4395 181.575 60.6999 180.868 61.2205 180.325C61.7412 179.775 62.3902 179.5 63.1675 179.5C63.8569 179.5 64.4142 179.724 64.8395 180.171C65.2649 180.611 65.4775 181.179 65.4775 181.876C65.4775 182.067 65.4372 182.191 65.3565 182.25C65.2759 182.309 65.0962 182.338 64.8175 182.338ZM62.0785 181.755H63.9705C63.9705 181.234 63.8825 180.816 63.7065 180.501C63.5305 180.178 63.2922 180.017 62.9915 180.017C62.4342 180.017 62.1299 180.596 62.0785 181.755Z" fill="black"/>
<path d="M40.595 191.279L40.658 195.059C40.658 195.241 40.567 195.353 40.385 195.395C40.371 195.395 40.357 195.402 40.343 195.416C40.329 195.416 40.315 195.416 40.301 195.416C40.175 195.416 40.077 195.346 40.007 195.206L38.6 192.056H35.408V204.866L36.311 205.328C36.493 205.412 36.584 205.538 36.584 205.706C36.584 205.902 36.479 206 36.269 206H31.208C30.998 206 30.893 205.902 30.893 205.706C30.893 205.538 30.984 205.412 31.166 205.328L32.069 204.866V192.056H28.877L27.47 195.206C27.4 195.346 27.302 195.416 27.176 195.416H27.134L27.092 195.395C26.91 195.353 26.819 195.241 26.819 195.059L26.882 191.279C26.882 191.069 27.001 190.964 27.239 190.964H40.238C40.476 190.964 40.595 191.069 40.595 191.279ZM47.1539 205.328C47.3499 205.412 47.4479 205.538 47.4479 205.706C47.4479 205.902 47.3429 206 47.1329 206H42.4289C42.2189 206 42.1139 205.902 42.1139 205.706C42.1139 205.538 42.2119 205.412 42.4079 205.328L43.2269 204.908V197.159H42.4919C42.2399 197.159 42.1139 197.054 42.1139 196.844C42.1139 196.648 42.2259 196.522 42.4499 196.466L45.8309 195.521C46.1669 195.437 46.3349 195.549 46.3349 195.857V204.908L47.1539 205.328ZM45.8939 193.106C45.5719 193.428 45.1659 193.589 44.6759 193.589C44.1859 193.589 43.7729 193.428 43.4369 193.106C43.1149 192.784 42.9539 192.378 42.9539 191.888C42.9539 191.398 43.1149 190.992 43.4369 190.67C43.7729 190.334 44.1859 190.166 44.6759 190.166C45.1659 190.166 45.5719 190.334 45.8939 190.67C46.2299 190.992 46.3979 191.398 46.3979 191.888C46.3979 192.378 46.2299 192.784 45.8939 193.106ZM55.9824 204.215C56.1084 204.327 56.0944 204.509 55.9404 204.761C55.6464 205.195 55.1634 205.566 54.4914 205.874C53.8194 206.182 53.1264 206.336 52.4124 206.336C51.5864 206.336 50.9914 206.154 50.6274 205.79C50.2774 205.412 50.1024 204.852 50.1024 204.11V196.928H48.6534V195.815H50.1024V193.778L52.6644 192.581C52.7904 192.511 52.9094 192.504 53.0214 192.56C53.1334 192.616 53.1894 192.728 53.1894 192.896V195.815H55.8354V196.928H53.1894V203.669C53.1894 204.341 53.4064 204.677 53.8404 204.677C54.3724 204.677 54.9464 204.53 55.5624 204.236C55.7584 204.138 55.8984 204.131 55.9824 204.215ZM62.2066 205.328C62.4026 205.412 62.5006 205.538 62.5006 205.706C62.5006 205.902 62.3956 206 62.1856 206H57.4816C57.2716 206 57.1666 205.902 57.1666 205.706C57.1666 205.538 57.2646 205.412 57.4606 205.328L58.2796 204.908V191.405H57.5446C57.2926 191.405 57.1666 191.3 57.1666 191.09C57.1666 190.894 57.2786 190.768 57.5026 190.712L60.8836 189.746C61.0236 189.718 61.1426 189.732 61.2406 189.788C61.3386 189.844 61.3876 189.949 61.3876 190.103V204.908L62.2066 205.328ZM72.4002 200.918H67.1502C67.1922 202.08 67.4932 202.997 68.0532 203.669C68.6272 204.341 69.2992 204.677 70.0692 204.677C71.1192 204.677 72.0362 204.334 72.8202 203.648C72.9462 203.536 73.0722 203.515 73.1982 203.585C73.3242 203.655 73.3522 203.809 73.2822 204.047C73.0862 204.663 72.6172 205.202 71.8752 205.664C71.1332 206.112 70.2162 206.336 69.1242 206.336C67.7942 206.336 66.6112 205.853 65.5752 204.887C64.5532 203.921 64.0422 202.668 64.0422 201.128C64.0422 199.462 64.5392 198.111 65.5332 197.075C66.5272 196.025 67.7662 195.5 69.2502 195.5C70.5662 195.5 71.6302 195.927 72.4422 196.781C73.2542 197.621 73.6602 198.706 73.6602 200.036C73.6602 200.4 73.5832 200.638 73.4292 200.75C73.2752 200.862 72.9322 200.918 72.4002 200.918ZM67.1712 199.805H70.7832C70.7832 198.811 70.6152 198.013 70.2792 197.411C69.9432 196.795 69.4882 196.487 68.9142 196.487C67.8502 196.487 67.2692 197.593 67.1712 199.805ZM95.1474 205.328C95.3434 205.412 95.4414 205.538 95.4414 205.706C95.4414 205.902 95.3364 206 95.1264 206H89.9814C89.7714 206 89.6664 205.902 89.6664 205.706C89.6664 205.538 89.7574 205.412 89.9394 205.328L90.8844 204.845V198.818H85.3614V204.845L86.2854 205.328C86.4814 205.412 86.5794 205.538 86.5794 205.706C86.5794 205.902 86.4744 206 86.2644 206H81.1194C80.9094 206 80.8044 205.902 80.8044 205.706C80.8044 205.538 80.9024 205.412 81.0984 205.328L82.0434 204.845V192.098L81.0984 191.636C80.9024 191.552 80.8044 191.426 80.8044 191.258C80.8044 191.062 80.9094 190.964 81.1194 190.964H86.2644C86.4744 190.964 86.5794 191.062 86.5794 191.258C86.5794 191.426 86.4814 191.552 86.2854 191.636L85.3614 192.098V197.705H90.8844V192.098L89.9394 191.636C89.7574 191.552 89.6664 191.426 89.6664 191.258C89.6664 191.062 89.7714 190.964 89.9814 190.964H95.1264C95.3364 190.964 95.4414 191.062 95.4414 191.258C95.4414 191.426 95.3434 191.552 95.1474 191.636L94.2024 192.098V204.845L95.1474 205.328ZM105.848 200.918H100.598C100.64 202.08 100.941 202.997 101.501 203.669C102.075 204.341 102.747 204.677 103.517 204.677C104.567 204.677 105.484 204.334 106.268 203.648C106.394 203.536 106.52 203.515 106.646 203.585C106.772 203.655 106.8 203.809 106.73 204.047C106.534 204.663 106.065 205.202 105.323 205.664C104.581 206.112 103.664 206.336 102.572 206.336C101.242 206.336 100.059 205.853 99.0234 204.887C98.0014 203.921 97.4904 202.668 97.4904 201.128C97.4904 199.462 97.9874 198.111 98.9814 197.075C99.9754 196.025 101.214 195.5 102.698 195.5C104.014 195.5 105.078 195.927 105.89 196.781C106.702 197.621 107.108 198.706 107.108 200.036C107.108 200.4 107.031 200.638 106.877 200.75C106.723 200.862 106.38 200.918 105.848 200.918ZM100.619 199.805H104.231C104.231 198.811 104.063 198.013 103.727 197.411C103.391 196.795 102.936 196.487 102.362 196.487C101.298 196.487 100.717 197.593 100.619 199.805ZM115.826 195.5C116.414 195.5 116.883 195.661 117.233 195.983C117.583 196.305 117.758 196.711 117.758 197.201C117.758 197.649 117.597 198.034 117.275 198.356C116.967 198.664 116.596 198.818 116.162 198.818C115.658 198.818 115.224 198.601 114.86 198.167C114.706 197.971 114.503 197.873 114.251 197.873C113.999 197.859 113.775 197.929 113.579 198.083C113.019 198.489 112.739 199.098 112.739 199.91V204.908L113.558 205.328C113.754 205.412 113.852 205.538 113.852 205.706C113.852 205.902 113.747 206 113.537 206H108.833C108.623 206 108.518 205.902 108.518 205.706C108.518 205.538 108.616 205.412 108.812 205.328L109.631 204.908V197.159H108.896C108.644 197.159 108.518 197.054 108.518 196.844C108.518 196.648 108.63 196.522 108.854 196.466L112.235 195.521C112.375 195.479 112.494 195.486 112.592 195.542C112.69 195.598 112.739 195.703 112.739 195.857V197.747C113.103 197.075 113.565 196.536 114.125 196.13C114.699 195.71 115.266 195.5 115.826 195.5ZM126.971 200.918H121.721C121.763 202.08 122.064 202.997 122.624 203.669C123.198 204.341 123.87 204.677 124.64 204.677C125.69 204.677 126.607 204.334 127.391 203.648C127.517 203.536 127.643 203.515 127.769 203.585C127.895 203.655 127.923 203.809 127.853 204.047C127.657 204.663 127.188 205.202 126.446 205.664C125.704 206.112 124.787 206.336 123.695 206.336C122.365 206.336 121.182 205.853 120.146 204.887C119.124 203.921 118.613 202.668 118.613 201.128C118.613 199.462 119.11 198.111 120.104 197.075C121.098 196.025 122.337 195.5 123.821 195.5C125.137 195.5 126.201 195.927 127.013 196.781C127.825 197.621 128.231 198.706 128.231 200.036C128.231 200.4 128.154 200.638 128 200.75C127.846 200.862 127.503 200.918 126.971 200.918ZM121.742 199.805H125.354C125.354 198.811 125.186 198.013 124.85 197.411C124.514 196.795 124.059 196.487 123.485 196.487C122.421 196.487 121.84 197.593 121.742 199.805Z" fill="black"/>
</svg>
