<svg width="149" height="224" viewBox="0 0 149 224" fill="none" xmlns="http://www.w3.org/2000/svg">
<rect width="149" height="224" rx="10" fill="white"/>
<mask id="path-2-inside-1_629_81" fill="white">
<path d="M0 124H149V213C149 219.075 144.075 224 138 224H11C4.92486 224 0 219.075 0 213V124Z"/>
</mask>
<path d="M0 124H149V213C149 219.075 144.075 224 138 224H11C4.92486 224 0 219.075 0 213V124Z" fill="#D8D8D8"/>
<path d="M0 123H149V125H0V123ZM149 224H0H149ZM0 224V124V224ZM149 124V224V124Z" fill="#8B8B8B" mask="url(#path-2-inside-1_629_81)"/>
<path d="M64.595 61.279L64.658 65.059C64.658 65.241 64.567 65.353 64.385 65.395C64.371 65.395 64.357 65.402 64.343 65.416C64.329 65.416 64.315 65.416 64.301 65.416C64.175 65.416 64.077 65.346 64.007 65.206L62.6 62.056H59.408V74.866L60.311 75.328C60.493 75.412 60.584 75.538 60.584 75.706C60.584 75.902 60.479 76 60.269 76H55.208C54.998 76 54.893 75.902 54.893 75.706C54.893 75.538 54.984 75.412 55.166 75.328L56.069 74.866V62.056H52.877L51.47 65.206C51.4 65.346 51.302 65.416 51.176 65.416H51.134L51.092 65.395C50.91 65.353 50.819 65.241 50.819 65.059L50.882 61.279C50.882 61.069 51.001 60.964 51.239 60.964H64.238C64.476 60.964 64.595 61.069 64.595 61.279ZM71.1539 75.328C71.3499 75.412 71.4479 75.538 71.4479 75.706C71.4479 75.902 71.3429 76 71.1329 76H66.4289C66.2189 76 66.1139 75.902 66.1139 75.706C66.1139 75.538 66.2119 75.412 66.4079 75.328L67.2269 74.908V67.159H66.4919C66.2399 67.159 66.1139 67.054 66.1139 66.844C66.1139 66.648 66.2259 66.522 66.4499 66.466L69.8309 65.521C70.1669 65.437 70.3349 65.549 70.3349 65.857V74.908L71.1539 75.328ZM69.8939 63.106C69.5719 63.428 69.1659 63.589 68.6759 63.589C68.1859 63.589 67.7729 63.428 67.4369 63.106C67.1149 62.784 66.9539 62.378 66.9539 61.888C66.9539 61.398 67.1149 60.992 67.4369 60.67C67.7729 60.334 68.1859 60.166 68.6759 60.166C69.1659 60.166 69.5719 60.334 69.8939 60.67C70.2299 60.992 70.3979 61.398 70.3979 61.888C70.3979 62.378 70.2299 62.784 69.8939 63.106ZM79.9824 74.215C80.1084 74.327 80.0944 74.509 79.9404 74.761C79.6464 75.195 79.1634 75.566 78.4914 75.874C77.8194 76.182 77.1264 76.336 76.4124 76.336C75.5864 76.336 74.9914 76.154 74.6274 75.79C74.2774 75.412 74.1024 74.852 74.1024 74.11V66.928H72.6534V65.815H74.1024V63.778L76.6644 62.581C76.7904 62.511 76.9094 62.504 77.0214 62.56C77.1334 62.616 77.1894 62.728 77.1894 62.896V65.815H79.8354V66.928H77.1894V73.669C77.1894 74.341 77.4064 74.677 77.8404 74.677C78.3724 74.677 78.9464 74.53 79.5624 74.236C79.7584 74.138 79.8984 74.131 79.9824 74.215ZM86.2066 75.328C86.4026 75.412 86.5006 75.538 86.5006 75.706C86.5006 75.902 86.3956 76 86.1856 76H81.4816C81.2716 76 81.1666 75.902 81.1666 75.706C81.1666 75.538 81.2646 75.412 81.4606 75.328L82.2796 74.908V61.405H81.5446C81.2926 61.405 81.1666 61.3 81.1666 61.09C81.1666 60.894 81.2786 60.768 81.5026 60.712L84.8836 59.746C85.0236 59.718 85.1426 59.732 85.2406 59.788C85.3386 59.844 85.3876 59.949 85.3876 60.103V74.908L86.2066 75.328ZM96.4002 70.918H91.1502C91.1922 72.08 91.4932 72.997 92.0532 73.669C92.6272 74.341 93.2992 74.677 94.0692 74.677C95.1192 74.677 96.0362 74.334 96.8202 73.648C96.9462 73.536 97.0722 73.515 97.1982 73.585C97.3242 73.655 97.3522 73.809 97.2822 74.047C97.0862 74.663 96.6172 75.202 95.8752 75.664C95.1332 76.112 94.2162 76.336 93.1242 76.336C91.7942 76.336 90.6112 75.853 89.5752 74.887C88.5532 73.921 88.0422 72.668 88.0422 71.128C88.0422 69.462 88.5392 68.111 89.5332 67.075C90.5272 66.025 91.7662 65.5 93.2502 65.5C94.5662 65.5 95.6302 65.927 96.4422 66.781C97.2542 67.621 97.6602 68.706 97.6602 70.036C97.6602 70.4 97.5832 70.638 97.4292 70.75C97.2752 70.862 96.9322 70.918 96.4002 70.918ZM91.1712 69.805H94.7832C94.7832 68.811 94.6152 68.013 94.2792 67.411C93.9432 66.795 93.4882 66.487 92.9142 66.487C91.8502 66.487 91.2692 67.593 91.1712 69.805Z" fill="black"/>
</svg>
