<svg width="64" height="64" viewBox="0 0 64 64" fill="none" xmlns="http://www.w3.org/2000/svg">
<circle cx="32" cy="32" r="32" fill="#FF7070"/>
<path d="M32.12 38.608C32.8027 38.608 33.3787 38.8427 33.848 39.312C34.3173 39.7813 34.552 40.3573 34.552 41.04C34.552 41.7227 34.3173 42.2987 33.848 42.768C33.3787 43.2373 32.8027 43.472 32.12 43.472C31.4373 43.472 30.8613 43.2373 30.392 42.768C29.9227 42.2987 29.688 41.7227 29.688 41.04C29.688 40.3573 29.9227 39.7813 30.392 39.312C30.8613 38.8427 31.4373 38.608 32.12 38.608ZM32.12 18.128C32.8027 18.128 33.3467 18.2773 33.752 18.576C34.1787 18.8747 34.3813 19.376 34.36 20.08L33.848 34.704C33.8267 35.3653 33.6347 35.824 33.272 36.08C32.9307 36.336 32.5467 36.464 32.12 36.464C31.6933 36.464 31.2987 36.336 30.936 36.08C30.5947 35.824 30.4133 35.3653 30.392 34.704L29.88 20.08C29.8587 19.376 30.0507 18.8747 30.456 18.576C30.8827 18.2773 31.4373 18.128 32.12 18.128Z" fill="white"/>
</svg>
