<svg width="65" height="30" viewBox="0 0 65 30" fill="none" xmlns="http://www.w3.org/2000/svg">
<rect width="65" height="30" rx="5" fill="#FFDBD7"/>
<path d="M32.277 9.146C32.4503 9.146 32.602 9.18933 32.732 9.276C32.8707 9.36267 32.94 9.50133 32.94 9.692V10.732C32.94 11.1307 33.0093 11.4687 33.148 11.746C33.2953 12.0233 33.5207 12.2747 33.824 12.5C34.1273 12.7253 34.4047 12.929 34.656 13.111C34.9073 13.2843 35.15 13.4447 35.384 13.592C35.5313 13.6873 35.6093 13.813 35.618 13.969C35.6267 14.125 35.5877 14.2637 35.501 14.385C35.423 14.5063 35.3103 14.593 35.163 14.645C35.0157 14.6883 34.8683 14.6623 34.721 14.567C34.5217 14.437 34.3007 14.2897 34.058 14.125C33.8153 13.9517 33.5467 13.761 33.252 13.553C32.9313 13.319 32.6973 13.1197 32.55 12.955C32.4113 12.7903 32.329 12.643 32.303 12.513H32.29C32.2553 12.6603 32.1643 12.8207 32.017 12.994C31.8697 13.1673 31.6313 13.3753 31.302 13.618C31.0073 13.826 30.7213 14.0253 30.444 14.216C30.1753 14.4067 29.898 14.593 29.612 14.775C29.4647 14.8703 29.3173 14.8877 29.17 14.827C29.0313 14.7663 28.9187 14.6753 28.832 14.554C28.754 14.4327 28.7193 14.294 28.728 14.138C28.7367 13.982 28.8147 13.8563 28.962 13.761C29.274 13.5617 29.573 13.3667 29.859 13.176C30.145 12.9767 30.4397 12.7643 30.743 12.539C31.0463 12.3137 31.2673 12.0623 31.406 11.785C31.5447 11.499 31.614 11.161 31.614 10.771V9.692C31.614 9.50133 31.679 9.36267 31.809 9.276C31.9477 9.18933 32.1037 9.146 32.277 9.146ZM37.607 8.886C37.7803 8.886 37.932 8.92933 38.062 9.016C38.192 9.10267 38.257 9.24133 38.257 9.432V14.476C38.257 14.6667 38.192 14.8053 38.062 14.892C37.932 14.9787 37.7803 15.022 37.607 15.022C37.4337 15.022 37.282 14.9787 37.152 14.892C37.022 14.8053 36.957 14.6667 36.957 14.476V9.432C36.957 9.24133 37.022 9.10267 37.152 9.016C37.282 8.92933 37.4337 8.886 37.607 8.886ZM37.256 15.581C37.6373 15.581 37.8973 15.6503 38.036 15.789C38.1833 15.9277 38.257 16.1833 38.257 16.556V17.752C38.257 18.1247 38.1833 18.3803 38.036 18.519C37.8973 18.6577 37.6373 18.727 37.256 18.727H32.225C32.1297 18.727 32.0603 18.7487 32.017 18.792C31.9737 18.8267 31.952 18.896 31.952 19V19.559C31.952 19.741 32.043 19.832 32.225 19.832H38.114C38.2613 19.832 38.3697 19.884 38.439 19.988C38.5083 20.092 38.543 20.2133 38.543 20.352C38.543 20.4907 38.5083 20.612 38.439 20.716C38.3697 20.82 38.2613 20.872 38.114 20.872H31.692C31.3107 20.872 31.0463 20.8027 30.899 20.664C30.7603 20.5253 30.691 20.2697 30.691 19.897V18.701C30.691 18.3283 30.7603 18.0727 30.899 17.934C31.0463 17.7953 31.3107 17.726 31.692 17.726H36.71C36.814 17.726 36.8833 17.7087 36.918 17.674C36.9613 17.6307 36.983 17.557 36.983 17.453V16.894C36.983 16.7987 36.9613 16.7337 36.918 16.699C36.8833 16.6557 36.814 16.634 36.71 16.634H31.094C30.9467 16.634 30.8383 16.582 30.769 16.478C30.6997 16.374 30.665 16.2483 30.665 16.101C30.665 15.9623 30.6997 15.841 30.769 15.737C30.8383 15.633 30.9467 15.581 31.094 15.581H37.256ZM45.981 9.913C46.137 9.913 46.2497 9.965 46.319 10.069C46.397 10.173 46.436 10.2987 46.436 10.446C46.436 10.5847 46.397 10.7103 46.319 10.823C46.2497 10.927 46.137 10.979 45.981 10.979H45.487V15.919C45.5737 15.9103 45.6734 15.9017 45.786 15.893C45.9074 15.8757 46.02 15.8583 46.124 15.841C46.2714 15.8237 46.3884 15.8583 46.475 15.945C46.5704 16.0317 46.6267 16.1443 46.644 16.283C46.6614 16.4303 46.6397 16.569 46.579 16.699C46.5184 16.8203 46.4187 16.8897 46.28 16.907C45.8987 16.959 45.5217 16.998 45.149 17.024C44.7764 17.05 44.382 17.0717 43.966 17.089C43.55 17.0977 43.108 17.1063 42.64 17.115C42.172 17.115 41.6564 17.115 41.093 17.115C40.937 17.115 40.82 17.063 40.742 16.959C40.6727 16.8463 40.638 16.7163 40.638 16.569C40.638 16.4303 40.6727 16.309 40.742 16.205C40.82 16.0923 40.937 16.036 41.093 16.036H41.769V10.979H41.184C41.028 10.979 40.911 10.927 40.833 10.823C40.7637 10.7103 40.729 10.5847 40.729 10.446C40.729 10.2987 40.7637 10.173 40.833 10.069C40.911 9.965 41.028 9.913 41.184 9.913H45.981ZM42.939 16.036C43.3984 16.036 43.862 16.023 44.33 15.997V10.979H42.939V16.036ZM50.245 8.886C50.401 8.886 50.5397 8.92933 50.661 9.016C50.791 9.094 50.856 9.21967 50.856 9.393V19.611C50.856 19.7843 50.791 19.91 50.661 19.988C50.5397 20.0747 50.401 20.118 50.245 20.118C50.0977 20.118 49.959 20.0747 49.829 19.988C49.7077 19.91 49.647 19.7843 49.647 19.611V13.982H48.386V19.065C48.386 19.2383 48.321 19.364 48.191 19.442C48.0697 19.5287 47.9354 19.572 47.788 19.572C47.6407 19.572 47.502 19.5287 47.372 19.442C47.2507 19.364 47.19 19.2383 47.19 19.065V9.497C47.19 9.32367 47.2507 9.198 47.372 9.12C47.502 9.03333 47.6407 8.99 47.788 8.99C47.9354 8.99 48.0697 9.03333 48.191 9.12C48.321 9.198 48.386 9.32367 48.386 9.497V12.877H49.647V9.393C49.647 9.21967 49.7077 9.094 49.829 9.016C49.959 8.92933 50.0977 8.886 50.245 8.886Z" fill="#872222"/>
<circle cx="17" cy="15" r="5" fill="#FF5F57"/>
</svg>
