<svg width="76" height="30" viewBox="0 0 76 30" fill="none" xmlns="http://www.w3.org/2000/svg">
<rect width="76" height="30" rx="5" fill="#FEFFD7"/>
<path d="M33.072 9.666C33.228 9.666 33.3407 9.72233 33.41 9.835C33.488 9.94767 33.527 10.0777 33.527 10.225C33.527 10.3723 33.488 10.5023 33.41 10.615C33.3407 10.7277 33.228 10.784 33.072 10.784H30.953V11.499C30.953 11.9323 31.0267 12.305 31.174 12.617C31.3213 12.9203 31.551 13.202 31.863 13.462C32.149 13.7133 32.4263 13.943 32.695 14.151C32.9723 14.359 33.2107 14.5367 33.41 14.684C33.5573 14.788 33.631 14.9137 33.631 15.061C33.6397 15.2083 33.5963 15.3513 33.501 15.49C33.4143 15.6027 33.2973 15.685 33.15 15.737C33.0027 15.7803 32.851 15.7457 32.695 15.633C32.5217 15.503 32.3137 15.3427 32.071 15.152C31.8283 14.9613 31.5683 14.7533 31.291 14.528C30.9617 14.2593 30.7277 14.0383 30.589 13.865C30.4503 13.6917 30.3637 13.5357 30.329 13.397H30.316C30.2813 13.5443 30.1903 13.7133 30.043 13.904C29.8957 14.086 29.6573 14.3113 29.328 14.58C29.0507 14.814 28.7733 15.0393 28.496 15.256C28.2273 15.464 27.963 15.659 27.703 15.841C27.5557 15.945 27.404 15.9753 27.248 15.932C27.1007 15.88 26.988 15.7977 26.91 15.685C26.8147 15.5637 26.767 15.425 26.767 15.269C26.767 15.113 26.845 14.9787 27.001 14.866C27.5903 14.4413 28.171 13.9863 28.743 13.501C29.055 13.2323 29.2847 12.9463 29.432 12.643C29.5793 12.3397 29.653 11.9713 29.653 11.538V10.784H27.443C27.2783 10.784 27.157 10.7277 27.079 10.615C27.0097 10.5023 26.975 10.3723 26.975 10.225C26.975 10.0777 27.0097 9.94767 27.079 9.835C27.157 9.72233 27.2783 9.666 27.443 9.666H33.072ZM35.607 8.886C35.7803 8.886 35.932 8.92933 36.062 9.016C36.192 9.10267 36.257 9.24133 36.257 9.432V17.128C36.257 17.3187 36.192 17.4573 36.062 17.544C35.932 17.6307 35.7803 17.674 35.607 17.674C35.4337 17.674 35.282 17.6307 35.152 17.544C35.022 17.4573 34.957 17.3187 34.957 17.128V9.432C34.957 9.24133 35.022 9.10267 35.152 9.016C35.282 8.92933 35.4337 8.886 35.607 8.886ZM29.328 16.582C29.4927 16.582 29.64 16.6253 29.77 16.712C29.9087 16.7987 29.978 16.9373 29.978 17.128V19.325C29.978 19.4203 29.9953 19.4853 30.03 19.52C30.0733 19.5633 30.147 19.585 30.251 19.585H36.101C36.2657 19.585 36.3827 19.6413 36.452 19.754C36.53 19.8667 36.569 20.001 36.569 20.157C36.569 20.3043 36.53 20.4343 36.452 20.547C36.3827 20.6597 36.2657 20.716 36.101 20.716H29.666C29.2847 20.716 29.0203 20.6467 28.873 20.508C28.7343 20.3693 28.665 20.1137 28.665 19.741V17.128C28.665 16.9373 28.73 16.7987 28.86 16.712C28.9987 16.6253 29.1547 16.582 29.328 16.582ZM41.654 11.967C42.434 11.967 43.0364 12.1577 43.461 12.539C43.8857 12.9117 44.098 13.4143 44.098 14.047C44.098 14.6797 43.8857 15.1867 43.461 15.568C43.0364 15.9407 42.434 16.127 41.654 16.127C40.8654 16.127 40.2587 15.9407 39.834 15.568C39.4094 15.1867 39.197 14.6797 39.197 14.047C39.197 13.4143 39.4094 12.9117 39.834 12.539C40.2587 12.1577 40.8654 11.967 41.654 11.967ZM41.641 8.834C41.8144 8.834 41.966 8.87733 42.096 8.964C42.226 9.05067 42.291 9.185 42.291 9.367V10.199H44.124C44.28 10.199 44.3927 10.2553 44.462 10.368C44.54 10.4807 44.579 10.6107 44.579 10.758C44.579 10.9053 44.54 11.0353 44.462 11.148C44.3927 11.252 44.28 11.304 44.124 11.304H39.002C38.8374 11.304 38.716 11.252 38.638 11.148C38.5687 11.0353 38.534 10.9053 38.534 10.758C38.534 10.6107 38.5687 10.4807 38.638 10.368C38.716 10.2553 38.8374 10.199 39.002 10.199H41.004V9.367C41.004 9.185 41.069 9.05067 41.199 8.964C41.3377 8.87733 41.485 8.834 41.641 8.834ZM41.654 12.968C41.238 12.968 40.913 13.0677 40.679 13.267C40.445 13.4577 40.328 13.7177 40.328 14.047C40.328 14.3763 40.445 14.6407 40.679 14.84C40.913 15.0307 41.238 15.126 41.654 15.126C42.07 15.126 42.395 15.0307 42.629 14.84C42.863 14.6407 42.98 14.3763 42.98 14.047C42.98 13.7177 42.863 13.4577 42.629 13.267C42.395 13.0677 42.07 12.968 41.654 12.968ZM48.245 8.886C48.401 8.886 48.5397 8.92933 48.661 9.016C48.791 9.094 48.856 9.21967 48.856 9.393V16.101C48.856 16.2743 48.791 16.4043 48.661 16.491C48.5397 16.569 48.401 16.608 48.245 16.608C48.0977 16.608 47.959 16.569 47.829 16.491C47.7077 16.4043 47.647 16.2743 47.647 16.101V13.111H46.269V15.555C46.269 15.7283 46.204 15.8583 46.074 15.945C45.9527 16.023 45.8184 16.062 45.671 16.062C45.5237 16.062 45.385 16.023 45.255 15.945C45.1337 15.8583 45.073 15.7283 45.073 15.555V9.445C45.073 9.27167 45.1337 9.146 45.255 9.068C45.385 8.99 45.5237 8.951 45.671 8.951C45.8184 8.951 45.9527 8.99 46.074 9.068C46.204 9.146 46.269 9.27167 46.269 9.445V12.019H47.647V9.393C47.647 9.21967 47.7077 9.094 47.829 9.016C47.959 8.92933 48.0977 8.886 48.245 8.886ZM44.917 16.647C46.1564 16.647 47.1184 16.8247 47.803 17.18C48.4877 17.5353 48.83 18.09 48.83 18.844C48.83 19.598 48.4877 20.1527 47.803 20.508C47.1184 20.8633 46.1564 21.041 44.917 21.041C43.6777 21.041 42.7157 20.8633 42.031 20.508C41.3464 20.1527 41.004 19.598 41.004 18.844C41.004 18.09 41.3464 17.5353 42.031 17.18C42.7157 16.8247 43.6777 16.647 44.917 16.647ZM44.917 17.687C43.9984 17.687 43.331 17.791 42.915 17.999C42.499 18.1983 42.291 18.48 42.291 18.844C42.291 19.208 42.499 19.4897 42.915 19.689C43.331 19.897 43.9984 20.001 44.917 20.001C45.8357 20.001 46.503 19.897 46.919 19.689C47.335 19.4897 47.543 19.208 47.543 18.844C47.543 18.48 47.335 18.1983 46.919 17.999C46.503 17.791 45.8357 17.687 44.917 17.687ZM63.6651 9.315C63.8211 9.315 63.9337 9.37133 64.0031 9.484C64.0811 9.588 64.1201 9.71367 64.1201 9.861C64.1201 10.0083 64.0811 10.1383 64.0031 10.251C63.9337 10.355 63.8211 10.407 63.6651 10.407H60.6621V10.602C60.6621 10.862 60.7444 11.0917 60.9091 11.291C61.0737 11.4817 61.3771 11.6637 61.8191 11.837C62.6684 12.1663 63.4441 12.4523 64.1461 12.695C64.2934 12.7383 64.3887 12.8337 64.4321 12.981C64.4841 13.1283 64.4841 13.267 64.4321 13.397C64.3714 13.5443 64.2804 13.6527 64.1591 13.722C64.0377 13.7827 63.8947 13.787 63.7301 13.735C63.4007 13.631 63.0497 13.5097 62.6771 13.371C62.3131 13.2323 61.9361 13.085 61.5461 12.929C61.2687 12.825 61.0347 12.7253 60.8441 12.63C60.6621 12.526 60.5104 12.4307 60.3891 12.344C60.2764 12.2573 60.1897 12.175 60.1291 12.097C60.0771 12.0103 60.0381 11.928 60.0121 11.85H59.9991C59.9731 11.928 59.9297 12.0103 59.8691 12.097C59.8084 12.1837 59.7174 12.2747 59.5961 12.37C59.4834 12.4567 59.3317 12.552 59.1411 12.656C58.9591 12.7513 58.7294 12.851 58.4521 12.955C58.0621 13.111 57.6807 13.2583 57.3081 13.397C56.9441 13.5357 56.6017 13.657 56.2811 13.761C56.1077 13.813 55.9604 13.8043 55.8391 13.735C55.7177 13.6657 55.6267 13.5573 55.5661 13.41C55.5141 13.28 55.5097 13.1413 55.5531 12.994C55.5964 12.838 55.6961 12.7383 55.8521 12.695C56.5541 12.4523 57.3297 12.1663 58.1791 11.837C58.6211 11.6637 58.9244 11.4817 59.0891 11.291C59.2537 11.0917 59.3361 10.862 59.3361 10.602V10.407H56.3331C56.1771 10.407 56.0601 10.355 55.9821 10.251C55.9127 10.1383 55.8781 10.0083 55.8781 9.861C55.8781 9.71367 55.9127 9.588 55.9821 9.484C56.0601 9.37133 56.1771 9.315 56.3331 9.315H63.6651ZM65.0171 14.45C65.1644 14.45 65.2727 14.5063 65.3421 14.619C65.4201 14.723 65.4591 14.8487 65.4591 14.996C65.4591 15.1433 65.4201 15.2733 65.3421 15.386C65.2727 15.49 65.1644 15.542 65.0171 15.542H60.6361V17.297H59.3621V15.542H54.9811C54.8337 15.542 54.7211 15.49 54.6431 15.386C54.5737 15.2733 54.5391 15.1433 54.5391 14.996C54.5391 14.8487 54.5737 14.723 54.6431 14.619C54.7211 14.5063 54.8337 14.45 54.9811 14.45H65.0171ZM59.9991 16.621C61.2557 16.621 62.2307 16.803 62.9241 17.167C63.6261 17.531 63.9771 18.0943 63.9771 18.857C63.9771 19.6283 63.6261 20.1917 62.9241 20.547C62.2307 20.911 61.2557 21.093 59.9991 21.093C58.7424 21.093 57.7631 20.911 57.0611 20.547C56.3677 20.1917 56.0211 19.6283 56.0211 18.857C56.0211 18.0943 56.3677 17.531 57.0611 17.167C57.7631 16.803 58.7424 16.621 59.9991 16.621ZM59.9991 17.661C59.0544 17.661 58.3697 17.765 57.9451 17.973C57.5204 18.1723 57.3081 18.467 57.3081 18.857C57.3081 19.247 57.5204 19.5417 57.9451 19.741C58.3697 19.949 59.0544 20.053 59.9991 20.053C60.9437 20.053 61.6284 19.949 62.0531 19.741C62.4777 19.5417 62.6901 19.247 62.6901 18.857C62.6901 18.467 62.4777 18.1723 62.0531 17.973C61.6284 17.765 60.9437 17.661 59.9991 17.661Z" fill="#877A22"/>
<circle cx="15" cy="15" r="5" fill="#FFCF57"/>
</svg>
