<svg width="69" height="71" viewBox="0 0 69 71" fill="none" xmlns="http://www.w3.org/2000/svg">
<path d="M39.8166 1.43979C42.9051 -1.59119 48.1243 0.466157 48.3139 4.78932L49.0022 20.4833C49.0804 22.2663 50.1031 23.8725 51.6857 24.6977L65.6149 31.9607C69.4519 33.9614 69.1081 39.5609 65.0551 41.0772L50.342 46.5815C48.6704 47.2069 47.4588 48.6759 47.1631 50.436L44.5599 65.9278C43.8428 70.1953 38.4111 71.5987 35.7166 68.2126L25.9351 55.9205C24.8238 54.524 23.0523 53.8257 21.287 54.0883L5.74891 56.3998C1.46869 57.0365 -1.54448 52.3043 0.843218 48.6953L9.51103 35.5941C10.4958 34.1056 10.6125 32.205 9.81723 30.6073L2.81735 16.544C0.889116 12.67 4.4586 8.34199 8.62877 9.4976L23.7673 13.6927C25.4873 14.1693 27.3308 13.693 28.6047 12.4429L39.8166 1.43979Z" fill="#FFAE00"/>
</svg>
