<svg width="60" height="59" viewBox="0 0 60 59" fill="none" xmlns="http://www.w3.org/2000/svg">
<path d="M39.595 0.909014C43.1466 -1.56311 47.9486 1.33765 47.4129 5.63169L45.9407 17.4343C45.7197 19.2053 46.4596 20.9599 47.882 22.0379L57.361 29.2225C60.8096 31.8364 59.5347 37.2997 55.2853 38.1172L43.6054 40.3642C41.8528 40.7014 40.4128 41.9472 39.827 43.6331L35.9232 54.8683C34.5029 58.956 28.9131 59.4317 26.8224 55.6429L21.0761 45.229C20.2138 43.6664 18.584 42.6818 16.7996 42.6457L4.90795 42.4048C0.581514 42.3172 -1.59831 37.1479 1.35901 33.9888L9.48749 25.3057C10.7072 24.0027 11.1399 22.1484 10.6229 20.4402L7.17723 9.05612C5.92362 4.91436 10.1663 1.24383 14.0846 3.08019L24.8546 8.1276C26.4707 8.88499 28.368 8.72351 29.8329 7.7039L39.595 0.909014Z" fill="#5EFFF4"/>
</svg>
