<svg width="82" height="81" viewBox="0 0 82 81" fill="none" xmlns="http://www.w3.org/2000/svg">
<path d="M56.5783 0.909146C60.13 -1.56298 64.9319 1.33778 64.3963 5.63182L61.9324 25.384C61.7115 27.155 62.4513 28.9096 63.8737 29.9876L79.7372 42.0113C83.1858 44.6252 81.9109 50.0885 77.6615 50.906L58.1147 54.6665C56.3621 55.0037 54.9221 56.2495 54.3363 57.9354L47.8031 76.738C46.3829 80.8256 40.793 81.3013 38.7024 77.5125L29.0857 60.0845C28.2234 58.5218 26.5936 57.5373 24.8091 57.5011L4.90797 57.0981C0.581537 57.0104 -1.59829 51.8412 1.35903 48.682L14.9624 34.1504C16.1821 32.8475 16.6148 30.9932 16.0978 29.2849L10.3313 10.2332C9.07772 6.09149 13.3204 2.42096 17.2387 4.25731L35.2628 12.7044C36.8789 13.4618 38.7762 13.3003 40.241 12.2807L56.5783 0.909146Z" fill="#FF5EDC"/>
</svg>
