<svg width="44" height="43" viewBox="0 0 44 43" fill="none" xmlns="http://www.w3.org/2000/svg">
<path d="M29.8671 0.545374C31.9981 -0.937902 34.8792 0.802553 34.5578 3.37898L33.3177 13.3206C33.1852 14.3832 33.6291 15.4359 34.4825 16.0827L42.4668 22.1345C44.536 23.7028 43.7711 26.9808 41.2214 27.4713L31.3832 29.364C30.3316 29.5663 29.4676 30.3138 29.1162 31.3253L25.8279 40.789C24.9758 43.2415 21.6219 43.527 20.3675 41.2537L15.5272 32.4819C15.0099 31.5443 14.032 30.9535 12.9613 30.9319L2.94476 30.729C0.348903 30.6764 -0.958992 27.5749 0.815398 25.6794L7.66219 18.3654C8.39402 17.5836 8.65365 16.471 8.34342 15.4461L5.44107 5.85709C4.6889 3.37203 7.2345 1.16971 9.58552 2.27153L18.6573 6.52306C19.627 6.9775 20.7653 6.88061 21.6442 6.26884L29.8671 0.545374Z" fill="#FF9880"/>
</svg>
