<svg width="65" height="30" viewBox="0 0 65 30" fill="none" xmlns="http://www.w3.org/2000/svg">
<rect width="65" height="30" rx="5" fill="#DEFFD7"/>
<path d="M32.147 9.276C32.3203 9.276 32.472 9.31933 32.602 9.406C32.7407 9.49267 32.81 9.63133 32.81 9.822V11.096C32.81 11.512 32.875 11.8673 33.005 12.162C33.135 12.4567 33.3517 12.734 33.655 12.994C33.9583 13.2453 34.2443 13.475 34.513 13.683C34.7817 13.891 35.02 14.0687 35.228 14.216C35.3753 14.32 35.449 14.45 35.449 14.606C35.4577 14.7533 35.4143 14.8877 35.319 15.009C35.2323 15.1217 35.1153 15.204 34.968 15.256C34.8207 15.308 34.669 15.2777 34.513 15.165C34.3483 15.0437 34.1403 14.8877 33.889 14.697C33.6463 14.4977 33.3863 14.2853 33.109 14.06C32.7883 13.8087 32.5587 13.6007 32.42 13.436C32.29 13.2627 32.2077 13.111 32.173 12.981H32.16C32.1253 13.1283 32.0343 13.293 31.887 13.475C31.7483 13.6483 31.523 13.865 31.211 14.125C30.9337 14.3503 30.6607 14.567 30.392 14.775C30.1233 14.983 29.8547 15.1823 29.586 15.373C29.4387 15.477 29.287 15.5073 29.131 15.464C28.9837 15.412 28.8667 15.3297 28.78 15.217C28.6933 15.0957 28.65 14.957 28.65 14.801C28.65 14.6363 28.728 14.4977 28.884 14.385C29.1873 14.1683 29.482 13.9517 29.768 13.735C30.054 13.5183 30.3487 13.2843 30.652 13.033C30.9553 12.773 31.172 12.4957 31.302 12.201C31.432 11.8977 31.497 11.538 31.497 11.122V9.822C31.497 9.63133 31.562 9.49267 31.692 9.406C31.822 9.31933 31.9737 9.276 32.147 9.276ZM37.698 8.886C37.8627 8.886 38.01 8.92933 38.14 9.016C38.27 9.10267 38.335 9.24133 38.335 9.432V15.477C38.335 15.659 38.27 15.7933 38.14 15.88C38.01 15.9667 37.8627 16.01 37.698 16.01C37.5247 16.01 37.373 15.9667 37.243 15.88C37.113 15.7933 37.048 15.659 37.048 15.477V12.396H35.072C34.9073 12.396 34.786 12.344 34.708 12.24C34.6387 12.1273 34.604 11.9973 34.604 11.85C34.604 11.694 34.6387 11.564 34.708 11.46C34.786 11.3473 34.9073 11.291 35.072 11.291H37.048V9.432C37.048 9.24133 37.113 9.10267 37.243 9.016C37.373 8.92933 37.5247 8.886 37.698 8.886ZM34.591 16.127C35.8043 16.127 36.7403 16.335 37.399 16.751C38.0663 17.1583 38.4 17.7693 38.4 18.584C38.4 19.3987 38.0663 20.0097 37.399 20.417C36.7403 20.833 35.8043 21.041 34.591 21.041C33.3777 21.041 32.4373 20.833 31.77 20.417C31.1113 20.0097 30.782 19.3987 30.782 18.584C30.782 17.7693 31.1113 17.1583 31.77 16.751C32.4373 16.335 33.3777 16.127 34.591 16.127ZM34.591 17.18C33.707 17.18 33.0657 17.31 32.667 17.57C32.2683 17.8213 32.069 18.1593 32.069 18.584C32.069 19.0173 32.2683 19.3597 32.667 19.611C33.0657 19.8623 33.707 19.988 34.591 19.988C35.475 19.988 36.1163 19.8623 36.515 19.611C36.9137 19.3597 37.113 19.0173 37.113 18.584C37.113 18.1507 36.9137 17.8083 36.515 17.557C36.1163 17.3057 35.475 17.18 34.591 17.18ZM49.101 9.367C49.4824 9.367 49.7424 9.43633 49.881 9.575C50.0284 9.71367 50.102 9.96933 50.102 10.342V11.213C50.102 11.577 50.0804 11.9193 50.037 12.24C50.0024 12.552 49.9417 12.8423 49.855 13.111C49.803 13.2843 49.699 13.4057 49.543 13.475C49.3957 13.5443 49.2354 13.5573 49.062 13.514C48.8887 13.4707 48.7587 13.3927 48.672 13.28C48.5854 13.1673 48.5637 13.0243 48.607 12.851C48.6764 12.5737 48.724 12.3007 48.75 12.032C48.7847 11.7633 48.802 11.4773 48.802 11.174V10.758C48.802 10.5847 48.711 10.498 48.529 10.498H42.471C42.315 10.498 42.2024 10.4417 42.133 10.329C42.0637 10.2163 42.029 10.0863 42.029 9.939C42.029 9.783 42.0637 9.64867 42.133 9.536C42.2024 9.42333 42.315 9.367 42.471 9.367H49.101ZM45.318 12.032C45.4914 12.032 45.643 12.0753 45.773 12.162C45.903 12.2487 45.968 12.383 45.968 12.565V14.32H51.142C51.298 14.32 51.4107 14.372 51.48 14.476C51.558 14.58 51.597 14.7057 51.597 14.853C51.597 15.0003 51.558 15.1303 51.48 15.243C51.4107 15.3557 51.298 15.412 51.142 15.412H41.132C40.976 15.412 40.859 15.3557 40.781 15.243C40.7117 15.1303 40.677 15.0003 40.677 14.853C40.677 14.7057 40.7117 14.58 40.781 14.476C40.859 14.372 40.976 14.32 41.132 14.32H44.681V12.565C44.681 12.383 44.746 12.2487 44.876 12.162C45.006 12.0753 45.1534 12.032 45.318 12.032ZM46.137 16.465C47.3937 16.465 48.3687 16.6557 49.062 17.037C49.764 17.4183 50.115 17.9947 50.115 18.766C50.115 19.5373 49.764 20.1137 49.062 20.495C48.3687 20.8763 47.3937 21.067 46.137 21.067C44.8804 21.067 43.901 20.8763 43.199 20.495C42.5057 20.1137 42.159 19.5373 42.159 18.766C42.159 17.9947 42.5057 17.4183 43.199 17.037C43.901 16.6557 44.8804 16.465 46.137 16.465ZM46.137 17.505C45.1924 17.505 44.5077 17.6177 44.083 17.843C43.6584 18.0683 43.446 18.376 43.446 18.766C43.446 19.156 43.6584 19.4637 44.083 19.689C44.5077 19.9143 45.1924 20.027 46.137 20.027C47.0817 20.027 47.7664 19.9143 48.191 19.689C48.6157 19.4637 48.828 19.156 48.828 18.766C48.828 18.376 48.6157 18.0683 48.191 17.843C47.7664 17.6177 47.0817 17.505 46.137 17.505Z" fill="#238722"/>
<circle cx="17" cy="15" r="5" fill="#5AFF57"/>
</svg>
